<mxfile host="Electron" modified="2024-04-17T21:02:53.635Z" agent="Mozilla/5.0 (Windows NT 10.0; Win64; x64) AppleWebKit/537.36 (KHTML, like Gecko) draw.io/24.0.4 Chrome/120.0.6099.109 Electron/28.1.0 Safari/537.36" etag="Rv7Iel03BYStcX0mw88j" version="24.0.4" type="device">
  <diagram name="PÃ¡gina-1" id="o_XyB33cdRcOAEe9waSH">
    <mxGraphModel dx="933" dy="477" grid="1" gridSize="10" guides="1" tooltips="1" connect="1" arrows="1" fold="1" page="1" pageScale="1" pageWidth="827" pageHeight="1169" math="0" shadow="0">
      <root>
        <mxCell id="0" />
        <mxCell id="1" parent="0" />
        <mxCell id="LjI7DAijL7peGVdVRBZd-1" value="" style="shape=image;verticalLabelPosition=bottom;labelBackgroundColor=default;verticalAlign=top;aspect=fixed;imageAspect=0;image=data:image/png,iVBORw0KGgoAAAANSUhEUgAAAgMAAADWCAYAAABMt4HiAAAAAXNSR0IArs4c6QAAAARnQU1BAACxjwv8YQUAAAAJcEhZcwAADsMAAA7DAcdvqGQAAK0lSURBVHhe7J15XFRV/8c/s4Dsm4BsAqKIsggDKCLue+VeT2al5tKu5ZKWTy5l62OL1tOTmamZaWlm5pKW+0KuMKyKiqgoMIAwIIzMMMvn98cM2wADlvWrvO/Xi9dLzz3nnu92zv3ee8/cIyJJCAgICAgICNyziM0LBAQEBAQEBO4thGRAQEBAQEDgHkdIBgQEBAQEBO5xhGRAQEBAQEDgHkdIBhpRjQplBarNiwUEBAQEBP6htD4ZUOcjac83WLt6LTbvz0SJ3rzCH0d1UQYOfr8eq1d/hR9P5eK2eYVm0BRfRkbGVSh15keaRi1fjpGBrnBp6wLPUetQaDCvcXcxFB/E+89MwfOf/Ipy84MCAgICAgJ/FmwRPQsPvsZh7W0oAgiAEEnoEruYx9Xmde82Ol5dP4EdbEXGfgFCZM+uz2ynQm9e1xwVNz3oQJHEj0/tbY2glfz+MXeKxZ4c8upqfrE9hSrzKncZTeJchkhBq5ilzNCaHxUQEBAQEPhzaPHJgOH613h2wlL8nGePuOc+wQ/79uH7/z4PWUkyMm7V1NKhsigf+aW30fhmWodyRR4KKxrfnutvl6IgvxiVjQ+ZIMqKDIh6/hN8/8sufD4tArZQIWvdR9iS17gnc4yfUCCa+pKCrqIIijJNXYHhJnJv3IJBGo5Rz0/FtNGRsKtXX6MsgrJedV1lEfLzS3G7KTE0ZVAolKhXveYAyhSK2vNY93oNP589heQdcxEmrVdNfxulBfkobt4wgK4CRYqyJvoAqssLkV9Uicatm/eFgICAgMA9jHl20BAtM97oTmuRmG3HrGNevbtxfZWKVVRR/tkT7OXvSKkIhMiK7tHTuOGS8Ta38uzHfKirC6UiUCR1Zuisvawkqb95lO89HEl3axEBEa1cunDU6/tavNvXpr3GaCsQVr34n2wdqb/BTdNk7BzzDL8vNG+s4sZx9hRJfPnkHjWpz+OXj4Yw5KE3+dmsPvS2FlEkdWHUM1uZW32BH4/wp2sbESGypZtvBz6w4hxzv3yUISEPcvHbD7FDGzGdHv6WKvlnfKKXPx2lJtndozltwyVqSVJ/gztfGcwODhKKRBI6BD3AD89qSOp5Y+crHNzBgRKRiBKHID7w4VlW5X3FiaEdGfHMNpaRpP4mj773MCPdrSkCKLJyYZdRr3OfQk9Sz7wvH2VIyEN887NZ7ONtTZFISpeoZ7g116i7vuAXLnmgM52lIkJkRdfQh7ji1C3Sgi8EBAQEBARaSAZKuGaELUUiOz6wpsT8IKm7zI9Gx3DEC//hmm8387NnY+kokjDg2f1U6wv5xQgHim2i+OSqzdz06WI+89ZeVugV/Ga8F8Xituw181N+s/F9Tgy3p0jszce2NtFHLXpeWzmMziIRrSL+zdNakto0vhZjRZF1PN/J0pnVN0sGdNlclmBFkURCa68eHD9tHCNdxIS0K+cnKnhs5Qsc4i8hpEG874VX+dmxYl5clkArkZRSq3bs+dgznPHfY7z80WjGjHiB/1nzLTd/9ixjHUWUBDzL/Wo989aNZluxhJ4DXuKqTev45mN9+eSWCurz1nF0WzElngP40qpNXPfmY+z75BaWZS9jghXYZthnLKKeim/G00ssZtteM/npNxv5/sRw2ovE9H5sK0uoY/ayBFqJJJRYe7HH+GkcF+lCMaTsOv8EqS/g1w95Uiz154jFa7lp5fPs4SKmdeRCntE04wsziwkICAgI3JtYTgZ0l/lebytC7M6JP1SZH62HlrcKrvLC/vmUWYloM+pLVugV/Pw+e4qsAjjijR+YXmK6WN9cwxH2Ikq7vMRfNcaiW1seoZtYTM8ndrC5XrSXvuAYHwlF1iF8bk8Ja54DqBXnmXKhiKZT1aPpZABWMi48qyKp5qGZQZSI7Dhuo4rU5fD9PlaE9WB+qtCTNRdfSNnx6T1Ump1de6uAVy/s53yZFUU2o/hlRRFX329HkVUkF8kbLgAoWn0/7URWjFwkNz5BMKFrkAzc5JoR9hRJu/ClOsPwETcxxZ5PcEdVjTxWlC08SxVJ9aGZDJKIaDduI1myjqMcRLSKeom/nMtiVlYKV9znQJF1X35wOb9pXwgICAgICLS4ZkDiDGcHCURUobi4wvwogEokrZyE7r5OcPEJRMjgZZBrCZKguB0mvPY6HvAtwu5F4xAVFIFHP0+HKv868qsJsU8AAk3vydv4+sJDbEB5SQm05l0A0F/fhmdGzsCPhZ4Y/v4WfDDcrfZnEG3adUFkZw9Ym7VpFrEn/PztAEjQtq0rxNRDb/GXERJ0ksXAxfS/yqSVmNTdF04uPggMGYxlcq1RX60CeQotKPaCr2/9BQA6KPIU0FIML19f1D/SAF0+rudXg2IfBNQZBr4eYhjKS1BSaxgxPP38YQdA0rYtXMWEXq+HXpGHAg2hTXkfQ0O7oEuXKMzaUwlIxBDDs0lfNLXeQEBAQEDg3sNyMgBnRMcEQ0oNTny3BTn1L5p6PbR56/HK3K+R7v0sdl0qRWXWf5BgVVfFocdc7Dx/AUfXzECc9AK+ffk1bIMzHEUAS4pqf7qnu3kTZQYx3Dw9UK85AMBQvA8vj3kC6y45Y/B/dmLLzG6waVBBDZXa4tX87mHIw/pX5uLrdG88u+sSSiuz8J8ahcWOcLQHoL+Bq1dqFugZoDeI4Wg8gBtXr9Qu6jPozVYeip3hbDQMiuoMg5tlBojdPOFhbhgzRI6OcBABVr2X4UKVBhqNBhqNFtUVBzArSNKkL7Yqzc8iICAgIHAv0kIyIEXUlGcxyA0o3z8fw0e9iLc/+hjL/v0E+nUZhU9zbkGlAwBCUyjHtyu2IKPmuqy/jDXPT8WbP1yGdZfuCGkrBgiIvQdgQIQ1dJkb8Oan+3HmxFa8vuxHFIu8MXxU74YXetzGz/+eghXJlRC3C4Rjygo8O3EiJk6aiqW7CwH9BXw40B1O7e7Dp1f/hISAVag0KgxqCiH/dgW21Cgs9kOfPl1gpT+Pz56bhtc/eAezR0TiX6uL4denD7pY6XH+s+cw7fUP8M7sEYj81+qG3zEQ+2DAgAhY6zKx4c1Psf/MCWx9fRl+LBbBe/go9G5omEaIvfuiT7g1dKe/wOtfHEJq1jmc+WU9ln20G9e1TfsCIvOzCAgICAjck5i/N2iMnooDb3BUZydKRDW/9beie8x87lNe4dePdaStyPjtAdfoMRwSbEXHBzexUq/gN4+3ZxtTG1EbXw577zQrSd46+T5HdrCr/W6ByKY9hyzez0Y/COAtfvMvF4pr+q391oAVo5ekkrps/neoK63dR3L1NfPGVdw20Z0Sq2DOOqwh9Vf58SB7SpzGcH0pSeqYtaw3bSUuHL9ZRepz+b8h9pQ4jOTamySp59WPB9Fe4sQxxgYkdbzy9WPsaGv8JYHENZpjhgTTyvFBbqok9SWHuGSAN61EICCi2Cmcc/dVkPoSHloygN5Wxu8liMRODJ+7j+VXP+YgewmdxqxnKUneOsn3R3agXa2dbdh+yGLuLzT+msBcHl3WMva2ldBl/GaS5K0T73FkkH2dvURW9Byxkperm/eFgICAgICAiMYf4zfLBx98gJMnTwLQoepWOSo1hNTWCc4O1qbHCnqoK8pRqbWGk6sDrBvcbeqhqSjHLTXRxtEFTjaSukOGalSW30KVXgJbJ2c4WLfwkOIvhF5dgfJKLaydXOHQUGEAelSVl6FSK4adswvsreqO66vKUVaphdjOGS72Vs3cmBtQXVmOW1V6SBrYuZVQC1V5OW5rRbCyc4STfZ2fmvLFnDlzEB8fb3YSAQEBAYF7iRaTgQ8//NCUDAj8E5k9e7aQDAgICAjc47SYDAgICAgICAj8s7mjJ9ACAgICAgIC/zyEZEBAQEBAQOAeR0gGBAQEBAQE7nGEZEBAQEBAQOAeR0gGBATuGgZoypWorDYvFxAQEPhr0/pkQFOApJ82Yc3qL/H94QtQ/gkf/PsrUf3rEgzs8yqO/Gkf9K/Gr0sGos+rR/4mewhU48RrA5DwyiHzA61Aj7xjG7Hh8DX8dcLqDmXSX8AX/+oMr47dEBb7Avb90U7T5+HYxg04fK1V0v2xVJ/AawMS8MqhlpWuPvEaBiS8glZU/Q383caMQGPucNw1gz7vGDZuOIy/wvD4u9CqZKDi7EcYFx6MhElL8L/PP8LLD8rQMX4xjqvNa/5zYXk+Ll64DuWf9kNMojz/Ii5cV6KlLqtPfYDHpq9CRs3GB/8vEOX52bh4o8z8QCMay3sbiZ/NxdxPjqHl1n8WdyaTTv4VPv7ZH68nXcO1lBUY1Ma8xl3mdiI+mzsXnxxrjXR/MCxHfvZF3ChrKVKN4yj74g20oupvoPVj5p9O4zH2d+HOxl1z3E78DHPnfoK/wvD4u9ByMlC+D69MeBmnw9/D6auXkHxGjuzr6fhyXDtU1ws0vaoEBQol1Gb779SgqyhGicrsoK4CxSUq1JVWo7ywAMWqJtK56nIoCkqbPr9ehWJF88dKChRQNnnQiK6yGIVlTT3b1aGyWAFls7cZFuRtgAFqZQHyiyprNypqFl0lihXKZu5smj6P7noS9u5LgaIJMSz5pbpcgYJSdT37N01j3/0+vRvL64iHNypQtPVxtK1XzxK/Vy+DWomC/CJUNuuQ5mVqKl50hQqU2PsjsJ0YEIvrDSwdKopLUGe+pm1Se1SthEJRBvNobFTu+DA2Koqw9fGG0lmyC2CKr8LG5weMY6ywoBhNubU1Nm2IZT0BQF9ZjEJlM+c0mxss+us3jBkj1ShXFKC0WWOZsGAXoAWbmnMndc1pVo7GejQeY/W4E9s2Qg9VsaJZmzWeK/RQlRRA0ZyfG3Fn486IAWqlAop6xxwf3ghF0VbUHx53puc9iPn3ic0p+nIMXRwH85Or5t/+N1F2mp88KqO3Z3sGB3rQ1b8/5/xwlTqS1CRyUf8HuHDF84xyEtMq7BWe0miYuKg/H1i4gs9HOVFsFcZXTmlYduojPhzuTe8Onejr7steL27jNR1J6pj99TRGeXsyoKMf23V4mOuu6UnNcS7sN4qLVi7g0K4dGOTrQpcuE7g6U1MjGE9/8ihl3p5sHxxID1d/9p/zA6/qjEc1iYvYf8Rifr74PoYF+dPDwZ2xL/7IfJOaesUevtLXl65eAWwfEMdpzw5nO4+J/KHKdPZm5W2I+sQ7HBrsQQ//zuzk5UL3qGnclNNEReqp2PMK+/q60iugPQPipvHZ4e3oMfEHVjV7nmoqvnyEHd3tKZE60tOvPTv+6wve0LfgF102v54WRW/PAHb0a8cOD69jo60dmvSdJb3V3POkH90f20besbwaJi7qwx4vHaBa+R2nRfTiv4+YDE1SnbiYfaKe487Ku6CX+gTfGRpMDw9/du7kRRf3KE7blGNs34B6MrUQLyWbJrGThwMlEgd6+AWw56vHWZG4iP0fWMgVz0fRSWzFsFdONWMTU8/6Qu5fMoxBHt4M6ujLdh0G8e1f1c2XaxK5qE8PvnRAbWxvyS6aRC7qP4KLP1/M+8KC6O/hQPfYF/ljTbCzjKc+epjh3t7s0MmX7r69+OK2a3dg0z180s+dj20z+sySnuo9T9LPbRhffGkIuwR2oI+LK0MfX8vzGppsbjY3HDtqwV+/ZcwYW+qyv+a0KG96BnSkX7sOfHjdtTp9arFglxZtWo8W6qoPzWdc74U8VjN1aY5zUe84zj9o8q0FORrrccXCGLsT29ZHw+ML+3HUopVcMLQrOwT50sWlCyeszqTRbc3MFac/4aMyb3q2D2aghyv9+8/hD1d1pMUx3vpxR5L6wv1cMiyIHt5B7Ojbjh0GvU3j8FjEPj1e4gH1nYz5e5sWkgE19z3jzzY93uS5Ji2n4sGZnenS41UeL9WTrGLmx8Pp0XYU1+TpjZOErw1t/e/n+8dzmHPpBiup5p4nfWlj68/73z/OnJxLvFF0iC92bsehKzKoIqm78Q0n+Pvwsa2lpOYIXwz25EMbi6gnqcq9xGsq0wTka0W70Gn87oqG1F7mqgc86DZ6HQv0pOrgTHZ26cFXj5dST7Iq82MO92jLUWvySNOk5NvGnb1f2UeFjlSdXMBIuygulmtJVnLv04F06fsu06pIXcEvfCnWkZK2pmRAZUFeMzRpP3LjsRtUk6Qmi8v6OrLrvBPm1cjKvXw60IV9301jFXUs+OUlxjpK2NY0sTV7Hl0VCzc8RNf20/hjYRlvVela9IvmyIsM9nyIG4v0JFXMvXSNKnN5mvKdRb0bJgN3Jm9d2yp9Lv83xIn+T+01yaTmwRkd6TriCxbo74JemjT+uPEYbxgFY9ayvnTsOo8naibiWurJ1FK86KpYtOVxenk9zi2FZazUmOrb2NL//vd5PCeHl25UNm8Tkrd2TaO/+xCuyKwiqWdp8lbuStM0W97wAmzZLkZftqF771e4zyg8F0TaMWqxnFqSqkMvsnO7oVyRoSKp441vJtDf5zEah18rbGqWDFjSU73nSfpKbBj61DZe05La7JW8392NY75UmGxuNjeUWvDXbx0z1PDIi8H0fGgjjWrl8tK1RlpZtEtLNm1AC3Wrtk9iO99p3F1zbVT/xOm+HpxouvNoXo5m9Gh2jN2BbRtgbGtlF8pp312hhlpeXvUAPdxGc11BM/O86iBndnZhj1eP0xiSmfx4uAfbjlrDPK2lMX4H4463uGuaP92HrKBxeJQyeesuGofHk/Rzf4zbjIHQSj3vbVp4TaCHsuwW4OwGt6Z21dEkYvN2BXo/MxsJrmIANgid9gzukx7GroMVpkrW6PPKZ5id0AEdOvnCvqa0zyv4bHYCOnToBPfM77GzKBYP9Jfi+oULyK4MQ0LkbZw4nAqN2BkuTlXI2PcTMsoMsGvfCf52ppOIHDFi8XI8FGgNSIMw/pHe0CUewIlqDRI3b4ei9zOYneAKMQCb0Gl45j4pDu86aGoMiByHYfaSwWgnAeyiBiPBMxeXsquB6iT8dKAECZOmIsIGkHgNwRuLH4KnyVqa0xbkrT27EeuIUXi0ty8klYW4dl0Pr/ZOKM4vMKsFVCf9hAMlCZg0NQI2kMBryBtY/JBn7ePmZs8jsYGDjRVEIivYOTvD0UbSol/Ezi5wqsrAvp8yUGawQ/tO/qgxaUMa+k56N/RuSt76iH0x9uE+uPXTdzisAqBOxNbd5RgwfhS8tHdBL+sIjHq0N3wllSi8dh16r/ZwKs5HQSueYTYbLxIbOJp0snFyhr21qYF1H7zy2WwkdOiATr72zdsEGhzfvhe3+j2BJ0JtAIjhKnsQD0SwmfKaDky04G/AOFaGzV6CwUbhMTjBE7mXslENDU5/vxNFsQ+gv/Q6LlzIRmVYAiJvn8DhVE3rbGpG83oaETmPwuIPxsJfCkg7TsCEPjocP3Cirn29ucHXtXl//eYxAzGcXZxQlbEPP2WUwWDXHp1qJ5UaLNsFsGTTJriTug2wJIe2aT0sjLHW2rYxIjiOWIzlDwXCGlIEjX8EvXWJOHCiRgOzuSJxM7YreuOZ2QkwhmQopj1zH6SHd+GgysIYb+KK1Oy40xzH9r230O+JJ2AcHq6QPfgAzIfH7xnz9xJNmL4+Ejg62gPKEpQ0tSKnOg/5JU7w8XGoK5N6w7utDiXFppUbImt4eHmYdSSCtYcXPEyFeoUCxbdP4eNJ4zF+/HiMHz8Rq693RESgMyTSSMxd/T4Ssv6N+A6hGPnqj7hSO4LEsLK2qj2rjYcHnFRKKDXVyMsvgZOPD+okk8Lbuy10JcW1JQDqdg4UWcHaygCdHoCuEIU3HdDOy7GunlRSq4NFeWtbGDHk7ca/h3WGT8eeuG/cBLzxy00Y2DgKdYWFuOnQDnVdiiCV1FmttecBWvaLNHIuVr+fgKx/x6ND6Ei8+uOVpiclM9/9EXo3Rox2ox/GgNt7se2wCurjW7Hn9mCMf8Dj7uhlyMPufw9DZ5+O6HnfOEx44xfcNLCV7zObiZdmEFl7wKsmyC3apBqFhUq4tPOCTYMzNFduRgt2qaVOeFhZW8Gg0wPQQ6Eoxu1TH2PSeJNfJ67G9Y4RCHSWtM6mZjSvpwmxFaylNf+xgYeHE1Slpab/N5wbLPnrt48ZKSLnrsb7CVn4d3wHhI58FT/WTSomLNulliZt2gx3UrcWS3K0aYUe9Wm9bZtCbGWN2tnWxgMeTiooaxZUmc0V1Xn5KHHyQcOQ9EZbXQmKy9D8GG+GJsdddSEKlS5o52VxdNyxnvcqLSQDVojqHgnr8wfwS1O/0bBygpNtJUqV9QLQUIybZdZwb+dSv6ZFxI7OcLQfhLd/TUFKiulPfhbb58ogBeAoewpfnLiMzC0TULXmCczcoKhrXC9JqVaWotLBDW5trODkZIvKUmW9icuA4ptlsHZvV9egOST2cLBTQVlad79bfz+nluStQ4ODbz2PT6ufwuFrV3Au9TQ++5dPk0aX2DvATqVEXZdEXZeWzyOuP1jQGr84QvbUFzhxORNbJlRhzRMzsUHR8tC4W3o3ktcMscdIPDy4Gnu3/oSft+5B9fBHcJ/r3dFLc/AtPP9pNZ46fA1XzqXi9Gf/gk9TDrnrWLKJFRwdbVBRVmb2c6rmys1o0S6WEMPR2RH2g97GrzU+TUmB/Ox2zJVJW2XThljSs4660VQNpbISDm5uDY7XYMlfv2fMwFGGp744gcuZWzChag2emLmh5oiJluxyFxFLINJqoa35Pw319GhBjmb0aGmMoQXbNk2DyRallQ5wc2v6ZzNWTk6wrSxFw5C8iTJrd7RzETc/xu8EK0c42lSgrMzi6PgNet6btGASMbweehYPeyTinelLsffqbQAGVF7+GR8+NR/fKuMwKEGMY99uwVU9AOhx/fv12KsbiLED6+6qW8K6e3/0lB7Ft9/V+21pdTnKbgNQX8SZlGLoYYPAgeMxMECLinLTbxpZhj3/XY7TFcbsb9uWYxAnDEK8tTXiByVAfOxbbDEKBv3177F+rw4Dxw6s7bdZrKIRHy3GyZ27oTAAqEzCfz/cbvx3S/I2QI8y5S1YtWsPHxvAUHoK+8+WNJmRWkXHI1p8Ejt3K2Ds8r/4cLvx3y2ex9YObSpLcLP2iV28Rb+oL55BSrEesAnEwPEDEaCtQI1JLXHX9DaXtxGuuG/8MBh2LcYrO4n7HxkCR9wdvfRlStyyaof2RsFwav9ZlDTlkLuOJZtYo0ffHtAf2YqdpiArT9mITYnVzZRXNjhzS3axjDW69+8J6dFv8V29hL+6vAzG4deyTRtiSU8jLNuDT5afRgUAQ/52fHdMgoRBTW+jbclfv33MqHHxTAqMag3E+IEB0FaU1++2RbvcTaTt28OrMhMpF6sBVOLM8g/wQ1GNxSzJYUGPFseYZds2hijb818sN062yNu2BcfECRgUb/5M3oh1/CAkiI/h2y1XjXOF/jq+X78XuoFjYQzJZsb4nWDdA3176HFk607T3FyOlI2bYD48LOppuI6dbzyPJduuWE647wFaSAYAuI7AB5vfR3/FRxjR0QUOzo5w6zoB68oDEOLqi4nLlmNY9nzEhffBoL7dEPfydTy0agUmeIkBWMHKuk29R4JGrKys0aZeodjzESz76H7kzItFaK8hGDawJ7p06o3Xf9UAVVlYMz4SXeMHYUDsYKyomohZj/gbG4rsEWR/CJNje6Bv956Yldob77w1Ae3EYnhPXIblw7IxPy4cfQb1Rbe4l3H9oVVYMcGrRghYt7Gud0crhZWVFaykYkDshQlLXkXY8ecQFzcAPeOeQlKvcYixk0LakrwNsMPg6dPh//NziOuVgOg+i6EICIattPGdhdhrApa8Gobjz8UhbkBPxD2VhF7jYmAnlbZ4HuueI3Gfyx7M6dMPfZ5Yg+vwtuiXqqw1GB/ZFfGDBiB28ApUTZyFR/zNQ6Gx71rS28rKCtbWv0FeQ+OYcB72KEY5XEaOwzg81t/0Plf8+/WyGzwd0/1/xnNxvZAQ3QeLFQEItjX61ZwGMlmKFwAiqRRSKymsam7HGtW3ZBMx2k9+F0ujf8UzsTEYMDAGsnFrcEUsbabcbGy1YJemfCm1soKVlRRiiOH5yDJ8dH8O5sWGoteQYRjYsws69X4dxuHXsk0BK1hZWZvOb0lPAFZS2HYZgE6HJiK6ez90j3sB8vi38NYE4xM78ziw5K/fPmaqkLVmPCK7xmPQgFgMXlGFibMeqe3TiGW7WLapOZbrSiMmY9aIErw/WIaEuHg8d64v/iWzg9FkluRoXo/WjDFLtm2MCPZB9jg0ORY9+nZHz1mp6P3OW5jQrun4EntPxLLlw5A9Pw7hfQahb7c4vHz9IaxaMaF2XUCTY9w8BhqNo/rzdHtMfncpon99BrExAzAwRoZxa67AODzq2lnUU3cDiZs34Juj15r46em9hYj1n39bRIX8jDRklwBtQ2QIq/+eRl+Oq2kZyFU7IzgyHN7ma3FaiaHyOjLSrqBc4o6O4V3gY2+KmuoSXEw5h0KxLyJkQXCRANDsxVOdJuL2x9ewKvYiUm5YoaMsDA1fH+lRfjUNGblqOAdHIvwOBTNUXENqWj6sO0YjzKvx47Bm5TVDV5qD1AslcOkag44uTdcxYkDFtVSk5VujY3QYzLu0dB5D+RUkpeWjTUcZuvmY9LTgl+qSi0g5VwixbwRkQS6N3vlb4m7o3aS8reX36qUrRU7qBZS4dEVMR5cmJu8/Dks2AdRQZMpxqdwJnaLD4F0by82Vm2HBLi1jQOX1DKRdKYfEvSPCu/igbvi1wqZmWNYTgKESuampyLMKgizc2/KaCIv++q1jpholF1NwrlAM3wgZglya06p5u9xVDCpcT0/FDauOiAlth8b3283J0bwerRpjFm1bgwZ7n+qEibc/xrVVsbiYcgNWHc2uAc2gL7+KtIxcqJ2DERnu3eLi09+EWoFM+SWUO3VCdFgzsdQqPe9t7iAZ+ItRmwxcx9djm3S/gICAgMDvpi4ZuP712KYvtgJ/e/6+CZLEA1179UF4U79FERAQEBC4S0jg0bUX+oR7/Y0vGAIt8fd9MiAgICAgICBwVxASPQEBAQEBgXscIRkQEBAQEBC4xxGSAQEBAQEBgXscIRn4R1GNitLyRvsECAi0GoMaZcqmtvttjEFdBqWwH+zfm+oKlFZY+DKRwD1Dy8mAphiXMzJwVWkc9IbK68hMkiMzr7LBV8XUhReQnl1kuhDpUJqTiqSzZ3HW9Jckv4hiXc3vPZNw9mwSkuQpSL+Yj8pmPv1UmX8eqSlpyC5q5vKmzkfSnm+wdvVabN6fiRLz8zRzXFN8GRkZV2FSqRZNYRr2f7ceqz9fg407EnG5vL6GBlRez0SSPBN5lQ00R+GF9DoZa/Wrp3tKDkprmqiu4fRPm7Hui/XYdjwHFc1+8esOKT+CJQkd0LHXXGwvvlsnbYpK5J1LR07p3+gioDqPn9b/gJQyA4BK7JrZHSM/zDS74P0N9TJHdw4fj4nFs9tNmxNpinA5WwGLHwysh/LwUgwO8keYLAzD38syP1wPJQ4vHYwg/zDIwobjvSzzgdcKKndhZveR+DDzLtu7ga//PhjKryEtqW7OqP1LkuNC4d28WNePfx3ky0cjzLczpv9Ybw8LgXsT820MzVFtepAOIgn9ntpLsorfP+pKMUCRbQTnH600VtIXcuUQa4rsxnGjiqRqC8c7i2j6mLXxT9qZcxM1VG0ZT2dRvXKIaOOTwJnfme0vXbaNE9uJCYhoFb6ApxvsC6pn4cHXOKy9DUU15xFJ6BK7mMfVLR1XcdODDhRJ/PjUXtN+4fpCHnh9OAPt6sssotQ1itM2XjLu2V31PR91NcpjGzGfdaqv5BBrEe3GbaRRdXP9QFh155vndNRmfcF/BdlQBBFFIhFFIit2evGQcYvV34Weii9GsG382zzXaP/Uu4me19aMprtYTM/JP7JuN3JLqHn8PxP41Bfn/9/2D6/aPZ3+HsP5SbaO1CRybogrx20sq1fj76lXI4q+4P1OXTn/hIaknnn/G0z7kJeY2JqtWjWnuCDClf3fP2+MdwtoTi1ghGt/vn++pZrNo0mcyxDXB9nADXeBBr7+/0Z9nP+Z8BS/ON+SLDqefyeeNlIJJRIJJSIRRWLTv6X27P/hZfMG9bjDOGwU/7f45UhHxr97qXXtBf6xtPxkgDRe0UgABqjV1aDIClJdJlYuWgXjTUHNBiHGuoAWWh0gdumJ6W+8jbfffhvvvPVvjAuRAlotdJDA+8H/4tCRX/DtmyPgUfQr/jdzKXar6rpV7vkWP91sAzc3O+izvse3p+ptOXT9azw7YSl+zrNH3HOf4Id9+/D9f5+HrCQZGbdaPm7UpUZmPa6um45HXv8Zea4DMe/z7di3fztWzx+EdpWpWPvMk/jkgh4wqKGuJkRWUugyV2LRqizjt6xN9qndWaS+fseO4dixYzh+5EtMD9Zi738W4vsr1uj/bjJKK4uRsfs9TAhzaHFDkZZR4+TRJPgNGorgRt8S1UBZVNb0qwODCqVKdYMnPBplAfKLVU1/p1u5B0vfkkM2NByVF88jt1ElPVTFBShW1TugO4efN+3CVZ2rmZ7VKCssRPlvuDHUq4pR0JyMTWBz/2pcK9qD5ztKYLiZDHleJ0TL6m2n1qJeTfT5B+gFvQrFBcWobz4jGigL8hvatZZqlBcWoUIHaFLOIEMSDlmYNYBqyJPOwSoiuvGWrholisoaRoT+ygEcyumG0Q91buLrd/XR48qBQ8jpNhoPdW5YU1OmaCZ2zOPCgJvJcuR1jka0gwFqZRFqNr+rT3VZIQrv0JD1fV0fg7oUxfXPVV2OotLbTe4TAhhlKmvqhlyjREF+Uz4yUW9M6c79jE27rkLnaj7CNShT1PenBF1e+RVVWh10txPxUldb9F9+BdU6HXTaShyaHdR8DNxhHDaKf10ucgvsENjJu1VflhT4B2OeHZij2jiO9iIJfZ/cQ1LFjePsKbLuzTH3u1Ms8eVj3xVRr1fw08HWFNmN5dcqkqqNHGcvosT3Se4xu+2tOZ//s/uNd8Tq3ZzmI6aozRCuVOhNtYr41VgXih3v53sfjKaLSMqOM2vuoLXMeKM7rUVith2zjnk1TUjqq1SsavG4SQeJL5/coya1aXwtxooiSSCf/OlWXWWWcutjXhTDirFLM6gz6WTdewzvdxdT4vsYvyvSU6/4lIOtRbQb+7XxyYC5frXc5OfD21AkduPI1dfubhauzeDSWE8+8p3pcUXVfs7t+TDf+mIeh4YG0tfVjj73/4/ndCRZxb2zevDBRe9yQogDxfajuK6U1FzeyrkDO7Btu0AGejrTK24Gt16rL6Wap16V0Wv4Sp7fNome7Sbzx3q30Kr0dZwe155e/sEMaOfLuPl7qbvwMUcGedBBKqGDhx/bh0zlllKyKmMNJ0d60M3Hj95BQ/jqoscZ/fiGen01gyqd66bHsb2XP4MD2tE3bj73lpKs2MHnZIP5ttz0WESXzU/HhvPxDUUkq/jL7FgOWHqaWpJVO6fQx3c6f6p1jmW9mupz9+m7rBdVTF83nXHtvegfHMB2vnGcv7eUpIaXt87lwA5t2S4wkJ7OXoybsZU1blGlfcHJUZ7G/gL78YmxYbSNe5tZOlNMxNgx7u0s6khW7Z/Lng+/xS/mDWVooC9d7Xx4///OUUcdr3w2lh09HWklsae7XyAHv5vKJh8w6a7ws7Ed6eloRYm9O/0CB/PdVC21V3dwwbDO9PbtyEAPF/oPfYe/VhibNBUXZBV3TvFlwIOvcPbgLgzwdaWd93B+nGnqtSqDayZH0sPNh37eQRzy6iI+Hv04NxTVG8xNYubr/XPZc/y7/HLBUIYFetPFoROnbMniiY8mMKaTH93t3Jjw5mnTOFVz/9yefHDJJ5w1IIQBfu509BnCD+SmQNFc5ta5A9mhbTsGBnrS2SuOM7bWjGPzMTWS77w7kkEeDpRKHOjh154hU7eQ1PLqjgUc1tmbvh0D6eHiz6Hv/EqTqUiS+oKVHGLfmbOP1Tx1aT4Gfsv4ahT/yg0c27YP38+5qzOSwN+Q35YMtBnOT3bPY6iViNbdFvCkqqDJZEDsfj/f3LaDO3bs4M59qSzU15xPzHYj3+G27Zv5vxf70EMspsuA5ax5mqYvWMORzmI63LeKeQVrOdJJRIn/0/xFRZIlXDPCliKRHR9YU2ImbWuOmyUDpWs5wlZEsdtj/F7VsGbJ6vtpIxLRZcJ3rDLp1Gb4J9w9L5RWImt2W3CSqoKmkgExXWIe47yXX+bLLy/gOz9kU0cdzy3rTQcRKLJyZ9S/FvHrszebTgq0yXyjjw89PTzoUe/PM2gyN5eaVyZ1Wf9h73YjuabAOFlq05Ywxs6ZgUOW8HCRnuojLzLYtj+XX9OTWjkXRdnS0SeeM75NZXZOHisqjnBeNzdGv7ibN7QkVWe4MNqGwbOP1fVx4SMO8ozh4jNq6s69yR52vfifSybpy/ZxRkhbJiw5QSVJ3krlth2ppF7D0p1PMsB1HL/MV7KsQk296hjnRbix+4KjLNGTysTFjHeSMmjmodq+mqaM+2aEsG3CEp4wdsLUbTuYWkVqTsxjV+dRXFfj7lvf8F9uHTnzkNqob6QT719dRFLL9Ndj6DhkJU2msqxXc32q7qZeZNm+GQxpm8Alxk54K3Ubd6RWseLIPHZzi+aLu2/Q6JaFjLYJNl4oKg9zTqgLY185YupvCROcpfSdvsd4cVN+xbEuNa/CtExbEkM750AOWXKYRXo1j7wYTNv+y3lNT1Kj5L6Znek8YhWvKW9R1WQmYESj3MeZnZ05YtU1Km+pqK06wYUxHoyZvYd5OpJFaznK2ZtTd1U1HxfadL4eY00b74FcfLiIevUxzu5sy37Lr5FU8di8CLp1X8CjRsW4ON6J0qCZPNTS+zQzX6ctiaGdSyCHvnaUN/UV/GGSFx3bd2a/p77jFa2WqYtltI1ewlQtTTcFNrT3G2SUSXeZH/S1Z8Cz+0lW8Mi8bnSLfpG7jQOEZxZG0yZ4No9pTP2ajalyTSl3PhlA13FfMl9Zxgq1nlUnFjLGI4az9+TRaKpRdPaeyl31kk/17mn0dRlX+/rEYgzc8fhqKv7fZbzLWH5dPyMRuCf5jcnAMH5WmM8ND3pSLHbliM+T+cmQxslA/ffmIpvRXF9Rc75679NFEnoMepu/ltRk/Xre+GwYHcT2HLoyj3q9gl884EiRxJfTdlWSust8r7cVIXbnxB+aeLvb0nGzZEB/bTn7WYMS/2e53/wpxrcP00lkvNBX1iQDwz5jYf4GPugppth1BD9P/sS4ZqBBMiCi1NGTfn5+9PPzZ/Rc01MC7TXuXDicQfZiigCKrHx534dnaLqf/w3oWXDwA06MDWa/N07Unqd0/Wg6Og3g8izjRU1zYh67Oo3g2lKSJWs50sGBCe+mm+7+9MxdOYwuHZ/ngdpkqIrbJ3nQYdxGUzcKfvuIL4Om7WIpSaq+44S2XnxiR1W99jN40CyZIvW8urwf7Xu8VZvoFW0Yy7Z+07izZvLRnOT8UGeOqr2SN40+dyWHuXTkjEad6KlYOZSOssVMMV3ENCfnM7QmOShZy5HOEfz3GS1JJb8a48Ku808Y34tb1Mtyn3dLL+pzuXKYCzvOOMgGvdSUP3+grrxqOyd5OHDcxgoWrR9Ltwb9neC8rg4curKAepKaIy+yk8NwrirUkyzl+tGOdBqw3PjUgBqemNeVTiPWGvXWK7hyqCNli1OafiJQD71iJYc6yrg4RWu0/brRdPOdwHWpmUxJ3MXPZ/VhO89RXHNV23xcKL/iGCdnDvzogjEZ1iRybogjR6wtJYs2cGxbP06rU4wn54fSedQ6tmBJM1+b66zmnum+tO4ym0cqSVLHc2/1oH3v95mjM90hO7nUyWQaAy6PbKmNg+frBgirtk+ih4NpjVSjMUVSf5XL+9mzx1umd/l6BdeNdqPvhHVMzUxh4q7POatPO3qOWsOrtQ88dMxYGku7mriyGAOq3xCHZvFPkppkvtu3Pbs++qXJTgL3Ki2vGWgOkTceXvg8oq3L8POH/0NaE6/2xG6DsGDdV/jqq6/w1YaXMbh2yyoJfCd9jdSjn2J8BzFuHt+IbRlVxkOG69i25RhUIjdIsr/Ef/6zBhdFbSHRF2D35n2okDjD2UECEVUoLjatmq5PS8fNEDs6wUEsguFWCUoa6GBAiaIYaorh5uHeYFtPkffDWPh8NKzLfsaH/0tr4mdYYvg8vgnZ16/j+vVrSHp/ENoAgNQfI97Yg/OXjmHVcz3R1pCPvYsXYWNBwzeXBmU2Ticex/Hj9f4Sf0VqrvlO6gaUXD6JM8X+GD06FvYAgGqkJ2VCOmgqJoUY3wJWZJ5DXkA3RDgCmrRkZFoNwdNPhpt0UuHYvlOw63cfetX6R4WbN6vg5ukJAKg88jYW/wB0dEzFZ++8g3eWH4XCSomL5/OgRwWO7jsF237DEN9oS7JqpKZcgEtEFDpIAECNUwdPgglD0d/0ytKgOIUzuUGIkjmZtW1IxdF9OGXbD8MadaKFPPk87MJlpvUSBhSfScL1oCjInGr0DYesqxSoTkNSpgQR0WGwblEvS33ePb1QcRT7Ttmi37D4hju6qY5h3yk79LuvV1256iZuVrnB01OLxP3Hgfr9FZ7B2dz2iIpygxgGKJJTkR8og8xNDFSnIylTikFTJ8EYEhXIPJeHgG4Rxj3ktSmQn7dFWFRwM9vX1qFNkeO8bRiigqUAbuPI3qOo0iVhxZTJeG7hKhwTj8Hqo5swNUDVbFxUpyUh02owpk3qDAkAQ1kGMvMD0C3CEepTB3GSCRhaZ0icOpOLoCgZWrCkma/NdNbnI/OCEhETpqKXPQCokZmRA7fQcPhIgOqMZGRKBmDKRKNMMCiRl38bnt7eUB3bh1N2/XBf3QCB6uZNVLl5wlPS1JgCUJ2KlAsuiIjqYDzf7SPYe7QKuqQVmDL5OSxcdQziMatxdNNUBNTOwhVIlmfDLTLaGFcWY0By53FoFv8AoDy+BdsK/NGnTzA8zJc2CNxT/PZkAIB11EwsfMQXhoub8e2ZxpdEkW0Q+k6YiIkTJ+Lxh+LhU683ib0XQvo8jQ9fHQ5n7Xl88d63yDcA+ivfY+uvVRCJS5C4+j94993/4LOjxRCLiaI9m7FH6YzomGBIqcGJ77Ygp/56Gr0eerR03AzHCHTrJAUrEvHTvtK6ct0FfLvtDLRiZ8T1jTVezGuxRtTMhXjE14CLm79FE6o3icFgvOhbe/fCk8s/wrQQCagpQn6DnwIaULDvE7y+dCmWNvh7G2t/vWkmvxRh01dhbuhp7DxcaFwMZVAgOU2BLnE94QwA0CAlORNWYVHoKjWgQJ6Gwi5xiDceBPTFyC+shruPT91EpjyIA8m26Nk/BtCl4+N/b4D4/gnoYX8bKpUKqip7eLazQk7WeWj1xchTVMO7vX/jC4nuMlIzKhESFQUrADCU4srVcngFBpomIx0ufLMZp+0iEN145WM99CjOU6Dauz38zavpryMtsxSdunUz+kiXhQ3fnIRtRDSCa/QNkUFmAxgUcqQWdEa0zK5lvSz1edf0AvTFeVBUe6O9WSf64nwUVrvDx6euXHnwAJJte6K/7Dau31DBKzCgtr+L327BaauaxYNqJCefg21ENEKlgEGRjDRFF8T1NDldk4LkTCuERXWFFID+RhoyS0MQFdV4m+6G6HEjLROlIVGIamO8wF7J1SBi5nYkJZ1B4sEd+OqDORgZYg80GxcGKOSpKOgShzhHY4k2TY7z1uGI6ipG6ZWrKPcKRKDpaqW78A02n7ZDRHRLiYq5r811lkOe5YboHqbz6M5DnqFBWIwMVjDgZkoq8kN6oEdNxlF2CIdSnBDfLwLF+YWodvdBnSuUOHggGbY9+yOmTRNjCoDucioyKkMQFWUFANDnX0GuJgIztych6UwiDu74Ch/MGYkQYwZvpDoNSek6hMdGw6qlGIhpc8dx2CD+AUB/GeuWrkHbuZux8plecPtdVwOBvzu/0/2uGPHKHPSxV+FWg9/etxYxfB6cilHtgPJ9q/FlVjUufbcVpzTW6PV2KkrLy1FeXo5y5XmsGGwPlv6MLT+VI2rKsxjkBpTvn4/ho17E2x99jGX/fgL9uozCp9fFLRw3k1MajYlTEuDMfHw9fSgef/U9fLT8DTx/3/1YfEwFm8hnMHds24ZtAMB1BF6Z0wf2qltorDqhyvoJq1euxMqVK/HZ6h+RVpKIl3t0xaApC/Cfj1bg7Tmv4OuLekjbx6NPp/rTnBi+D6/A7p9/wS+/1Pv7eRc+esS/8Ypf3Q3kFTnAr72r0Zlq46TXLbq9sa4+D/K0YoTIZLCBGinyC2jbLRrta04kcYGHuxSK7IsoBwBDEX5+7U3s9Xkac0Y7I3f9q1iRPxrvrnkPb775punvDcy5LwDlF88jz+AAR3ug4EoOjD8GuY2cpHQUGQDoLuFSrjW8vN2Msolt4WAvQnlxEbQAyk4uw+yP5dCFRhsn8OIDeG/GYmy9Yp6yieBg7AQ5pl+c3M5JQnqRAdAXoajEAKlUChHKcHLZbPw3WYfQ6Dp93SNk8JMAankysty6ITpA1LJeegt93qFeMBTjwHszsHjrlfpKAQBEDo6wRwGu1HWCpPQiiFw84C5VIPtiOQDAUPQzXntzL3yenoPRbW1gbydGWXFxbX8zPziN6hAZZHYAdBeRnFaJrtHRsAGglsuNepucrs+TI604BDKZcTNadUoKLnqEI8pHYlFWQI2UlIvwCI+CjwSAyBkuTiIU5GSjsqaKphKVGgCi5uJCDXlyFtqafALocUOejpshMshsxLB1sIeovBhFRsWwbPbHkOtCEW00JIoPvIcZi7fWk6kGc1831Fl3QY50dShiZMaLM5QpSLkWAJnMDWJUQ55yHtWlV5FdYgBQjsT3P8Q+78l4ergzXDzcIVVkw+gKA4p+fg1v7vXB03NGw7WpMQVAd+kScq294G26woqcXeAkKkBOdq2loKmsbPArH0NBMlLyOyA62hhXEksx4Hrn46su/k2C3krE0bQuGDRU2I1QoBW/JqjaNpHuEisGzzpMsorfP+ZGqdNYrq9dyFbJ44t70lUqopX/M9yrJlm1jRPdpbQKnsXDZj9Frvr+cbpLrNnlpeOm91ZVPDKnC9uI27DH0n387yBbSpwG8ePL9V9g6Zm/djRdxWK6P7aVldRTceANjursREnN+gORFd1j5nPfLWP95o9XcdtEd0qsgjmrRjhdLncvHM6ODsZ3+QAokjgwaOgC/ni1ZoXz93zMTUqnseuN71lJsvI4F/d0pVRkRf9n9lJNsmrXNPpKzdZLWMXwtZQb3Dknju2sTcdEYjp0GsV3jpWwpTXSFrm1kQ+27c1lpt9VazOWsrvbKK6tWXld9SMn+3TkjANqUpvOpd3dOGptUYM+lYdeZVxbFwb1HMj+3XzpG/sUN17QkOpDnNnJjYNq36PWUfrlaDp3eJ4H1HrmfzeVwfYuDE4YyL6RwYx68jvjAiVtGt+Od6RzcDz7j3mbJzV63tg0ge3tfRjZK4YRfZ/mokkRDJtrjIVbWx5hW6ch/N+1xhbR53/HqcH2dAlO4MC+kQyOepLfFehJKrnzySDaeoQyLjqcfZ5ewqlRYZx7XGOmr5YZS7vTbeQaFt5ujV4W+rxDvXhrCx9p68Qh/7tm1htJfT6/mxpMe5dgJgzsy8jgKD75XQH1VPLQq3Fs6xLEngP7s5uvL2Of2sgLxsUOLNgykQH2XozoGc3QnpM579EwBj5ljEGWbeBY12C+eFhj/PXN0u50G7WWdSExmT4dZ/CAcSELkxdF0um+z1nEFmTVJnNRpBPv+7zIVKBn0a4X2M3FhZ3iB3PogFh27jSKn17WGcdsU3GhyeDS7m4cuaYmBqv442RvBj1/gGqS+hubOKG9PX0iezEmoi+fXjSJEWFzedxoSG55pC2dhvyvvlRGmvJ1PZ2VX42hW+RCnqlZV3L4BQZ7T+S2SpK6TL7R3Y5devdiYICMvWMD6RE0mivOmlbhKA/x1bi2dAnqyYH9u9HXN5ZPbbxg9G0zY0qb9jbjHZ0ZHN+fY94+SY2+iLte6EYXl06MHzyUA2I7s9OoT1l/mqvaMYU+Pk/wx9oFApZi4E7HV734NwmqOTqLnYMar5USuDdpMRn4a6NifuZJHj2SyOTskiY+ltLS8YboVfnMPHWMR46dYma++aqnu4Pm5iWeTTzOM1kFrDC/Ev0GtGcXMsrH7OdwvwFd2RUmHzvCxLQbv2lBoyovjcePJDI1t6JhclNxjWePHmPKjRp76qjMPsXE5Cssq6+/6iQXdffjwPflzX/0R5XHtONHmJiay4r6nejLePl0Is9eKWt0cf/dNNdna/WiiicXdaffwPcpb14x5qUd55HEVOY26ETHsivJPHYkkWk3zL2ip/JSU/3dIXoFVw13Ni0etCyrXrGKw51rFg/WoS25xNNHD/PY2QssNGvXbFxYQKfM5qnEZF4xU0x1chG7+w3k+00J93u4tYkPunXlvF/VvHXlDI/9ms588y50ZbySfIxHEtPYyBXNUHHtLI8eS2FtiFDLkkunefTwMZ69UNh8nDfAUgzcSRyao2fuRwPoev9qYxIocM/zN08GBDQn5rGrSxyf3XCatT/I+Nuh4omFvdnjhZ9q71r+KahOLGTvHi/wp7+cYnqWZJ/h4a+fZZRLDF+Ta5uXVV/C7DOH+fWzUXSJeY01n3P4U1Gd4MLePfjCT4WtTipai+bXl9jFdRy/vstfQ/zrcosp373Bf3Vpx/tXXbvr9hT4eyKi8XN8An9X9LnY/+kaHLV/APOm9jCuDv8bUn37NsR2di0sEvsbUn0bt8V2sPvLKVaJnxc+hHfPuiJ+2mtY/K8Q2DQna+XPWPjQuzjrGo9pry3Gv0KMaw3+XKpx+7YYdo2E+/3c3vcq/rU5GB+vegJmHy78Z6K/jp9WrILc7X5Mn9wL7YQFAwIAhGRAQEBAQEDgHkfICQUEBAQEBO5xhGRAQEBAQEDgHkdIBgQEBAQEBO5xhGRAQEBAQEDgHkdIBgQEBAQEBO5xhGRAQEBAQEDgHkdIBgQEBAQEBO5xhGRAQEBAQEDgHkdIBgQEBAQEBO5xhGRAQEBAQEDgHqeVycBt5J+TI+nsWSQlpSDjYj7KdeZ17iYGlGx7DrEh3TD9u1LzgwICAgICAgJ3kVYlA+qfXkD3btGI7d4dsbEyRIT4wcMzFGNe24t8vXntu4EWZ3/egZTLFbBxtzc/KCAgICAgIHAXaUUyoMOFU0koNlgjfsFuHD2yD9s+m43eNpew440JmPL5lQa1q8sVyCsog6ZBaX0MuF1ahLJq83LAoFZCUVQJnT4HSSlFMNiEI7pbm7oKmjIo8gpR8Yc+lRAQEBAQELi3aEUycAvJ8kvQSTogYeRg9Ok7GGOffg/fvDkcjizHsV0HAACq9PV4rl8A3Nr6wM+3LdwCBmPxviIAgP7ipxjXpQsmvr8Ws/r6w83dC54BQ7A8zZQRGEpw9J3R6OLpAR8vDwQNnYWtmTpIO0VB5gzg9jl8PXMgOri7w8fPG24eEZi0LgvVAHSZK/FQZGf0ePmghQREQEBAQEBAoDlaTgY0qUjKUAMOEYgJtzYViuHi7wcXMaG/rYIh7xtMu28aVqW54+F31+Ort0bBI/8g3p2zAgBQcXo/DlzKwQ+vzcUu68EY3d0NesURbNx+EYAB+d88g/GLdiLXrS8mPzUanqkHkKISwSlchs7iIvzw/AOYujIDvpM/xFfrXkIvnMOmpZ/guMaAggPfYWf6NailDhA1EFxAQEBAQECgNbSYDOjzk5F6Qw9plxjI7GpKDVBevoJigxgOPu1w5r9vYlt+G/Re+A1WvzQRE+fMwP0+YuiuXgRQjfSkDNymAW6jV+HoL2vx/qPdIIUI9g4OgC4dqz74EYXSaLzy416s+2wjNs+PgxQShMpkkKZ/ijc3XYNV/PN4+5k+8BWpoNIBNv4d4CsVo/30ryFPOY8jS3ugJlUREBAQEBAQaD0tJgPq5GSc00vQrpsMgRJTof4qtmz5FWrYoXuCJ345cAlaq1iMfrATJACgU6KsghC7tAUMhZCnXoPeqgeeX/IgfMRaXMjKhl7SDqHdvKG/9gsOZGghlT2ECeHWAKqQlp4NvcQX3aLb4eqen5FeTdw+/jr6R8Vj7L8PwWH0a9i8fiZCJADsfBDaLQiuNbIJCAgICAgI3BEtJAM6nE9OQwWtER4jgxUAGIpx7M1pWHq4EhL/8ZgxzoD8QgNEVh7w9jServzgHhy7Bbj2GgBUy5GcqYMksCcSAiWA/jqS0xQwWBsXB+pv3ICCIlj7+KO9BNCdX43/7roJ2oQjupsEedcVMEh8MG1nBXQ6NcryzuHw14vwQKDxOYBBrcJtYUGhgICAgIDAb8ZyMmAohVx+GTqRFFe3zcakR8agf2gXDHr9CJTOPfHKl8twv4cPfL3EgDoJ2786gpN7VuCpOV8jv40Mz80dA93FJKQpCbuwGERYA6hKRvI5PaQdZZC5AWJnFziKCPWpDXht6Qu4/75XcbSCpsWDEji7OkFsuImTO3/EqbRUnPh5Iz58bysu6gGd/E308nRCu3HrUGIuu4CAgICAgEDroCU0p/hKmBVFACESUWLlQI+gGN731DLuzlaZKulZsOMFRrtIjPUgoo1vf87dlkMtyYpvH6aLxJ59lp2njqQ2dQljrK3oM/VHVpKk7hw/GuJOiQgUWbmz+5NPc4ibFb2e+JEqkrrLX/GxYDvTuUGIrOk3YSPz9eStLRPobu3KXm+epbah5AICAgICAgKtRESS5gnCb8FQkYv0tCu4Ze2L0MhOaHsnq/l0xcg6ewka326IaO/Q+HFFdQmyU88hr8oabQO7oKu/s3FtgoCAgICAgMDvpsVk4Ndff8WNGzfMi/+SPPzww+ZFAgICAgICAi3QYjLwr3/9C1u3bjUv/kvSgioCAgICAgICTdBiMiAgICAgICDwz6bR63kBAQEBAQGBewshGRAQEBAQELjHEZIBAQEBAQGBexwhGfgzMahRpqzEn/HBRIO6DMrKP6OnPwdNRRlu681LBf5o/hlxZIC6TIm/ghpCHAv8VRGSgVajw7mPxyD22e2oAABoUHQ5Gwq1eb2mUR5eisFB/giThWH4e1nmhxuiK8Xl1CScTUqCPD0bCpXBvIYFlDi8dDCC/MMgCxuO95Iz8NP6H5BSdifnuNtUYtfM7hj5YeZvSoTKD81GbLep2HK9uVnUzDeq838BnX8jFmU3j8G7iQrnf1qPH1LKYOz5j46j3x4TqvM/Yf0PKWiVKMrDWDo4CP5hMoQNfw9ZzYXQXaQ5+VqOYwGB/0fMPkIk0CxF/OJ+J3adf4Iakvq8/3GwfQhfStSYV2yM5hQXRLiy//vn2XJtPfM+HUJ75yDG9OrFuEh/ujh15JiPklllXrUJNKcWMMK1P98/b+ypavd0+nsM5yfZOvOqfx6aRM4NceW4jWXmR1qm8ijnxco4c+9N6s2P1dLQN38JnX8jlmVvqOdvR83j/5nAp74wfhWUJFm1m9P9PTj8k2zq/ow4+s0xUcXd0/3pMfwTtiyKhqcWRNC1//s0qfEn0Ix8rYpjAYH/P+6hZEDHyqJ8FlU2nkHUpfnMK6qsmxjroSlTsPCWllT/wqf9Xfmvb26RJKt2TaWPy0PcZPxvPdQsLVRSXa9El/U2e9r34/KrrZkGqrhzijddH/6WFab/J77UldZ+T/OX+ielmsqCPDN9dMx6uyft+y2nxa7UShbkFbEJU5DUs7KklFX121usXw+NkgpFWaNPQ+vz/suBDt355rnmTtC8b6ryz3L/8ZwmE6HmfNMUGqWCirLmrghqluab27IZNGVUKMp+48W4KZ+1TEt6qpUFzcYvSapLC6msHzvaZC6KdOTQzxTNXJhaF0e6yiLmN9Gv0dbmUdCQJmOimfhpLY301GXx7Z727Lf8amM99ZUsKa2qV66hUqFgc2I3p2tz5eZYimOSpLqUhQ2EFxD4c7knkgFV+jpOj2tPL/9gBrTzZdz8vSRJzeWtnDuwA9u2C2SgpzO94mZw6zXTsFal8YvJUfR086GfdyD7PTGWYbZxfDtLR1LLjKUxtIt7m1k6klX7Obfnw3zri3kcGhpIX1c7+tz/P57T6Xjls7Hs6OlIK4k93f0COfjdVGr1Bdw8PZqyGbtYs8NDLdo0vhZjx7i3au7aNDz5cijbhC/gaS1Janl1xwIO6+xN346B9HDx59B3fmWF7go/G9uRno5WlNi70y9wMN9NreAvs2M5YOlp4wSrvcodC4axs7cvOwZ60MV/KN/51ZRy7J3FHg8u4rsTQuggtueodaUW6zekihlrJjPSw40+ft4MGvIqFz0ezcc3FBmP7pxCH9/p/KmJue7u+6aqoc5VGVz7hKluu/bs88Jcjo9+nBuK9CQ1vLx1Lgd2aMt2gYH0dPZi3IytrOmmISqmr53C6HZt6evXju37vMA5D8tqdazY8Rxlg9+m3HQx0WV/yrHhNf0047OGHTSW3aKepPbqDi4Y1pnevh0Z6OFC/6Hv0OieKu6f25MPv/UF5w0NZaCvK+187uf/zumou/AxRwZ50EEqoYOHH9uHTOWWUrLql9mMHbCUp9WtiCNVOtdNj2N7L38GB7Sjb9x87i012nrN5Eh6uPnQzzuIQ15dxMdrbd2QhjFhOX4aNvyFs2MHcOlprWU9r3zGsR096Wglob27HwMHv8tUbRX3zurBBxe9ywkhDhTbj+K6UrIqYw0nR3rQzceP3kFD+Oqixxn9+AZjf83p2lx5A/ksx3HV/rns+fBb/GLeUIYG+tLVzof3/+9ci4mFgMAfwT8/GSjbxxkhbZmw5ASVJHkrldt2pJIVRzivmxujX9zNG1qSqjNcGG3D4NnHSFby8JxQusS+wiMlelKZyCUJzpT6TuceNUkq+dVYF/o9tZdqktq0JYyxc2bgkCU8XKSn+siLDLbtz+XX9KRGyX0zO9N5xCpeU96iSktSd4FrnxzN5zZcajzwS9dzjJMXJ31XyNLCbCauf4E9PdrzwXU51JGsOrGQMR4xnL0njzqSRWtH0dl7KndVkRrlPs7s7MwRq65ReUtFrVbORZFOvH91EckqnlgYQ4+Y2dyTpyNZxLWjnOk9dRerqKV8URRtHX0YP+NbpmbnMK/CUv2GqI7NY4Rbdy44WkI9lUxcHE8naRBnHlKT1DL99Rg6DlnJAvNrwh/hmwY6q3j0pXC6dV/AoyV6suwU3+zrQqsOM3hITVYcmcdubtF8cfcNGrtZyGibYM4+1vi+X3X0JYa79uCrx5Uky3jqzb50serA5w+qSWp4Yl5XOo9axxJT/Vvf/ItuHWfykNqyzxrQQPYW9Kw6wYUxHoyZvYdG96zlKGdvTt1VRWrTuCTGjs6BQ7jkcBH16iN8MdiW/ZdfI/Ualu58kgGu4/hlvpJlFWrqqaV8USSd7l/NIrYUR2XcNyOEbROW8ITRaUzdtoOpVSoemxdRZ2tlIhfHO1EaZLSBmaINYsJy/Ji1lC9ipNP9XF1kTJyb1ZMaKvfNZGfnEVx1TclbKq3RvlG2dPSJ54xvU5mdk8cK1THOi3Bj9wVHaRR7MeOdpAyaeciCrs2Vm8lnMY61TFsSQzvnQA5ZcphFejWPvBhM2/7Lec18nAgI/An8vycDKsVlXsjKYlbWBV7Kb/4x729Dz9yVw+jScQYPNrgFryl/ngdqy6u4fZIHHcZtpL5oPce6+XHazpp7N+Nk7zDUdEHTHOGLnRw4fFUh9SRL14+mo9MALjfdsWlOzGNXpxFcW0pSr+DKoY6ULU5p1eNPzZEX2NHKnh6+3nRpI6bYpSfn7b5mfCytV3DdaDf6TljH1MwUJu76nLP6tKPnqDW8qif1ipUc6ijj4hRTTyVrOdI5gv8+o6VesY6j3Xw5YV0qM1MSuevzWezTzpOj1lylniVcO9KBDgnvMt3U1HL9+hRxw9i29Ju2s/ZOV3NyPkOdR3FdCY2J0xiXJt5z/0G+qaczizZwXFt/Tt9dVzfxpRA6j1zLEn0uVw5zYcfnD9Q9nanazkkeDhy30fx5zU1+/aA7/abuYE2EahJfYojTA/ziZlM+1vDk/FBjctCCzxpQ318W9dRTsW403XwncF1qJlMSd/HzWX3YznMU11zVk6XrOdrRiQOWZxmTTc0JzuvqxBHGgOTV5f1o3+Mtnq/NREu4dqQzI/59hlq2EEe5KznMpSNnNHQaWbSBY9s2lLfWBg1rmsVES/HTkJK1I+kc8W+e0RoTZ0t6KlYOpaNsMWvUYMlajnRwYMK76bVjsWjDWLb1m8Y6sU9yfqgzR60raVbX5srZQD7LcUyWcv1oRzoNWG58umjyr9OItSxtcEYBgT+H/99fExhysXn+wxg/fjzGjx+PJ947Yl7jd1KBo/tOwbbfMMTb1S9X4di+U7Drdx961ZarcPNmFdw8PaFO3I/jSMDQ/g7GQ4ZCnDmbi/ZRUXATAwZFMlLzAyGTuUGMaqQnZUI6aComhRj3UqzIPIe8gG6IcASgTYH8vC3CooIhre2/OQwoSE5FQcgL2H01H8UXvsQ4u3ScPKc27tJ4+wj2Hq2CLmkFpkx+DgtXHYN4zGoc3TQVAWJAmyLHedswRAUbe9KkJSPTKhyyrlLcPrIXR6t0SFoxBZOfW4hVx8QYs/ooNk0NgFiThuRMKwx5+kmEm4S0WL++yOpTOHiSSBjaH0ZrGaA4dQa5QVGQOQGoTkNSpgQR0WFouJHlH+Ob+jqrf92H4+iFYf1q6ipw5uwNBEZFwUl1DPtO2aHffb1Q181N3Kxyg6en2Z6Y6pM4eMKAhGED4AgYdTxzFjcCohDpDEArR/J5O4TLTD42FONM0nUERcng1ILP6tNAdot63saRvUdRpUvCiimT8dzCVTgmHoPVRzdhaoAY1elJyJQOwtRJIca4qcjEubwAdItwBFCN1JQLcImIQocaNU3+D5d1hRSW46ji6D6csu2HYQ2dBvWpgzjJ+vIqcOpMrtEGDWqaxURL8dMADdKSM2EVLkNXKVrQU4sU+XnYhkXBpIZJjyF4+slw01hU49TBk2DCUNSJfQpncoMQJXNqVtfmyhvKZzmOUZ2OpEwpBk2dBOO0UYHMc3kI6BZhijEBgT+X/99kQOyPKevPQp6SgpQUOY5/OMK8xu9DX4w8RTW82/s3vBDri5FfWA13H5+6cuVBHEi2Rc/+Miiv34DKKxABpquX7uK32HLaCuEy4wVNnZyMc7YRiA6VAgYFktMU6BLXE84AAA1SkjNhFRaFrlJAfyMNmaUhiIpqU9t986ghTz4P2/BohEoBacCDeHywPZIPHEaJAdDnX0GuJgIztych6UwiDu74Ch/MGYkQewDQ40ZaJkpDomDsyoACeRoKQ2SQ2eiRfyUXmoiZ2J6UhDOJB7Hjqw8wZ2QI7AEYCuRIK+yCuHijBoDl+vUxlF7B1XIvBAbWGOsCvtl8GnYR0QiWAgaFHKkFnREtM5s4/xDf1NfZgNLc66j0CoS/lanu+Y349rQtwqNCICrOR2G1O3x86npXHjyAZNue6B/T0FeG0iu4WlZfx/PY+O1ptKnx8fU0ZJZ2Qrduxna6rA345qQtIqKDIbLos/o0lN2invp8XMnVIGLmdiQlnUHiwR346oM5GBlib7yYJqdB0SUOPU3u1KQkI9MqDFFdpYDuMlIzKhESFQWTWUz+D4FMZtNiHBXnKVDt3R7+DZxmQOmVqyj3CkRdGHyDzaftEBHdOAmuHxMtxU/DhgWQpxUiRCaDTUt66m8gLbMUIVFRMHrFpEeXONSGuaEUV66Wwysw0JSo6nDhm804bReB6GBRM7o2ZwMz+SzGcQwMimSkKbogrk54JGdaISzKmJAJCPzZ/P8mA380Igc42gMFV3KgAgDcRk5SOopELvBwl0KRfRHlAGAows+vvYm9Pk9jzui2sLG3g7isGMVaAGUnsWzmBzhdHQKZzA6ADheT01DZNRrRNgDUcsiz3NAtur3x7kSfB3lasWnCAtQpKbjoEY4on5rbMBWSVs/Bi6vOQlNPVACA7iKS0yrRJSYaNgCANoiICIb+fCoytIDI2QVOogLkZFfWNtFUVprOo0ZKykV4hEfB2JUaKfILcI+QwU8igrOLE0QFOahrqkFlpallihwX2nZDdPsaGS3Xr4/Y1gH2onIUF2kBlOHkstn4WK5DaLRJf3kysty6ITrA7G77D/FNfZ3FaGNrA1FZEYq0gKHsBN6Z+SGSdF0hk7WBxMUD7lIFsi+Ww9jNz3jtzb3weXoORrs2FFXcxgY2ojKjjoYynHhnJj5M0qKLLAo2APRFRSgxSCGViowyzf4vknWhiJbZtOCz+jSU3aKeIme4OIlQkJONOvdUwugeNeTyLLh1i4bRnXrkydNQHCKDzAaA7hIu5VrDy9utdvCrU+S44B4BmZ+kxThyMDoNOUan4XZOEtKLAFsHe4jKi2EMg5NYNvtjyE02MKd+TLQUPw0bpkB+wR0RMj9IWtJTnYKUix4Ij/IxjkuTHm1r6wMQ28LBXoTy4iIYxV6G2R/LoQuNhsymOV3ZTLmhoXwSS3HsCrVcbrSBSRh9nhxpxTUJWTUyN8zH8+8dNAkqIPDH889OBsSeGPPUI3D4fgq69x6EflFReHDVBRjghtGzZqLDvmfQI34QBsiiMe3Xnvjkm0WIswFc75+MsVab8WR8PGISZuOibBCCfSMRHSgBoEJGRi58Y7rDTwLorqThfHUU4qJM91naDGTkeCE6tj0k0OFiaiY0XWUw3TQCuvP44X9r8Mul2xDVlxUAVBnIyPVFbHc/0wQmgW9EODxLc5BdboDYYxxmTnPFtkmx6DVkGAZ2D0H4YxuQpzcmEqmZGnSVdTPeCelykJ6lRWSPSFhBDI9xMzHNdRsmxfbCkGED0T0kHI9tyIMeOuSkZ0EbFYcaFWCxvhnOQ/HoKDE2P52AhNi+eDm3BwZ36oSYWC+IocOVtPOojuyByNpzm/gjfNNAZ8D1vscxUvwtnoyPR/fe83A5MAKuvhGQ+UgAt9GYNbMD9j3TA/GDBkAWPQ2/9vwE3yyKa3wRcr0Pj42U4Nsn4xHfvTdeyvZHuLMXwiONCaB1aH/09T6Nt+/rhZg+85EbPxxdOsUg1kts2Wf1MZfdkp5iD4ybOQ2u2yYhttcQDBvYHSHhj2FDnh7QXUHa+WpExdXc+WuRkZEDr+hY40VQ2hFdO2mxe8FADBj7Dk5Vm/xf46MW4shzzFN4xOF7TOneG4P6RSHqwVW4YACchz6KUeLNeDohAbF9X0Zuj8HoZLKBmaINY8Ji/Ji1zElHljYSPSKtWtRTdzEVmZqukNUMPJMedfUBwBlDHx0F8eankZAQi74v56LH4E7oFBMLL3FzujZXbiafxTg22aDemNNmZCDHKxqx7SWA/gZ+WfMptiYV1koqIPBHc09sYXw7Px3y7Ao4duiG8PYOtZOMvvwq0tJzUeXcEZERvg0egRvKsnH2XAU8w7oh0Nnsrra1GArx+QMh+KzHEZx+PfIuPf7ToTRbjsw8Dey8OyOssydsABgKP8cDIZ+hx5HTeD2ymZ50pciWZyJPYwfvzmHo7NnosteQ1tbXl+Fy0jnc8gxDt0BnUyLTOv5o3+jLLiP5XBncQ8NQ8l4PDEmfjewdU9DWeBTlV9OQnlsF546RiPBt9Oy+DpOOZR6hCCt5Dz0GnMVz2XvwTDujxIbyHCRlKuERFtWETE37rCVa0lNXmg15Zh40dt7oHNYZzbmnEZW5SJLnQhoUjUjfhq9vWhVHt/ORLs9GhWMHdAtvDweT0/Rll5F07laz8jbL74ifpjGg8PMHEPJZDxw5/TqaU8OIHmWXk3DulifCugWikdjN6NpsuRmW4lhA4K/EPZEM/PkYUHo5Gekn12LWjNMYc+gklkRZnJF+O4ZSXE5Ox8m1szDj9BgcOrkEf1RXfy8MyN/5Ib4o6Iz+kZ7QXvoRb73yLQL+exprxno0uuu8E0rXjkSH97vi55Rl6NlwVeTfl39IHBlKLyM5/STWzpqB02MO4eSSqLuUhAsI/LP5PXOiQLPcxpl1C/HaBiXu+3wjXv4jZ9XbZ7Bu4WvYoLwPn298+W85gf9RtHGzw82DK/Ha/AV4b3sZhq3ch5W/MxEA9CjWu6PvQ8MQ8U9JBPDPiaPbZ9Zh4WsboLzvc2x8WUgEBARai/BkQEBAQEBA4B7n990kCQgICAgICPztEZIBAQEBAQGBexwhGRAQEBAQELjHubeSAYMaZcpK6MzL//YYoC5TovKfp9g/XDeB34Omogy3zb/XICAg8Ju4Z5IB5eGlGBzkjzBZGIa/l2V+uBVUYtfM7hj5YebdTyZ0pbicmoSzSUmQp2dDoTKY12ge5WEsHRwE/zAZwoa/h+SMn7D+hxSU3cEp/lh+h93MdMv6DRN/5a6Z6D7yQ2Teced/EJW7MLP7SHz4lxHo7nIn9r6TuuaUH5qN2G5TseX6bwqKf7QPBAR+C/dGMlB9Gu+9sAL6mUdx5eo17J/XxbxGy1Sn4fC+y2jj5XeXf65kQP7qRxDZ72E888ILeHbiIHT16YyxH8uhNq/aiGqcfu8FrNDPxNErV3Ft/0woPnoW8z5PRMlf5TciJrtZ37HdzHWbhy7mH4RpkWqkHd6Hy2284Hdnnf9hVKcdxr7L1vD6qwh0VzHZ27o19r6TumaojuGt+Ucw4LPVmBR4x0HxB/hAg8Rlj+LpNVmNv9ApIPA34Z5IBvRXDuBQTjeMfqhzg53zNGUK5BermhjAeqiKC1CsqjtiuJkMeV5nREc7wKBWokjZ+OvyqC5DYWH5Hd4BVyP5TAash72Nw4mJOJlyAbufssZP763CsfpdaMqgyC9GPZEA/RUcOJSDbqMfQmdrALDB/auvoWjP8+hYb45sXk8ABhVKlWrUf5BgsX49qssKUVhuWVuj3TohWmbaFg6ttFMj3WrQoEyR38A3tehVKC6oZyPDTSTL89A5OhoOBjWURcom9gRonR41tGQbjbIIZU11AgAw4GayHHmdotHQHK3vv7q8EIXl1ebFraOpGGoCjbIABU3Fd0vtTfbuFC0z7UAIANUoKyxEI/VMdYNjZHCAplnfNBWf6lt2GLbieywb1rbFCayxv5r2QQMsxmfjuQG6c/h50y5c1bmafWK8Gd0FBP6KmO9p/M9CxyufjWVHT0daSezp7hfIwe+msurqDi4Y1pnevh0Z6OFC/6Hv8FfTfuaq9HWcHteeXv7BDGjny7j5e0mSVTun0DfgQb4yezC7BPjS1c6bwz/ONO2LXsWMNZMZ6eFGHz9vBg15lYsej+bjG4pIkvqCzZweLeOMXY33P6c2ja/F2DHurfPGPdmp4cmXQ9kmfAFPa0lqr3LHgmHs7O3LjoEedPEfynd+raDuymcc29GTjlYS2rv7MXDwu0yt+IWzYwdw6WmjVNpm9azi3lk9+OCidzkhxIFi+1FcV2qpvhlVGVwzOZIebj708w7ikFcX8fHox7mhSG9ek1U7p9DHdzp/UrNFO9XQpG5aLa/uWMBhnb3p2zGQHi7+HPrOrzSKp2L6uumMa+9F/+AAtvON4/y9pWTVTk7xDeCDr8zm4C4B9HW1o/fwj5lZs5n9HejRvG2quH9uTz781hecNzSUgb6utPO5n/87Z/RmQ6q4c4oPfaf/RKM5Wt8/VelcOyWa7dr60q9de/Z5YQ4flpnqVuzgc7LBfFtuUkyXzU/HhtfZtZkYaoTyON8ZEUxPnyB2aOfO0LkHjHK2tn3VTk7x8eV0o7NZlbGGkyM96ObjR++gIXx10eOMfnxDvbr+HP/6Eo6ODGJ7dwd6DXqPyaY4aSo+NZe3cu7ADmzbLpCBns70ipvBrdeasrNlfzXwQQMsx2dTc4PuwsccGeRBB6mEDh5+bB8ylVtKW9BdQOAvyD88GSCpUXLfzM50HrGK15S3qKo4wYUxHoyZvYd5OpJFaznK2ZtTd1WRZfs4I6QtE5acoJIkb6Vy245Uklqmvx5DaxtvDlx8mEV6NY/N7kzbfst5TU+qjs1jhFt3LjhaQj2VTFwcTydpEGceMk43ugtr+eTo57jhUhMTV+l6jnHy4qTvCllamM3E9S+wp0d7PrguhzpW8cTCGHrEzOYeo7BcO8qZ3lN3sYoaKvfNZGfnEVx1TclbKi218kWMdLqfq4tIVlnQUyvnoihbOvrEc8a3qczOyWOFpfoNUPHYvAi6dV/AoyV6UpnIxfFOlAbNpEndehjt5jhkJQtaYac6GutWdWIhYzxiOHtPHo3ijaKz91Qa3TaDIW0TuOSEkiR5K3Ubd6RWUZv+OmOsbeg9cDEPF+mpPjabnW37cfk1/Z3pYck22jQuibGjc+AQLjlcRL36CF8MtmX/5dfMTkJSm87XYxw5ZGUB9XfSP1U8+lI4XXu8yuNKkmWn+GZfF1p1eJ4H1aTmxDx2dR7FdSWm6re+4b/cOprsaimG6qNl+tLudIxbyrQqkloFs3OU1Le6PY32dhzClUZnc16EG7svOEqjeosZ7yRl0MxDdXWtHek34BXuU+ioy36PfewC+dwBddPxWXGE87q5MfrF3byhJak6w4XRNgyefcxMipb8Vd8HDbEYn83NDXoNS3c+yQDXcfwyX8myCjX1LeguIPBX5P89GVApLvNCVhazsi7wUv4t88O/H72CK4c6UrY4hVrqqVg3mm6+E7guNZMpibv4+aw+bOc5imuuapm7chhdOs7gwUY38Ep+NcaJzgM/4gUdSWqYODeEjiPWspRF3DC2Lf2m7TTdpZKak/MZWn9ytoDmyAvsaGVPD19vurQRU+zSk/N2X6OGpF6xjqPdfDlhXSozUxK56/NZ7NPOk6PWXKWeeipWDqWjbDFTTDeEJWtH0jni3zyjtaSnnixZy5EODkx4N930ZKOF+vUp2sCxbf04bWettjw5P5TOo9axsbpKfjXGhV3nn6DmjuxkpptewXWj3eg7YR1TM1OYuOtzzurTjp6j1vCqNpcrh7mw44yDNHeb8qsxdHIeyI+MTqMmcS5DHEdwbemd6NGCbUrXc7SjEwcszzI+2dGc4LyuThyxtrTBWUiSyq84xqUr55/Q3EH/JG9+zQfd/Th1R8340DDxpRA6PfAFb5rbysyulmOoPhoenRVMm9Cn+ENO3WW+9e2N9nbpOp9G9cayrd801ql3kvNDnTnK5GzlV2Po5NCL76SbhK7azkkeLnxki6rJ+DSOzed5oNbJVdw+yYMO4zbWFJhowV/1fdAAS/FZ039Tc4OeV5f3o32Pt3jelOu3pLuAwF+Rll65/bEYcrF5/sMYP348xo8fjyfeO2Je4/ejTYH8vC3CooIhxW0c2XsUVbokrJgyGc8tXIVj4jFYfXQTpgaocHTfKdj2G4b4hhu5AdVpSMq0wuBpk9BZAsBQhozMfAR0i4Cj+hQOniQShvY3vSc1QHHqDHKDoiBzMjtPIwwoSE5FQcgL2H01H8UXvsQ4u3ScPKeGBMDtI3txtEqHpBVTMPm5hVh1TIwxq49i09QAiKFFivw8bMOiECwFAA3SkjNhFS5DV6klPcXQpCUj02oInn4y3LSoz3L9+qhPHcRJJmBof9MLV4MCp87kIihKhkbqVqchKVOCiOgwWN+Rncx0u30Ee49WQZe0AlMmP4eFq45BPGY1jm6aigDVUew7ZYt+w+LR0G3VSEvKhNXgaZhkdBrKMjKRH9ANEY53oodl21SnJyFTOghTJ4UYd9uryMS5vAB0i3BscBYAqE5LQqYkAtFh1nfQP6A+eRAnDAkYNsB0ToMCZ87eQEBUJJyhhTz5POzCZaY4MKD4TBKum+xqOYbqY41ecz7AC+1+woSIMDzwxkEUGe6kvdHekohohFmrcergSTBhKOrUO4UzuUGIkjnV1hUPfBLTwo0RaCgrQMFtT3h7S5uITxWO7TsFu373oVetk1W4ebMKbp6eNQUmWvBXPR80wGJ8VjQ/N6AaqSkX4BIRhQ4SAGhJdwGBvyb/v8mA2B9T1p+FPCUFKSlyHP9whHmN343+RhoyS0MQFdUG0OfjSq4GETO3IynpDBIP7sBXH8zByBB7QF+MPEU1vNv7N1r1blDIkVrQBXFxpslYmwb5eWuER3WFuPQKrpZ7ITDQNLnoLuCbzadhFxFtmpwtoYY8+Txsw6MRKgWkAQ/i8cH2SD5wGCUGPfKv5EITMRPbk5JwJvEgdnz1AeaMDDFug6q/gbTMUoRERRn3nTcUQJ5WiBCZDDaW9IQBBfI0FHaJQ7yzSQyL9etjQOmVqyj3CkSdut9g82k7REQHN2O3zoiW2cFwJ3Yy002ffwW5mgjM3J6EpDOJOLjjK3wwZySMbsuDotob7f3NTmJQQJ5agC5xcTB6TYs0+XlYh0ehq/QO9LBoGwMUyWlQdIlDT5MtNSnJyLQKQ1RXc6UMUMhTUdA5GjK7O+jfZPOy+nXPb8S3p9sgLKorpPrrSMssRadu3YxxoMvChm9OwjYiGsHSFmLIDEn7kfjPwfM482EU0t56BZ9nVbe+vcnenaNlsDOU4srVcngFBpoW7Opw4ZvNOG0XgehgqaluPrr0jIebqXnZoYOQO8WjX5S0ifgsRn5hNdx9fOpsozyIA8m26Nk/pqbEVLcFf9X6oGEzi/Epan5ugO4yUjMqERIVBSsAaEl3AYG/KP+/ycCfgDolBRc9whHlIwFEznBxEqEgJxuVNRU0lajUABA5wNEeKLiSAxUA4DZyktJRZADU8mRktY2AzM+4RF9/Q470myGQyWwgtnWAvagcxUVaAGU4uWw2PpbrEBotM+5Zr0rC6jkvYtXZJtZK6y4iOa0SXWKiTfvbt0FERDD051ORoRXB2cUJooIcZNcJi8pK03nUKUi56IHwKB/jHak6BfIL7oiQ+UFiSU+okSK/gLbdotG+5hcHFuvXRwxbB3uIyothVPckls3+GHJdKKJlRg3qo5YnI8utG6IDJC3bqUHDhrqJnF3gJCpATp0hoKmshNFtjrBHAa7kGL2G2zlISi+CQS1HclZboz1gTDDk6TeNydKd6GHRNmrI5Vlwq7WlHnnyNBSHyGB+GmPiZ6wbILmD/iFGGxsbiMqMdQ1lJ/DOzA+RpO0CWZQNoC9CUYkBUqkUIpNd/5tcY9cWYqgWA0oz5chWAYADOkV0hHMbZ7g6ilvZHoBajuQsN3SLDoBEbAsHexHKi4tgVG8ZZn8shy402mgXtRzJmdUoy7tu/B5G2XEse/8XeE9+GsMdmohPiQs83KVQZF9EOQAYivDza29ir8/TmDPataEcLfmr1gcNWlmOTwtzA3SXcCnXGl7ebsbJtAXdqzM3YP7z7+FgyV/mQyACAsA/PxnQ4WJqJjRdZejWBoDYA+NmToPrtkmI7TUEwwZ2R0j4Y9iQpwfEnhjz1CNw+H4KuvcehH5RUXhw1QUYoMOVtPOo7tYdkVbGs2ozM5HTTobY9hLAeSgeHSXG5qcTkBDbFy/n9sDgTp0QE+sFMQDd+R/wvzW/4NLthj86AgCoMpCR64vY7qYLFiTwjQiHZ2kOsssBj3EzMc11GybF9sKQYQPRPSQcj23Igx6A7mIqMjVdIevWBgCgy0lHljYSPSKtLOupy0F6lhZRcaY7GbRgFzOchz6KUeLNeDohAbF9X0Zuj8Ho1CkGsV7moWSyW2QPo91asFODlma6iT3GYeY0V2ybFIteQ4ZhYPcQhD+2AUa3jcFTjzjg+ynd0XtQP0RFPYhVFwzQXUnD+epu6F7nNGTmtIMstj0kd6KHJdvoriDtfHU9W2qRkZEDr+jYugtZDaa6kT0iYTRHK/sH4HrfYxgp+RZPxseje++XkO0fDmevcES2lwDWoejf1xun374PvWL6YH5uPIZ3qbGr2GIM1WHA9T1zMSA0GgOH9Ebkg1sRsOhNTG4vbWV7mOxtij84Y+ijoyDe/DQSEmLR9+Vc9BjcCZ1iYuElBnQ5abhgm4CuaU8itkcfxEaNxXftl2Ldwni0aSo+4YbRs2aiw75n0CN+EAbIojHt15745JtFiGuUO7XsrxofNMBSfDY7NwCQdkTXTlrsXjAQA8a+g1PVlnTX48Yva/Dp1iQUCrmAwF+Mf/YWxoZCfP5ACD7rcQSnX4+sfcSnK82GPDMPGjtvdA7rDM96E8rt/HTIsyvg2KEbwts7NLpQNYm+DJeTzuGWZxi6BTqbLux3CV0psuWZyNPYwbtzGDp72gAwoPDzBxDyWQ8cOf06Ipt5+mhJz6ZobX192WUknbsFz7BuCHS+A21bZafmdNOhNFuOzDwN7Lw7I6yzZ70nCreRny5HdoUjOnQLR3uHVnntjvRorW3uhDvp31i3DB6hYSh5rwcGnH0O2XueQTsxAEM5cpIyofQIQ1RTdm0yhswxoDI3DSnXNHAPiUIXT2MiBrS2vTl6lF1OwrlbngjrFogm1dOXIUeegULbTpCFeTV+QmSGvvwq0tJzUeXcEZERvo1fVdTjN/mrhfhsdm6ozEWSPBfSoGhE+tq1TncBgb8Y/9BkwIDSy8lIP7kWs2acxphDJ7Ekqpkr5t8MQ+llJKefxNpZM3B6zCGcXBLV+D3m35R/sm53j1KsHdkB73f9GSnLejb4iJaAgIDAb6V1t1B/O27jzLqFeG2DEvd9vhEv/0MSAQC4fWYdFr62Acr7PsfGl/9ZF8t/sm53DX0x9O598dCwCCEREBAQuGv8Q58MCAgICAgICLSWf+iTAQEBAQEBAYHWIiQDAgICAgIC9zhCMiAgICAgIHCPIyQDAgICAgIC9zj3RjKgOo+f1v+AlLK/15c+DOXXkJZ0FmfPmv0lyXGh8Dfuad8kldg1sztGfpjZzB7uTaApgPynTVjzxXpsPXgeyr+XaX8HOpz7eAxin92OCvNDv4PKXTPRfeSHyGzkABXO/7QeP6SUGT9yI9A8lbsws/tIfNjYiI3QnfsYY2KfxfYWnfgbxoaAwN+QeyIZUB/5EM/O+xyJJX+BH05oErHs0aexJsv8G27m6HFx5QTE9eyJnj17omePHugRZ/p3zz54ZtMN8wZ1tLoPE9VpOLzvMqy9/Frxcz4Dig69iRFdOyF+8mv4dNUHmDMmCmHjvjCv+A9FiRM/H8JtJy/jXgB3hWqkHd6Hy9Ze8DN3gPoIPnx2Hj5PLMFfIHqhSVyGR59eg9aGVn3uuO0dxnF12mHsu2wNr0ZGbIzyxM84dNsJXi058Y7GRuu4YzsICPwJ3BPJgM39q3GtaA+e79jwU2AGdSmKy+vl+9XlKCq93fQdmEENZVEZmrwf1yhRkF8MVXOD26BCqVINAwDduZ+xaddV6FzNP0+sQZkiH8W1J5Ggyyu/okqrg+52Il7qaov+y6+gWqeDTluJQ7ODAGigLKjfxkizfVSXobCwvNEdjuFmMuR5nRAtM22zZgGNfBkeHPce8u9bj4xrF5F0Jg1Xsvfh34N969dqUq5a6tnDUpmmTIH8YlWjT99Co0RBgRJNfCEfgAFqZRHKmnJUS34CoFEWoayJE1eXF6KoQgdoUnAmQ4JwWViD3/k3K6sZ1WWFKKwfcwBguIlkeR46RctMO+bVw+Z+rL5WhD3PdzT7Ip4B6tJiNAzfIpTebjJ6YVArUdSkUQCNssCi7AZVKZRqg/GpyM+bsOuqDuahBU0ZFBZta6lt0365szg24GayHHmdotFsGFeXo7CoAjpokHImA5JwGRpsXtiEDi2PjWqUFRY28EMD9CoUF9Q/Z/N2aDI2BAT+LMz3NP7nUcVfZsdywNLT1JKs2j+XPce/yy8XDGVYoDddHDpxypYsnvhoAmM6+dHdzo0Jb56mmiTV+zm354Nc8sksDggJoJ+7I32GfEC52nRqzWVunTuQHdq2Y2CgJ5294jhj6zXjvvas4t5ZPfjgonc5IcSBYvuRfOfdkQzycKBU4kAPv/YMmbqFpJZXdyzgsM7e9O0YSA8Xfw5959faPdVJUl+wkkPsO3P2sZo92DW8vHUuB3Zoy3aBgfR09mLcjK28ptPxwsdN9VHFjDWTGenhRh8/bwYNeZWLHo/m4xuKjJLunEIf3+n8SU1SX8DN06Mpm7GLjbZu1+XwkyEudB3yX14y7d3ekObkYhP2GMV1pU2VkdqrO7hgWGd6+3ZkoIcL/Ye+w18rSFLJ4++MYLCnD4M6tKN76FweMDqK++f25INLPuGsASEM8HOno88QflDjqBb8tH9uTz781hecNzSUgb6utPO5n/87Z1JQlcYvJkfR082Hft6B7PfEWIbZxvHtLOPx5mU1oyqDayZH0sPNh37eQRzy6iI+Hv04NxTpyaqdnOLjy+k/1QRWvWa/zGbsgKU8rWWtrOPf/ZILhoYx0NuFDp2mcEvWCX40IYad/Nxp55bAN08bz6PeP5c9H1zCT2YNYEiAH90dfTjkA7kxtklqLm/l3IEd2LZdIAM9nekVN4Nbjc4iq/ZyVo8HuejdCQxxENN+5Dt8d2QQPRyklDh40K99CKduKSW1V7ljwTB29vZlx0APuvgP5TvmBtBd4MdNtW3WL78ljqu4c4oPfaf/VKtfHSqmfTGZUZ7GdoH9nuDYMFvGvZ1ljAELOjQYG2ZUZazh5EgPuvn40TtoCF9d9DijH99gOqpi+rrpjGvvRf/gALbzjeP83aebtoOl2BAQ+JP45ycDWjkXRTrx/tVFJLVMWxJDO5dADn3tKG/qK/jDJC86tu/Mfk99xytaLVMXy2gbvYSpWlKb9hpjbOzpN2gxDxfpqbv8AfvaB/DZ/WqSFTwyrxvdol/k7htakiqeWRhNm+DZPKYx9RtlS0efeM74NpXZOXks15Ry55MBdB33JfOVZaxQ61l1YiFjPGI4e08edSSL1o6is/dU7qqqU0G9exp9XcZxY5nx/xVH5rGbWzRf3H2DWpKqMwsZbRPM2cc01DfRh+rYPEa4deeCoyXUU8nExfF0kgZx5iE1SS3TX4+h45CVLNAbJ+61T47mcxsumS6WdWjTlzLWxp9P7ak0O2LEklxN2aOiqbKqE1wY48GY2XuYZzQIRzl7c+quKmrTl7K7YxyXplWR1FKRnUOlnqQ2ja/F2NDebxAXHy6iXneZH/S1Z8Cz+1vhpzQuibGjc+AQLjlcRL36CF8MtmX/5ddIVvLwnFC6xL7CIyV6UpnIJQnOlPpO5x41SQuyNkTFY/Mi6NZ9AY+azrM43onSoJk8pCa16a8zxnEIVxaYT/5ayhdF0un+1SxinawugUP52tGb1Ff8wElejmzfuR+f+u4KtdpULpbZMnpJqjHWX4uhjb0fBy0+zCK9jpc/6Ev7gGdpDN8jnNfNjdEv7qbRLGe4MNqGwbOPGXuWL2KUrSN94mfw29Rs5uSVU1O6k08GuHLcl/lUllVQra/iiYUx9IiZzT1GA3DtKGd6T93FhhbQN9HWsl/uOI616Xw9xpFDVhbQ3IqVh+cw1CWWrxwxtVuSQGepL6cbnWhBB7OxUR/VMc6LcGP3BUdpdOlixjtJGTTzEEmybN8MhrRN4JITSpLkrdRt3JGqasIOlmNDQODP4v89GVApLvNCVhazsi7wUv4t88O/n5K1HOkcwX+f0ZIs5frRjnQasJzGGzs190z3pXWX2TxSSZI6nnurB+17v88cHancMJZOLgP50YWau6XtnOThwke2qKjPXclhLh35/IG6++eq7ZPo4TCOG1Wmfh0cmPBuOrU1FfRXubyfPXu8dd54odUruG60G30nrGNqZgoTd33OWX3a0XPUGl6tnXx0zFgaS7seb/G8jqQ+lyuHubDj8wfq7tyrtnOShwPHbVQ17oNF3DC2Lf2m7ax92qA5OZ+hzqO4roQklfxqjAu7zj/BmucOTaOnYuVQ2ro9yq1N5QItydWUPRqV6alYN5puvhO4LjWTKYm7+PmsPmznOYprruqpOTqLwTahfOqHnIYXG+UGjnVy4cCPLtTe7W+f5EGXR7a07KfS9Rzt6MQBy013iZoTnNfViSPWllJftJ5j3fw4bWet5XhiXlc6DF3JAr1lWRtQtIFj2zY8z8n5oXQetY4lJJVfjaFL1/k80cgBJVw70pkR/z5jtI+5rOo9nO5rzS6zj9AYvuf4Vg979n4/h6SSG8Y60WXgR6wL30n0cHmEW1R65q4cRpeOz7POLEabOYzbaOx57Ug6OCTw3fRab1F/dTn72ffgW+eNJ9Qr1nG0my8nrEtlZkoid30+i33aeXLUmquNLsiN2rbklzuNY+VXHOPSlfPNjagv4vqxbg3bnZjHrg5DubJA34IOzY+Nog1j2dZvGutcepLzQ505al1J3ViYcbDR0zVzO7QUGwICfxb/v2sGDLnYPP9hjB8/HuPHj8cT7x0xr/G70aQlI9MqHLKuUqA6HUmZUgyaOgkhEgD6fGReUCJiwlT0sgcANTIzcuAWGg4fSTUykjMhGTAFEzsb39YalHnIv+0Jb28pVMf24ZRdP9zXy662L9XNm6hy84SnpKbfIXj6yfC6hUfVqUi54IKIqA7G97+3j2Dv0SroklZgyuTnsHDVMYjHrMbRTVMRUOuZCiTLs+EWGY0OEgCqY9h3yg797uuF2p5VN3Gzyg2enpLGfahP4eBJImFof9P7aAMUp84gNygKMifjAqmkTAkiohu+A2+MATduKMB2fvBrtP9ry3I1ZY/GZbdxZO9RVOmSsGLKZDy3cBWOicdg9dFNmBoghnWvOfjghXb4aUIEwh54AweLjO/HqzOSkSkZgCkTOxt1NiiRl38bnt7eLfqpOj0JmdJBmDopxNi2IhPn8gLQLcIR6sT9OI4EDO1vel9sKMSZs7loHxUFN7FlWeujPnUQJ1n/PAqcOpOLoCgZnFCNtKRMSCKiG76/BgBNGpIzrRAu6wopGsuqz8/EBWUEJkztZdzBT52JjBw3hIb7ANUZSM6UYMCUiTCGrwHKvHzc9vSGt1SFY/tOwa7ffagziwo3b1bBzdMTgAZpyZmwGvI0ngyvWzZXnZqCCy4RiOpgHA+3j+zF0SodklZMweTnFmLVMTHGrD6KTVMDGi1GMm/bkl/uNI6r05KQKYlAtLkR1YnYfxwN2hWeOYvc9lGIchNb1qHZsaHGqYMnwYShqHPpKZzJDUKUzAmoOIp9p2zRb1h83VgwYW4Hy7EhIPDnYT5m/1zE/piy/izkKSlISZHj+IcjzGv8TgwokKehMEQGmQ1gUCQjTdEFcT2djYc1csiz3BDdI9h4MdKdhzxDg7AYGawMN5GSmo+QHj1qB2XZoUNIcYpHvygJivMLUe3uA5/auVKJgweSYduzP2LamPrtEod4U1cAoLuciozKEERFGa+m+vwryNVEYOb2JCSdScTBHV/hgzkjEVJ/b9bqNCSl6xAeGw0rAPrifBRWu8OnrmMoDx5Asm1P9I9p06gPQ+kVXC33QmCgaTrTXcA3m0/DLiIawVLAoJAjtaAzomXm05Y5IjjY24GlhVBozY+1JJdVE/Zowkb6fFzJ1SBi5nYkJZ1B4sEd+OqDORhZYxBJe4z8z0GcP/MhotLewiufZ0EPA26mpCI/pAd61DkKh1KcEN8vokU/KZLToOgSh9qQSElGplUYorqKobx+AyqvQATUmO7it9hy2sq4eLAlWWsxoPTKVZR7BaLOBd9g82k7REQHQ2pQQJ5agM7RskYXDkOBHGmFIZDJjNtWN5JVLkeWWzR6BBuV052XI0MThhiZFQw3U5CaH4IedUbBoUMpcIrvhyhJMfILq+Hu41OXqCoP4kCyLXr2jwEMBZCnFaJLXDzqwleHy6kZqAyJgjG09Mi/kgtNxExsT0rCmcSD2PHVB5gzMqSJrYUbt7Xsl8ZjxXIcG6CQp6KgczTMw9igvI4bKi8E1jkR3245DatwGcKsLevQ7NgwlOLK1XJ4BQaakgQdLnyzGaftIhAdLIW+OA+Kam+09zf//YG5HVqIDbPWAgJ/JP+/ycAfjhop8gtwj5DBTwKo5XJkuXVDdHtjVq67IEe6OhQxMtOtrjIFKdcCIJO5QVwtR8r5apRezUaJAUB5It7/cB+8Jz+N4Q4SuHi4Q6rIxsVyADCg6OfX8OZeHzw9ZzRcTf227RYNU1fG/i5dQq61F7zdjGYXObvASVSAnOzK2jqaysoGq+QNBclIye+A6Gg3iAFIXDzgLlUg29gxDEU/47U398Ln6TkY7dq4D7GtA+xF5Sgu0gIow8lls/GxXIfQaBlsAKjlyUabBEgAqJC0eg5eXHW2iZX6EnQY2A8dS7dj2Vv7kacBUF2IM1+9ghf+lwpalKspezRRJnKGi5MIBTnZqLWIphKVGsBQmgl5tgoA4NApAh2d28DZ1REiVEOech7VpVeRbXQUEt//EPu8J+Pp4c4t+kkuz4JbrQx65MnTUBwig8xGDBt7O4jLilGsBVB2EstmfoDT1SGQyewsytoQMWwd7CEqL4bRBSexbPbHkOtCES2zAdRyJGe5oVt0gNmvBQB1ihwX3CMg85MAjWTV4YI8HerQGNSFbwquBcggcxOjWp6C89WluJpdAmP4vo8P93lj8tPD4SBxgYe7FIrsizCapQg/v/Ym9vo8jTmjXQF1CuQX2qJbdPt6Mulw6VIurL28YQwtEZxdnCAqyEFd+GpQ2dgATbRtafzcaRyrIU822ibAzIhiG3vYictQbHQiTi6biQ9OVyNEJoNdCzo0HBv1ENvCwV6E8uIiGF26DLM/lkMXGg2ZDSBycIQ9CnAlxxivuJ2DpPQiGBrZoYXYQDUyN8zH8+8dbNi/gMAfgfl7g38U2nQu7e7GUWuLqKeWGUu7023UWtYs0lV+NYZukQt5xvRaVHP4BQZ7T+S2SlKX+Qa723Vh716BDJD1ZmygB4NGr+DZmvflykN8Na4tXYJ6cmD/bvT1jeVTGy8Y3y026LcObdrbjHd0ZnB8f455+yQ1+iLueqEbXVw6MX7wUA6I7cxOoz7lZdPrRJKs2jGFPj5P8Mfal49KHno1jm1dgthzYH928/Vl7FMbecH0UrNxHze4aUJ72vtEsldMBPs+vYiTIsI497iGrLHJyDUs1JPUnuGrkU7sMvdIo3ekRkp59M0h9GsjotTGkY421nTpMo4rTlValqspezRVRj2Ldr3Abi4u7BQ/mEMHxLJzp1H89LKO2pT3OMDPn7IBg5nQ2Zsd7n+PJytI6jL5Rnc7dundi4EBMvaODaRH0GiuqHGURT9lmMlQxR8n+7DjjAM0/rBiCycG2NMroiejQ3ty8rxHGRb4FPeqLctqjv7GJk5ob0+fyF6MiejLpxdNYkTYXB7XkNqMpezuNpJrCs3fsmuZXj9eG8mq5Fdj3Bi50LSegBoefiGY3hO3sZI6Zr7RnXZderNXYABlvWMZ6BHE0SvOGtcWkFQeepVxbV0Y1HMg+3fzpW/sU9xoCiJt+lJ2dxvFtQ1Ws2uZ9nY8HZ2DGd9/DN8+qaG+aBdf6OZCl07xHDx0AGM7d+KoTy83WnjaVFuLfrnTODbZZuSawkZrFagv4JaJAbT3imDP6FD2nDyPj4YF8imjEy3oYDY2Gp6UNzZNYHt7H0b2imFE36e5aFIEw+YeN8qvz+d3U4Np7xLMhIF9GRkcxSe/K6C+CTtYig3qLvPDfvb0HL/JXAABgbuOsIVxM1R88xAC3wjCLvkieKenosCmI2Th3rAxryjw/0vFN3go8A0E7ZJjkXc6Ugts0FEWDu972lEV+OahQLwRtAvyRd5ITy2ATUcZwu9towgICFjgH/6a4LdiXDzIrpEIbeOIwNjeiBcSgb8k1RnJyGRXRIa2gWNgLHrH3+uJAEyLB4mukaFo4xiI2N7xQiIgICBgESEZaBIdKq2DMG5kz8ZfhBP4S6GrtEbQuJHoKTiqDl0lrIPGYaRgFAEBgVYivCYQEBAQEBC4xxGeDAgICAgICNzjCMmAgICAgIDAPY6QDAgICAgICNzjCMmAgICAgIDAPU4rk4HbKDgvR9LZs0hKkiPtQj4qmt23/O6iy96KhdOnYN6mLPNDLaPLxtaF0zFl3iZk/UnyCggICAgI/N1oVTKg/ukFdI+IRmz37oiNjUZkFz94+PfDgr1F5lVbiQHXv5+PcQ+Mx/snqs0P1kOHc1+/g2VrN+Kn1DLzgy2iO/c13lm2Fht/SkWZkAwICAgICAg0SSuSAR0unEpGkcEaPV/ZhaNHduOzyV3AgmNYvuzbBjU1ZQrkFVZA16AUgEaJgvxiqGovyFU4ufUL/PhLJkrMP8gOALoKlJRpAEgR/n/t3XtcVHX+P/AXMwNxv8n9IiOIKNcZUAEt75ddS03rW7nbatrFzVtefri166XsflGr3XKz1C3Xymq7mJuVirdcUYOBQfASIqLchmRAQGaYOfP6/TGDwHDTyq2Nz/Px8J/PnPO5y3mfM585n0e24z9Zech8Mq31c+kKLpWX49IV6651rcmXUF5+CS3JivhHsP0/WcjLfBJpbbYda66rRFlFbSfv329hwZUaHWo7i1OMtagsq0J9h0YCRn0FyqsbIeIOQRAE4X/JNQQDl6HJ/Q5meTiG/mY8bhkxCfdOTYGnA+CgsO6QcqXwn1g4ph/8/EIQFuwL/4SZ2HKqGZDKsPOxcVD28UNoaCB8gsZjfV4WnhkTh7mf1sIincUb06OhXroH0pnXMX3gQNyz+incPiAQQUMfxaGm03jjwam4Z94m5BMA6vDthlkYHOoD/9BQ+PuG484tF4C6b7Fh1mCE+vgjNNQfvuF3YssFE06/8SCm3jMPm6wnozH/bcwbGQHfPiEIC+0D34hxWLXb+nSjpfw/vLQZi0f0ha9fEAIixmO91hYRXCnEPxeOQT8/P4SEBcPXPwEzt5xCMwCpbCceG6dEH79QhAb6IGj8ehSYAXPBBtyZNABD/5TZTeAhCIIgCD8z+80KOjBkckE/OR1cJvJvxd/zYu6HXJbmTZkskNPfuUip6mPep3Sk3H8457+ylVsyRtBbJqdy/l7W/uteBsoUjJz+PLdtf4tr5q3ixxdz+c8l4xguBxVRk/jIn1byjUOXqN86jZ4yR7q4BVJ9xwNcsO4A62v+wanuDnRMeYL5Joll797DULmMfsPm8dVt2/jqsof4woEivntPKOUyPw6b9yq3bXuVyx56gYcaa/iPqe50cEzhE/kmShff5d2hcsq8kzn7xXf4zjO3M0LhQMf4x0jyavlubt6MGjuLdw3tQxkcmfJEPilV8eP7lHSU+3P4/Fe4dUsGR3jLKFfO515DLf91byBlikhOf34bt7+1hvNWfcxKSWLpK6Pp5ODEhD8f7WLjH0EQBEH4+fUYDJiLX+ItjiDQ8s+BjoFDOPtvWayRTMxdnUwnB1fe/PgB5udk8h/zUuguc+OIlwp49sXhdHRQsN+df+Xh8tbLoeHruQyTyxk+92ta9w4z8uDiaCocFOw/9wvW2I4z7l/EKIWMQbM/Z5PpW65IcqSDxwS+VtK6jZjp2xVMcnSgx4TX2CaZNO7noigFZUGz+XmTkVl/iqWjgytHvHTauquaYQ8f7iung/sdbcqXM/x321kmSSx9eTSd4MQRa8/RlLuayU4OdL35cR7Iz2HmP+YxxV1GtxEv8ZTxLF8c7kgHRT/e+dfDbNNMsrGMBXlnWdNxGzdBEARB+MXo8WsCQ04OCiUZfMY8io3r52N4HweYrzghZkQKfHgWu77KRzOv4JsnRkGVPg1/3ueOqY9vx9sLYxFx1yLMHOSC8x8twojYdCzaUQELJFzMPYEqiyMGqhLgCACWKmjyzkNyHIoHl06ADwDAgkqNFhckR8QmqyEv3o09hWY4Db4NU8Nbqi2hePceFJqdMPi2qbiaDMBSqYH2ggTH2GSo5d/h673fweQ4GFPv6G/do92sR209IfPu0678+avvQIjMhNOniiDJAxGbGICzu75CfjNx5ZsnMEqVjml/3gf3qY9j+9sLEeMUgbsWzcQgl/P4aNEIxKYvwo4K26IF1xDEJkbCp7N1EYIgCILwC9FDMGDGyZx8XKYCiZP/iPsXr8Mz90ZCXn8MH358EmZzGS5UWiAPuR+f15thNtSirHA//rnyViidAHnfu/BWdj6+XjMOfvUabHztM1RbjMjLOwVJ3hcJCb7WCjRrkFNghjxiKNKVLVdOAzSaApjlEVCp/WG5eAEVFsDJLwA+tlpbLM24eKECFjjBL8DH1hgLLBbAoNGgwCxHhEoNf0sFyqsscHD0R3CA9ai6zF04dBnwGTa6tXxlGoYr5YB0ATnaSlic4pGcKEfZhUpY5CG4//N6mM0G1JYVYv8/V+JWpRMAOfre9Ray87/GmnF+qNdsxGufVcMCwGJoxJVOFhoKgiAIwi9JD8GAHhrNWZjlfaFKCYYMTkhMiYezgxknjx+DXu4FH08ZLN9n4fPPjkKbdwRfbVuHFz86g+bzn2H9uu04UFADmYcbFJDBP0IJD1ai+PxlWNiIwp1/xd92nIHxTDa0esI1PgUJLav+zd8hJ78WdI1DcrwT5F4+8JIRjZmvYOlz67Bm7jiMXn4YLj5ekLERma8sxXPr1mDuuNFYfqAR3+Xko5auiEuOh5MiBKFBMsCQjU/fOYCsXS/joaX/RPlNasxbdjvMLeXH2cpvykFOoQRFlBpqXzm8fDwhs3yPrM8/w1FtHo58tQ3rXvwIZyQJ5z9bj3XbD6CgRgYPNwUg80eE0gMWzVMYFuCJwOlbcMmuVwVBEAThF8X+e4N2jAe5ZIAjHQN+zw9qrUmmvDUc4iyjU+xyHjaaefad3zPa1eHqmgIHpzDO2FbOK7seYrjClu7gyID0JfzsokSygbsX9KeTAwgHV45aV8Ta9++it9yNt7xw0vp9PknWv8+7vOV0u+UFnjSTNJ/mm9P6Ws+DA51Cx/LZI400n36T0/o60QEgHJwYOvZZHmms5/t3eVPudgtfOGkmKbFixyIme8utx8GBzqGjuOzjYppI1tuVb8pbzRQnR4bM+YwNJM1n3+Hvo11t51rLCZuxjeWSgbseCqfCwdZ2xwCmL/mMFyXy8gcz6Ofkw2FPfUtTmy4VBEEQhF+aHrcwXrt2LbKysuyT27EYG1B7uQmSzAlunp5wdXQAAJib6lDX0Aw4ecDby9n6XT0A0IRGfS2aZG7w9nKFwnr4NTCjqa4WDWYneHh7wrklQ3MT6mobYHbygLdnm3Ls0HQFdXWNMMlc4Ontjpt6eC7SjsWIhtrLaJJkcHLzhKerI2ytRFNdHazN9IbX1Up19OGHH9onCYIgCMLPrsdgYN26dT0GA8K1+eCDD+yTBEEQBOFn12MwIAiCIAjCr9v1PCgXBEEQBOFXSAQDgiAIgtDLiWBAEARBEHo5EQwIgiAIQi8nggFB+B9kMdRC3yBebykIwk+jlwQDBlQVFaHKYJdsrsG502VosEvu3cwofPV2DH74U9Tbf9StRpz84m18klsL284MP0ADdi4cgsnrCtDjZa7xJL54+xPk1v7w0n6wn7jsxpNf4O1PcnFt2emxf804RPaNgzruN3jxlGR/wE/u+uonCML/ol4RDFjK3sQM1VSsz2tul97wyXwMGbMKB+yDhBvEePgF/G7uJvwX/n7/CHoc+WofrngG4Sb7j7pjOIB1D2dg4+FL+MG/VW3WYv/us3AKCoPC/jM7hgPr8HDGRhy+9INL+8F+2rINOLDuYWRsPIxrya752ItY9LKEhQfPoeT8HmQM7PolVz+N66ufIAj/m3pFMNCco8FJp3io41o2PgCAZhTm5MMwKBnqtskAYNRDV2u0S7TXjNqqKtR1dQsrNaK6ohqNVy/8ZhR+9S52lpjhY/fGxebaKlR1mVFHFoMeutr2gc01MdaisrxtnVo111VBV28GjLk4fkKOeHUc2naLsbYS5dWN6ORUK+dJePO8DrvmR9m9AdIIva4WHXtTQmN1BarbVMbyfQ40Zf2RrHZvd2RnnCe9ifO6XZgf1bY0Cxpr9DD8gDvYHsfA0ogavQGWLsru7nyjvgIV+o49YOWMSW+eh27XfLRrCjqbhxLO7d2H4sSpuHOA/aTt2Pbu6tRxfnaV3kX9jHpUdDGXrLoa9+7moRH6igp02VWCINw49u8n/vUxMf+JFLqmPctTVzc+IClV8u8T3Tlg2WEaSTbtWca0u57mWxkTGKsMpY9rCCe9Vti6V0IbTSc2cVaSP31DwhgcOZ5/WXkvk+/davu0kflbHmBqeBD7RkcwMDSVy/99jK9OjqS/u4Jyd3+Ghcdwzgc1ZNMJbpqVRH/fEIYFR3L8X1by3uR7uVUn2ZVIGvYsY9odq/m3xaMZExFGP48Qjl+roYEkWc8d89Qc94zGtg+CmUWvT2N8S51MJdzx2EQOCA5llNKf3n0n8Nn/1Fs/a9TyrVkqBviGMCxYyZH3TWOcSyqfsXWWqWQHH5s4gMGhUVT6e7PvhGfZcmpbTV8v4eDRa3jMRLJpD5el3cWn38rghFglQ31cGTLpNRbaOrMxfwsfSA1nUN9oRgSGMnX5l9Y8Pp/NkNAH+IWBZP0OzlOP4zMa284O5iK+Pi2e927VkWzi10sGc/SaYzSRbPpyMYfesZLPzYihu8yNU7bUtFZMushNd8fx/948z5Zerd2xgCnpj/GAkT2MQRO/XDyUd6x8jjNi3Clzm8ItNe3L7vZ8/Td89rZoBoREsl+gH2OX7bWNVxtNX3PJ4NFcc8zazi7nofkc/z4tigEejpS7+TFMOY7P5Zk6b3t3depsfn5Z03W6Xf1oPMuPlo1hvz6BVCoD6BWUygUfnbf+P+lh3Lubh/pvnuVt0QEMiezHQL9YLtvboacEQbiBekEwoOc707wZ9tCX7f8QG3bxwTBvTt9WS9JE7eoUunopOX71fuokAw88Ek2XUet53v663HiIGQm+HPLYQV6SSP3hVUz3VDBy4T6SZO3uBYzpM5yrj+hJkpfzPuaOvEYaaz7ngxE+nP6Pcupr62mQGnkoI4G+Qx7jQWtGXJXuSUXkQu7r8HfQRO3jKXR2C+PYVfupk8w8u3YE3SIe5h4DSeMRZgzy4pQtl2zHX+Z7/+fLqIX7SDbxyIoU+qcs4a4yM0kdN0/xYvCcnWxiA/cvjaX34Ed5wFaH1cO9qAh9gLsMJJuOcEWKP1OW7KL11M2c4hXMOTubOtRPszKJnpPepI6kSbuaKa5eVI5fzf06iYYDjzDaZRTXn5fI2t1cENOHw1cfoZ4kL+fx4x15V4M2j/EbWCGRxiMZHOQ1ha1Neo//5xvFhfsMpEnDlUmenPSmzla2ii4eIUxf8D7ziopZ1i5YaeSHM/qw7x9328b/Erfd6cew+3eygT2MgUnDlSoXeoSkc8H7eSwqLmN9u7K7O9/E/DVD6JG6htomkqZKFhXrrwYkLUyalUzynMQ3dexxHhr1u7lwgBdve+M89Zcbaeq07d3Vqav52dRlevv61fNARiJ9kx/hvy+aSDby+IpkOkcv4SFjD+Pe3Tw05XPNEA+mrtHS2lVFLNbb95QgCDfSzx4MNFae5elTp3jq1Gl+V37Z/uMfz3iQi6PdOfHvle3+EJtPPcNU1yF8qsBMsoZvT/Wg5+j1tqcHRh7JGETP2zazzT0mSVK3dRr7hN3Pz1suOMYsLo+1XYilUm6Y6M2oBZlstDtPKlnPkW5D+fRJ222Sbiun9Qnj/a0ZMWt5LL2mbGHL9a+VnlunedJ7zCs8bTu96dOZ9Pe+hx80klLlBk7wUHNVbsvdW2udpMotnOobyhlb8liQe5g7Ny7mLYEBnLKphCbd25zm274ORzIG0X3CBlZIEiu3TKVv6AxuyStg7uGd3Lj4FgYGTOGmEvs/1Je4ebIXE/58nCaSNW9PpYfnaK63PV0wHsngIM/buLlGYumGifSOWsBM+w6inu/c7s1By4/QSImVGybQQ72KrU1aztiW4ODSZk72SuCfj5tsZbvTffhzzO90e0gT81ap6T7+dVZKpFTyGsd7D+L/O2zoeQwubeZkd3cOfy6/defJtmV3e76RBxdH0zn2IX5SbB88tbq0eTK9Ev7M4yb2OA87jHNnbe+uTl3Nz67S7eonlW7gRO8ozt/belTTpzPp7z6d2xq7G3d2Ow8l40EujnZm7EOfsJuuEgThBvp51wxYSrF9+V24++67cffdd+O+Fw/YH/GjWarzoC3riySVT7sFEg05OTjjk4jkKDnQnI/sAgXGzpmJGDkA1KOgsAwRiQnwaHMOYMDRzCxw+ASMsn2tbak8iuOlkVCpPYH6g9h91AUjJ6bDtd15QHNeLk57J0DVz/rFq+FoJrI4HBNaM8LR46WIVKnh2f5UoPkEcgrkGD37DxggBwAL9GXluBIQjGAFYNLk4KRrPNTR1mV3lurjyL5grdOVA1/iYJMZ2S/Pxqx5K/DGIRluf/Mg3p0TgebDe/AN2tahCse/LUW4SgVf2RUc+PIgmszZeHn2LMxb8QYOyW7HmwffxZwIu2lj1CKnwBHx6kFQoBn52QVQjJ2DmdbORH1BIcoiEpHgUY+Du4/CZeREpHfoIC2yC+RISI6DE0zQ5JyEa7wa1iZZUH08GxciVVB7AkZtDgoc46EepLha9vi5DyK+01WHCkQOjITi/Hf4zmzA0dc3IHvIfMxLvanHMbCWMx5zH4y/uqCxbdndn++EYUvXYlHgF5iREIdbn8yErsNaBiO0OQVwjFdjkAI9zkNTrgYnXeKgso1zZ23vtk5dzc+u0u3q13hoN466jsRvh7Ue1fj992jyDUCAvLtxR7fzUOY0DEvXLkLgFzOQEHcrnszU/YhfpAiC8EP8vMGArC9mv/0tNLm5yM3V4Jt1t9kf8aOZz5fgIgMQEtz2SnEJX+88DPmwsUi7CbBU5kBbORCpaV7Wj425yClwRJxqUPtV7ZYanCupQ5BSaVtcZ8bp97bjmGsCkqMVkKrLUNkcjPC+9lclM87mnUBDjAoqRwCwoOZcCeqClFDa1oGZT7+H7cdckZAc3WElveX7XOSVx2Do0JYwoRb79uXCM30kVE4SLmgLUNM/EYk3AYAZp7a+hyyXBCRHO6D8XCmMCQvxaXY2jh/OxI531mLp5Bi4wQL9hYtoDFIioqUOZ97HB8ccrYsHpXKcKzUiYeGnyM4+jsOZO/DO2qWYHOPWpmZWlgoNtFUxUKudAUslcrSVGJiaBmtvGpGbUwDHOBUGOVSjrLIZweF9O7axUoO8igFIVrsC0gVoC2rQPzHR+osG8ylsfS8LLgnJiFZYUKHRoipGDbVzS9kDkZpuG7tOOEfHILzyLM4UvoXVWxxw/+rZ6CfvaQxs5QxMRWvWbcvu6XxAHj4Zz2eexPF1KmiffhQb7X9GYqmARluFGLUazuhpHkq4qC1ATYwKKtvPPDq2vfs6OXQxP7uct+3qJ6G6vArNfiEIuXqYHpl7c+CSNgopjt2Mu0LqZh4CgBzhk59H5snjWKfS4ulHN/7Cf3EjCL8+P28w8F8gDwpGIPLw2bZs6C2ApbEEe5+/D8t2BuOPS6fBB4BBo8Ep30Qkh1vvaKQyDbTVtotbWzIXuLs5oK5aBxOA2qwXsORVDcyxyVA7Aw7uHnBDBc4VN1qPv1KM7HwdLDDju+9K4RQUDF8ZAMjg4u4Gh7pq6KwZ4YUlr0JjjkWyfZkAmjW5ONlcg5KiS7AAqDv8EtbtDsasub+BOyTodJdgUSigcLDV6a85tjo5wMvbEw4VxSi6+jIFIxoajABkcHZzhay2GtUtdVi4FseaY6BWuwIOXvD2dEBFcVHrexiMDWjoZKW3IVeD034JUIfJAYMGmlO+SEwOt/6qQCqDRlttvaA4uMPDDag4VwxrD11BcXY+dBbAoMmxjkGEHJB00F2yQKFQwAG1yHphCf6aY0ZsshrOMCBXcxp+CWqEyW1l92kdu84o+scgErn4631Po2Tas3g03fUaxsBaTp/EZLRm3bbs7s53Qk2BBkWNAOCO/glR8LrJCz4edj8jMeRCc9oPCeowyHuchwbk5p6Bf7wKIbb6dGx7d3Vy7nJ+sot0S7v6yeHt7wdFZRHO1AGABbqvHsdTX4Zg7tKp8Olu3NHNPLTUoEBTZJ0P7v2REOWFm7x84OHQjIKtyzH/xcyWEwRBuIF+/cGAcg7WZCTi5Oo0BHp4wM0rClP/bsTvtn6M1WnOAMw4pz2JZlWq7a4dMJ04geKgZAzucIHxwoTfTYFs+1wMHz4YI/5UiqHj+qN/ymAEyQBZwO146B53/Gv2ENw8diRUqjvwxmkLAAWiBvWH6d+PYczoaXj2aDO8JvwOU2TbMXf4cAwe8SeUDh2H/v1TMDjIfkgkFGu0qIsMQP78oRh8yxCopm1H2BNbsCL9JgBOiB01AsHHnsFvh6XgluWlSP/NQFudZPCfvhD3+3yMmYOHYfzEMRgSE4/fby2DBMBn0ixMc9yOB9PTkTJ8Cc6oxyI6NAnJSjkg88f0hffD5+OZGDxsPCaOGYKY+N9ja5n9LZsZxfmnYEoaiiRHwHxOi5PNKqS2diZOFAcheXA45LIA3P7QPXD/12wMuXksRqpUuOON07C0jIEtDzjFYtSIYBx75rcYlnILlpem4zcD+yNlcBBk5mLknzIhaWgSHFvKbjN2nXIdiNi+lSiS/QFvPH+rLSBD92NgK0eVqsLVrNuV3d35wIVdyzA6Nhljxt+MpDs+QsTKpzArvP3YmovzccqUhKFJjj3PQ/MZ5BUYMUhte1rSRdu7rpOsy/nZVXr7+gG+UxdjYb/d+OPQdIwdrUby/f9B2t/ew8pU5+7HHd3MQ8sF7Fo2GrHJYzD+5iTc8VEEVj41C+G8iK83vY6PsqtaGycIwg3jQLJXvErEUHUSead1MHspER8fAS/76/w1k1B7NhuFlwMQl6jsJJ8rKM/XoKjeA/0S4xHu3nIBaEBptgalikgkJ4XCFYBUexbZhZcREJcIZceMbOrx3p1KPBm5E5qVwcjPq4BzlBrxwW2fIFhQV5yNAr0/4lSd1MlcgyJNAcqMrggeEIcBAa3nWmqL8G1hfZd1MNcUQVNQBqNrMAbEDUCbU3+wK+X50BTVw6NfIuLD3TuPSC11KM4ugN4/Diqll927C3461zYGXev6fAsaSrXIPW+EX4wKAwOu6xVOHViqNuLWmL9j6IFjeCLJ/kuW9rquE7qZn12l25HqUKLNR2mTF6KSEhDa8VujrnU1Dy0NKNXm4rzRDzGqgfiRXSUIwg/Qa4KB/1nNR5CRdCuKV5zDv37f9ffiwq+UpQZnc/KRtXkxFhy7HfuyVkPVfSwgCIJw3boI/4VfDHMDnCKnY3Jaz2/lE36FrhzHlhWPY6v+t9i47U8iEBAE4YYQTwYEQRAEoZcTTwYEQRAEoZcTwYAgCIIg9HIiGBAEQRCEXq6XBAMGVBUVocpgl2yuwbnTZa0v1RF+mcyFePX2wXj403r7T3qHhp1YOGQy1hV0sR2xIAjCj9QrggFL2ZuYoZqK9XnN7dIbPpmPIWNW4YB9kHCDGA+/gN/N3SRetXq99Efw1b4r8AzqnT9Ab9bux+6zTggKEz8lEAThxugVwUBzjgYnneKhjrO9sN2aisKcfBgGJUPdNhkAjHroajt57247zaitqkJdVzdrUiOqK6rRePXCb0bhV+9iZ4kZPnZvpW2urUJVlxm1JzVWo6K6ER3iCaMeFeVty2vP0lgDvaH99i+dpRlrK1HeVf4VenTaKxYD9LpatA+1rIz6is7zu8oIva62k3ybUVelQ70ZMOYexwm5/fgZUVtZjuquGnxVD+N0vbqcG9dejlFfgQp9J3l0OoYWfJ+jQVn/ZKjb/Lr0euYMAFgMeuhqOx2hbvvRfo5cX93bM+p16LzralFVVYdrb40gCD85+20Mf31MzH8iha5pz9q2hbWRKvn3ie4csOwwjSSb9ixj2l1P862MCYxVhtLHNYSTXitk21NaNJ3YxFlJ/vQNCWNw5Hj+ZeW9TL53q+3TRuZveYCp4UHsGx3BwNBULv/3Mb46OZL+7grK3f0ZFh7DOR/UkE0nuGlWEv19QxgWHMnxf1nJe5Pv5Vad/RbBJBvzueWBVIYH9WV0RCBDU5fzyxqSxrP8aNkY9usTSKUygF5BqVzw0XlrvZu+5OKhd3DlczMY4y6j25QtrOksjaSpZAcfmziAwaFRVPp7s++EZ/mfepLU85tnb2N0QAgj+wXSL3YZ9xpIGvZwWdodXP23xRwdE8EwPw+GjF9LjcFaXePZj7hsTD/2CVRSGeDFoNQF/Oh8y/7Le7gs7S4+/VYGJ8QqGerjypBJr7HQ9nGj9i3OUgVY+1c5kvdNi6NL6jO28TOxZMdjnDggmKFRSvp79+WEZ//Dlg172+p+nNqq5455ao57RmPbqtjMotenMd52bE9z45rL0X/DZ2+LZkBIJPsF+jF22V4a2MMYsomfzw5h6ANfWI+9jjlj2LOMaXes5t8Wj2ZMRBj9PEI4fq3Gmk93/djZHPmBdd+zLI13Pf0WMybEUhnqQ9eQSXytZaDZxBObZjHJ35chYcGMHP8Xrrw3mfdu1V1tgyAI/x29IBjQ851p3gx76EvbH0Ebwy4+GObN6dtqSZqoXZ1CVy8lx6/eT51k4IFHoukyaj3P2/+NbTzEjARfDnnsIC9JpP7wKqZ7Khi5cB9Jsnb3Asb0Gc7VR/Qkyct5H3NHXiONNZ/zwQgfTv9HOfW19TRIjTyUkUDfIY/xoDUjrkr3pCJyIfe1qyhJ1nL3ghj2Gb6a1mwvM+/jHcxrqueBjET6Jj/Cf180kWzk8RXJdI5ewkNG0qRZSZWLB0PSF/D9vCIWl9V3msamI1yR4s+UJbtYZiap28wpXsGcs7OJpvw1HOKRyjXaJpImVhYVUy+RJu3jTHF2Y9jYVdyvk2g+u5Yj3CL48B4DWX+AGYm+TH7k37RW6zhXJDszeskhkqRJu5oprl5Ujl/N/TqJhgOPMNplFNefl8iG/Vwa683Bjx6w9e9qDvdSMPSBXTSQbDqygin+KVyyq4zWqk6hV/Ac7myy67Iexqkd4xFmDPLilC2XbAmX+d7/+TJq4b6e58Y1l2Ni/poh9EhdQ2tXVrKoWE+J3Y8hTfl8IsWD4zdUUOL1zBkTtY+n0NktjGNX7adOMvPs2hF0i3iYewzd92PHOaL/gXXXcnWKK72U47l6v46S4QAfiXbhqPXnSZKNhzKY4DuEjx28RIl6Hl6VTk9FJBd2bIwgCDfYzx4MNFae5elTp3jq1Gl+V37Z/uMfz3iQi6PdOfHvlWx7XTefeoaprkP4VIGZZA3fnupBz9HrbXefRh7JGETP2zazps05JKnbOo19wu7n5y23osYsLo+1XUikUm6Y6M2oBZlstDtPKlnPkW5D+fRJ212Rbiun9Qnj/a0ZMWt5LL2mbGHLJamFVLqBE72juCCzfa4t6fP3tqY3fTqT/u7Tua2RvLR5Mt3dh/O5fOv9LtlZmsTKLVPpGzqDW/IKmHt4JzcuvoWBAVO4qUSi8eBiRjvH8qFPitn2eqvfOo2e3mP4yumWu/1POdPfm/d8UM/SDRPpHTWfrdVq4qcz/ek+fRtJsubtqfTwHM31tkc1xiMZHOR5GzfXSNS9PY2+7fr3CDMGuXPChgpKUiW3TPVl6IwtzCvI5eGdG7n4lkAGTNnEErugrdtxsiNVbuAEDzVX5dr6pN2x3c+Nay/HyIOLo+kc+xA/KW7tyZ7GkPp3eLv3IC4/YryuOUPquXWaJ73HvMLWIZpJf+97+EF99/3YcY78wLrXvM2pHp4cvf6U9UmB8QgzBnnyts01JHXcOq0Pw+7//OpTHWPWcsZ6TWGHrhME4Yb7edcMWEqxfflduPvuu3H33XfjvhcP2B/xo1mq86At64sklU+7BRINOTk445OI5Cg50JyP7AIFxs6ZiRg5ANSjoLAMEYkJ8GhzDmDA0cwscPgEjLJ9f2upPIrjpZFQqT2B+oPYfdQFIyemw7XdeUBzXi5OeydA1c+6cYzhaCayOBwTWjPC0eOliFSp4dn+VNQf3I2jLiMxMb19ro2HduOo60j8dlhreuP336PJNwABciO0OQVwHD8XD8a3LDzrLO0KDnx5EE3mbLw8exbmrXgDh2S3482D72JOhAxOw5Zi7aJAfDEjAXG3PolMnQVAM07kFEA+ejb+MMDaHou+DOVXAhAcbMSh3UfhOvK3aK1WI77/vgm+AQEAmpGfXQDF2DmYae1s1BcUoiwiEQkeBhze8w3Qtn+rjuPb0nCoVL6QXTmALw82wZz9MmbPmocVbxyC7PY3cfDdOYhoN5N7GCc7Jk0OTrrGQx1t7RNL9XFkX7Ad2+3cuJ5ynDBs6VosCvwCMxLicOuTmdBZehpDoFmbjQJ5ApLjnK5rzqD5BHIK5Bg9+w+wDpEF+rJyXAkIRnBzd/3Y2Rz5gXXPz0aBYizmzIyxbjRVX4DCsggkJngAhqPIzCKGTxgFa2ssqDx6HKWRKnToOkEQbrifNxiQ9cXst7+FJjcXubkafLPuNvsjfjTz+RJcZABCgtuuxL6Er3cehnzYWKTdBFgqc6CtHIjUNNtGQMZc5BQ4Ik41CO3Wb1tqcK6kDkFKJaxL2cw4/d52HHNNQHK0AlJ1GSqbgxHe137Vtxln806gIUZl227WgppzJagLUkJpWxNnPv0eth9zRUJydPsyIaG6rBLNweFon62E6vIqNPuFIORquh6Ze3PgkjYKKY4V0GirMDA1HVe3N7J0kiaV41ypEQkLP0V29nEcztyBd9YuxeQY23Z08nBMfj4TJ4+vg0r7NB7deAqS5Xvk5pUjZujQqxeh2n37kOuZjpEJdSivaoZfSEhrO/SZ2JvjgrRRKYClEjnaSgxMTbPVwYjcnAI4xqkwSKbHhYuNCFJGXO3fM+9/gGOO1sWDUvk5lBoTsPDTbGQfP4zMHe9g7dLJaKnqVT2MU3sSLmgLUNM/EYk3WY89tfU9ZLlYj+12blxXOYA8fDKezzyJ4+tU0D79KDaeau5+DG+yoFKTh4oByVC7Xs+cASzf5yKvPAZDh14dIezblwvP9JFI+L6bfuxsjvzQuudoUTkwFa1dl4MCxzioBilgqTmHkrogKFsbg/e2H4NrQjI66TpBEG6wnzcY+C+QBwUjEHn4bFs29BbA0liCvc/fh2U7g/HHpdPgA8Cg0eCUbyKSw613qlKZBtrqGKjVdvv1ylzg7uaAumodTABqs17Aklc1MMcmQ+0MOLh7wA0VOFfcaD3+SjGy83WwwIzvviuFU1AwfGUAIIOLuxsc6qqhs2aEF5a8Co05Fsn2ZcIB7h5uQMU5tGabjXydA7z9/aCoLMKZOgCwQPfV43jqyxDMXToVPoZcaE73QWJyeOv2v52lOXjB29MBFcVFre9bMDagwQhYagqgKbIW6t4/AVFeN8HLxwMOzRrknmxGTUkRLlkA1B3GS+t2I3jWXPzGyxv+fgpUFp2BtVo6fPX4U/gyZC6WTvUBDBpoTvm21kEqg0ZbjRi1Gs4yZ7i5ylBbXX21fxeuPYbmGDXUroCDlzc8HSpQXNT6ZghjQ0PHXyL0ME7tSdDpLsGiUEDhYDv2rzlXj+12blxzORbUFGhg7Up39E+IgtdNXvDxUHQ/hjBAk3MKvonJiJBfz5wBmjW5ONlcg5KiS7AO0UtYtzsYs+b+Bh7d9WOHOfIj6q6x1t3adRLKNFpUx6hh7Tp3uDnUodraGGS9sASvasyITVbDGc0o2Loc81/MvFo/QRBuMPvvDX51pBruWzWSQY4yOrq601kuo5tyPP/0WYlt5biJJ9YMoe+UzWxZkN302SyGRC2wrppvR+LFd2cw3C2EScNSmDBiLlfOTGDcsm9oJEmpnB/OiaabdzSHjxnBpGgVH/ywghJN1D6TTg+vaKaPup3PZBkpXXyXM8LdGJI0jCkJIzh35UwmxC3jN0b7Mkmp/EPOiXajd/RwjhmRxGjVg/ywQiL1+/iX1D70jkzjmFGJDA0dzIe2naZ13dkaDvGdws1tVpl3lkZK1O1cxERvb/ZPH8cJowdzQP8pfP2smabcFzk6rC/Vo8dx+IBg9pv0IrPqSXPBkxziOpA3D1MyQn0zByv9GTn1ZX7bYM1Rv+8vTO3jzci0MRyVGMrQwQ9x22lrw0wn7OrQ9BlnhURxwV4DSYkVH/yBEW5BTEhLZmzaLGb8Lo7KlsWfko47FyXS27s/08dN4OjBA9h/yus827I4/aoexsmO/vMHGeniz9jUZMbfMper56hsx/Y0N661HBNzXxzNsL5qjh43nAOC+3HSi1nW78q7GUOaTnDNEF9O3lRFibyOOWNmwZND6DrwZg5TRlB982Aq/SM59eVv2cDu+7HjHPlxdZ+yWWdbq9PEz2aFMGqB7VcI0kW+OyOcbiFJHJaSwBFzV3JmQhyXfWMkzWe5bqQbA+5+92qLBEG4sXrNroWGqpPIO62D2UuJ+PgIeF29Nb5eEmrPZqPwcgDiEpWd5HMF5fkaFNV7oF9iPMLdWx6+NKA0W4NSRSSSk0LhCkCqPYvswssIiEuEsmNG7V0pR76mCPUe/ZAYH46r2Up1KNHmo7TJC1FJCQi1f2R+jcw1RdAUlMHoGowBcQMQYLvZtDSUQpt7Hka/GKgGBuAmAPXv3Qnlk5HYqVmJ4Pw8VDhHQR0fjLb3p1JdCbT5pWjyikJSQiiuvVoW1BZ9i8L6rvrXjJoiDQrKjHANHoC4AQHtym3V0zi1ZUFdcTYK9P6IU/V0rL1rLceChlItcs8b4RejwsCANi9Quo4xvLY5U4/37lTiycid0KwMRn5eBZyj1IgPbttT19qP+Mnq3oFUi7PZhbgcEIdEpVfr0ypBEP7rek0wIPxUmnEkIwm3Fq/AuX/9vt33ysIvRPMRZCTdiuIV5/Cv34sREgShZ7/6NQPCT82MBqdITJ+cZlsFLvzimBvgFDkdk9PECAmCcG3EkwFBEARB6OXEkwFBEARB6OVEMCAIgiAIvZwIBgRBEAShlxPBgCAIgiD0ciIYEARBEIReTgQDgiAIgtDLiWBAEARBEHo5EQwIgiAIQi8nggFBEARB6OVEMCAIgiAIvZwIBgRBEAShlxPBgCAIgiD0ciIYEARBEIReTgQDgiAIgtDLiWBAEARBEHo5EQwIgiAIQi8nggFBEARB6OVEMCAIgiAIvZwIBgRBEAShlxPBgCAIgiD0ciIYEARBEIReTgQDgiAIgtDLiWBAEARBEHo5EQwIgiAIQi8nggFBEARB6OVEMCAIgiAIvZwIBgRBEAShl/v/2IVv7IucsEsAAAAASUVORK5CYII=;" vertex="1" parent="1">
          <mxGeometry x="10" y="60" width="515" height="214" as="geometry" />
        </mxCell>
        <mxCell id="LjI7DAijL7peGVdVRBZd-2" value="Infracciones =&amp;nbsp; {nroActa,cuilActa,codInf,fecha,importeTotal}" style="text;html=1;align=center;verticalAlign=middle;resizable=0;points=[];autosize=1;strokeColor=none;fillColor=none;" vertex="1" parent="1">
          <mxGeometry x="30" y="290" width="340" height="30" as="geometry" />
        </mxCell>
        <mxCell id="LjI7DAijL7peGVdVRBZd-4" value="A)" style="text;html=1;align=center;verticalAlign=middle;resizable=0;points=[];autosize=1;strokeColor=none;fillColor=none;" vertex="1" parent="1">
          <mxGeometry x="30" y="320" width="40" height="30" as="geometry" />
        </mxCell>
        <mxCell id="LjI7DAijL7peGVdVRBZd-5" value="Claves candidatas = {nroActa,codInf}" style="text;html=1;align=center;verticalAlign=middle;resizable=0;points=[];autosize=1;strokeColor=none;fillColor=none;" vertex="1" parent="1">
          <mxGeometry x="35" y="350" width="220" height="30" as="geometry" />
        </mxCell>
        <mxCell id="LjI7DAijL7peGVdVRBZd-6" value="Atributos no primos = {cuilActa, codInf, fecha, importeTotal}" style="text;html=1;align=center;verticalAlign=middle;resizable=0;points=[];autosize=1;strokeColor=none;fillColor=none;" vertex="1" parent="1">
          <mxGeometry x="35" y="380" width="340" height="30" as="geometry" />
        </mxCell>
        <mxCell id="LjI7DAijL7peGVdVRBZd-7" value="" style="shape=image;verticalLabelPosition=bottom;labelBackgroundColor=default;verticalAlign=top;aspect=fixed;imageAspect=0;image=data:image/png,iVBORw0KGgoAAAANSUhEUgAAAu4AAABPCAYAAAC0wkCoAAAAAXNSR0IArs4c6QAAAARnQU1BAACxjwv8YQUAAAAJcEhZcwAADsMAAA7DAcdvqGQAAFrTSURBVHhe7Z15XFNX+v8/ZAOBACrIJoiCVllklUUWFfdanWpVRKt1BrV2VccuLhWntYtjbdW2X6tj/XWxuFWr1o3WulXBlYpUrTsiCAGEgARJQpLn98cNS0JyExSntXPerxevF+See85znu08uffciw0RERgMBoPBYDAYDMafGoHxBwwGg8FgMBgMBuPPByvcGQwGg8FgMBiMxwBWuDMYDAaDwWAwGI8BrHBnMBgMBoPBYDAeA1jhzmAwGAwGg8FgPAawwp3BYDAYDAaDwXgMYIU7g8FgMBgMBoPxGMAKd0br0alQLVdAbfw5468Bsy+DwWAwGH9K/kKFuxrlN37DpTu1xgceGPWJf2FA/DzuD+0dHMvYgCMFWuNmjx4LY6uzFyM5cSGOqoyPPDzaO8eQseEIGobWXvkC43p4wL93EKJePYD7Rsf/GNTIXpyMxIVH8QhU8OCos7E4ORELH4VhAABa3DmWgQ1HCtBW6je27yOR3II/txUG8ftfQ40T/xqA+HmHjQ/8xTCMOeM8YcifND7bHMN4bPC/w3/tSbeCts9XDMb/In+Zwl17czXGh4Sid9I8HFYaH30wqLoY168WcX/cz8KauXPx2bEq42aPHgtjU3Uxrl4phPxh/weu+hQ+mjQNay9oGj+6n7UGc+d+Bm5oDc598wl+9H0bOQUFyF05EFqD438UhOriq7hSKMfDqqBNoWoUX72Cwoc2jDnuI2vNXMz97BjaRv0t7Wtr3KQtsODPbYVB/P7XIFQXX8fVokc7tz8ew5gzzBPGtCI+TeSgPwPqUx9h0rS14BfLMB4b/K/K4qRNocapjyZh2toL4B3ysaKt8xWD8b/JIyvcNYoyFBdX4r7O+MijQIurW7bi94TxGKLYhYyDZq66axQoL60ysQVAB6W8BMVlCvNJUjoeGbIybHu2Y7MPdVDKZZBVtewR6mqUlpSj1opLC+rqUpSU15q/CmFybA0U5TLIzV7NUaO6tATlZgXQQFFeCgPRNYXIyTyAXFnTOdLxGZCVbQM3tAalsgo4+PrBXQAIBAKj4w39KFAuq4TyAW1vUR8NaBQol8nNX8WzZANtrXk5LZ1r1pcAjaIcMvOGsTg/jaIcpaZ8qoW/STE+Q4aybc/CwCuVcpQUl0FhwpnV1TKUVCphasqm7Gs1PPrQKeWQyZodM+nPgLa2AiUyuWl7gG8MK+K3EZ64UFdDVmLGH8yhU0IukxnGUQtaI19zHlZWY39p+FgJeUkxykw5CGA6NzQeMh1z5vNAy7YNmPRTEzkIsCCzVbqwEjPjaApzkHkgF8ZicQdrUF5RC52ZeAQAraIcpXJzcWcKDQpzMnEgV2YiT2hRW1ECmcn+1KiWlaDSCmWYzzNWxKIBWtSWy8yOqakpR0Wtzmy+gj4nltU06VynrESpmTzFJxt/fmMw/iJQG1N7bg1N7etLUpENATYkdo2gtA3XqN64YVtSf47SI9xp3MZbtH2yJ3lM2kZVDcdUWbSo/1OU/p90Gh7UjXzdHMk1ahbtKtYSEZHyxAc0pLsbufn2oAAPF3INS6ONNzXcsf3TqbPrpKZ+EqPptYNKIiLSlv5Mi4d2IzfPbuTv7U5dB75P2Uoioio6tWo8BXt6UtcAb3L17kuzvi8grkcjqk7RqvHB5OnZlQK8Xcm77yz6vsBES+OxZftpXpI3tffoQj5dYijthWHk7jaZdtRxzatOraLxwZ7k2TWAvF29qe+s74nrVkVZi/rTU+n/ofThQdTN140cXaNo1q5iqpd9RRP8XclBKCJpp87k4z+OvijSkiprESVGv0YHlRW0cUoAuTkKSejoRp27xNLC46pmx4mItCTbP4/6ebcnjy4+5Bv5d1o672mKe+0gKYlIefgNikl4i46pGuZ1nBYlxNAbh7h5Wa0P/ThJ+nG6xKTRC8PcyW3yDuJUwGMD1XF6q98oWvT5fBrSqyt183Yhl56ptO5ig1B85/L7EmlltH9eEnm396AuPl0oJu0FGubuRpObDGN2fqqsRdT/qXT6T/pwCurmS26OrhQ1axc1dm3S31SUtSiRovX6JeUJ+mBId3Jz86UeAR7k4hpGaRtvcrJrrtO3aWHk2akL+Xd2p67jv6QCfd8cpux7jw6/EUMJbx2jJpMtooSYN+iQ0hp9lNLPi4dSNzdP6ubvTe5dB9L72coW/kxVp+mzieHk2cmHuvu5UXvf/vTPHbes0rnV8csbFxq6/m0ahXl2oi7+ncm963j60lA5JtBS6c+LaWg3N/Ls5k/e7l1p4PvZpCQl7Z/emVwnfU/EI5/8uzQK6buAjupdg0hJWemJFPbiblK0gaym/UVJJz4YQt3d3Mi3RwB5uLhSWNpG4tRlPjdwvfPHnKk8YK6tOT9Vm8xB93lktkIXVdtoWnAczT/SqGhSZadTUvhLtFvRvKE53WhJ9tUE8nd1IKFISp06+5D/uC+oSMvpa8RbK+mlMCcSiINo3qkag3hU7p9OnTsMpVmvDaaefl3Jy6U9BT77/+h3FTee2di6L6OvJviTq4OQRNJO1NnHn8Z9UURaIqo6/RlNDPekTj7dyc+tPfn2/yftuMX5u+b6t5QW5kmduvhTZ/euNP7LguYT5MawkGd4Y9EAFR1/qx+NWvQ5zR/Si7p28yYXl56Uuu4iNx9VFi3qP4LeWvkShTkJSBw0j06pDPNVgyxr3xpGwQG+1NGlKz39f7/SbxumU3wPP3KXtqeQ6Vv0fm9BNov5jcH469DGhbuGbqz6G0U+9Sr9e/1m2rLmBYqS2pCwywv0s36NfhSoTrxBgR6ptFVOVPPD38m74xjaUKY/qNxP071tyTVhHh2QaYhqT9L8UHsKSz9H9USkyttFGceKuMJHdZmWJUmp1+sn9Kc2W/iV+2l6Z1ea9H0dEd2jPWm+5Dp4JV2sIyJtJf26bQ/lqYhqD8+iHu5DaOWFWiLSUNGmVPL1mkTbKhvF1VNLh2f1IPchK4lrWkSbUn3Ja9I2atHUYGwFZT7vRy5JSymvjkhT8hO9FiUlYUd94V57mGb1cKchKy8Q1+0mSvX1oknbKolISfune5OtawLNOyAjDdXSyfmhZB+WTufqNVRXuoHGtvehtF2lVHWvjjTNdPB9HZGmroy2PutBHs9updIqBamMjpMik573c6GkpXlURxoq+ek1ipIKqaN+wa7bOYXcvdNob8MaqtxH07wbCttW6MPCOLw2UO6n6d5isg9Mo+/yVUT1N2jtCDfq8LcvqURrzbnmfUmR+Tz5uSTRUs4w9NNrUSQVdrRqfsr908nb1pUS5h0gruv5FGofRunn6nn8ralIrCMiUuXRroxjVMQ5M11elkTSXq/TCRWR6ugs6t5pLGWUaYmolm5fK6BaI7W2tG8d7ZziTt5pe/VfiIiU+6aRd8OXRAv6uLcnjXxdB9NKTmiq/HUb7clTGflzLR16pQe5RC+k45VaIqqji58MI7eOo2j9Ha3FMayOX764UB2lWd070diMMtISUe3ta1RgrBxj7u2hNF9XGrzyInEm+ZW27ckjlVHhbk4+7e3/o8FOvjQjUz+Q8hC97N+envqihLQPLas5f1FR3q4MOsY5CKkuL6MkaS96/YTKQm6wHHOtyQPm/dRUDuKR2RpdaO/QmmHO5J22h7g6XUmHX/anDqO+JJlBYcczjqaOSjeMpfY+abSrtIru1Wka9WXXzpeeXH6cbt68RkUKw3hU7p9O3kI7CpzxPRXUE9Vf/5yedO1AT38lI7IQW5q6Utowtj35pO2i0qp7VKchotpD9EoPF4peeJy4ULlInwxzo46j1tMdrYqOzupOncZmEBfit+laC2VYyjMWYtGwJ9o/3ZvE9oGU9l0+qaiebqwdQW4d/kZfljTErR21832Slh+/STevFZGiWWw06sfWlRIXHqYyrZaKvx5Nbo4dKXjCOrpYS6TMW0LRDoH0xkmVRdmsyW8Mxl+FVtwLtwYhur26E2d3r8I/x/VDzIBnkBwggq70Dorqjdu2FSpkb9yBqkFjMcQFcEweh+H2h7BpV0nT7TIbKYbOWYxB7kLAPgyD4jvh9rXrUAOQhIzCxARvCBWlKCjUwsPHCeXFJYZDGKM6jp2Z99Bv6lQE2gEQtEf4MyMQIlHh9PbdKIsagf6iQly5ch2KoHiE3j+BI+eNbhirTmP77jJEjegPUeEVXLmuQFB8KO6fOALjpgaoc7DvYAXip/wDIXaA0GMwlqSPRSe9JVWnt2N3WRRG9Beh8MoVXFcEIT70Pk4cOa+/ZW0D6dA5WDzIHULYI2xQPDrdvobraiHsHO0gtrGB2N4ZzlI7CA1HhtBOCjuxDWzEdnBydoDE6Lg6Zx8OVsRjyj9CYAchPAYvQfrYTtbtx2qFPvjHscIGNlI8lb4CY/0kgKgbUiYkQJN1ECfU1p1r2pfUyNl3EBXxU/APzjAYvCQdY5sMY3F+NtKhmLN4ELiuByG+021cu67m8TfuvEYkIRg1MQHeQgVKCwqh9fCBU3kxSnSAwNkFTnUXcGDfBVTp7OET4At7o9Mt2dckZvWhwvGdmbjXbyqmckKjffgzGGEstCoLW3bKkDBzDuLbCwDYITBtJoaLjmDPoRoLY1gfv7xxIXCGi1MdLhzYhwtVOtj7BMDXWDlGqI7vROa9fpg6NRCcScLxzIiQFjozJ5/AezTGJ97Dvu+OoBaAMmsb9lYPQMooD9Q/rKxm/UWCkFETkeAthKK0AIVaD/g4laO4pCFTmssNlmLOEIttzfqpqRzEI7M1uhB4YMzEZNTt24oDNQCUWfhu3z0kp4yCu4HwPOMI7eBoJ4aNjRj2zs6Q2jVlRkniPKyZE4+uXQPg7dC8Pw4b51FI/2g0fEWAyD8VqYkaHD94wrhZC4R2jvpYtIezsxR2QkCVtQU7ZQmYOSceXKgEIm3mcIiO7MGhGgGcXZxQd+EA9l2ogs7eBwEtlMFhPs9YEYuGPUH6VDpWjPWDBCJ0S5mABE0WDp5o2H4jQeK8NZgT3xVdA7xhQj2wkQ7F7Lf6w00ggHu/RPTS+WLM/KkItAdse8Qhyu0ObuZrLMpmTX5jMP4qmMq7D4Ui53NM6eMNJxcv+D0xCMvO1YO7sm/cso2oPYSMnYVoX5+H1R98gA8+OQOVqxpHN23D7eYb3WyafhFLxNBpuJ2Dujt7sWBoD3j5x2L4mFQs+ekudGRhh5y6FKVyF7h72Bkd0EImK8f9U59gSkoKUlJSkDJ5HQr9Q+DnbFQGa2WQld/HqU+mcO1SUjB5XSH8Q/xg3NQATSlK7zrC3UPa+JGNSNhoSK1MhvL7p/DJFP34KZOxrtAfIX7OzQrxRmXARiyBWKcxsY+y9WhKS3HX0R1NotlAJLTSxVqhD/5xrLGBAGKJuOFk2Lm5walWDrnKmnPN+ZIGpaV34ejugSaxRGgSy7r5NXUthkSsg0bL529G6O5g74Kh6OHlj9jhY5C65Cfc1RF0AEShc7FueTwuL4hD18CRWLgr38Re8QfEpD7UKC2Vw8XdA7xSq++guMIJXl6OTZ+JPOHZUYOK8maPsJkcw/r45Y0LUSjmrluO+MsLENc1ECMX7kK+BeWoS0shd3GHZZOYkU/gjr+NH4D7md/jSK0Sx7ftx/1BKRjh1gaymvUXHe7sXYChPbzgHzscY1KX4Ke7Ohiqy3Ru4I85Qyy25fHTlvDIbI0uIIDbyIkYRpnYklmF+8e3Yf/9wUh5soNRO55xzGIDiZsH3EyrgUMghkTU8Icd3NycUFtZadjGStR3ilHh5AXDUPFER00FyqsECJ27DsvjL2NBXFcEjlyIXS2V0YjpPGNlLDZDIJagMZPaucHNqRbyhud7bCRw83CzWGQ0yiKRQGxj00w2CSRiHbRWyPZI8xuD8SfDUky1Dt0dfD1vLr79zRMv7LmGSsVl/Du+qUDC/Xxk792HM3faLqSqf9qEfapIxHbToLa2FrW1avjExsLl5GZsvWapHFXh0HsvYbV6Bo4U5OPS+dNYM87LslLEUkjtalBVZdy/AFJnKRwGvo/s3Fzk6n/Ond2JueGN2VvfVApnqQMGvp/d2C439xzO7pwL46YGCB3gaF8LeWXTZWhq9q1IIHWG1GEg3s9uGj/33FnsnBsOvm4BvTc0rdutRujgCIdaOeSNd1eMvrAJhLCpr0fTYV3T8VboQ+jgCPtaOZpU0HwcK23QTC61vBIKxw7oYGvluSYRwsHRHrXyyqaH8YiahmnF/Fpg1t8MUR16Dy+tVmPGkQLkXzqP02vGwavRmaUIn/EFTty4iK2pdVg/9RVskPFWJQAAgdAG9fVNt8tI12xOvIghldqhpqqK/0uh2AlO7RSolDfLCbpy3K2SwNXdpXlLE1gfv5biQho+A1+cuIGLW1NRt34qXtkgM+7CALFUCruaKvCbhE8+AdxGjscgdSa27fsR2/arMWzCcLRvC1nN+YvqEN57aTXUM46gIP8Szp9eg3FNDsILf8wZYqktr58a5yALMlvUBQC4DMekEbb4ecv32LN1H+qHT8AwY9eyMI6xWK2haepqyOUKOHbgvjTwx1bLEcVOTminqIRhqNxFlcQV7i4CQBqOGV+cwI2LW5Fatx5TX9nQ/HTLPFAsGiRSVCoc0aHDI3gXlUXZHiy/MRiPI9ZlbWuhOihquSfDSVWKc5tXYuuFhsVDh+Ivp2PgyKcw5LUfDE57cCqwd2MmbEa8iVXvv4t33+V+3lv5DlI6n8PWzZeMTzBCiyr5PYjdfeBlB+gqT+HnsxVmrvw0QxKNpGgtjm7bDS43VCM3YyOyFBL06R8L0S+b8V2zFxqrq6twv/n5ACDpg/6xIvyy+btm7z5Wo7qqRUtDxBGIixDg5O693NiKHHz68U69HICkT3/Ein7B5u+avStXXQ1L3XK0g72tAhV3H+yLlTgiDuGCk9i9RwZOtE/x8U7udwAQ+fjAQ3ERuVfVABQ4s+Ij7ChrFNxqfYgj4hAhOInde02NY4UNqAr7P12B0zXcl83vtx6DIH4g4iRWnGsWMSLiIiA4uRt7OcMg59OPsbPJMFbPrwVm/c2wmbZKjntid/hwzoxTP59FhX545dUzyC3XAnZ+SE5JRpf6GlRbfG2qCD4+HlBczAVnsjNY8dEONJiMHwmik6KhPboNu/U6qM7NwEZjoSVxGBgvwLHNW3FLCwBaFG7/GpmaZIxObrqrZBrr45c3LpRXcSa3HFrYwS85Bcld6lGjV47y9Od49bWvW7wGUBKdhGjtUWzbrfe76lxkbMyC4ewsyNd+OFKG6rAnfR5205OYMJib74PK2og5f6mugvyeGO4+XrCDDpWnfsbZBgexAH/Mta4tn5+2yEFaHpmt0QUAwAHJzz4NlwP/wus/2ODJlIFodt2Wg28cAGhnD1tFBVqbGqlqPz5bcRo1AHTFO/HdMSHiB8ZZFVvt7G2hqLjbeOVYEjcQ8YJj2Lz1FucX2kJs/zoTmuTRSJYqcfVMLrgQT0ZKchfU11Q3dWYNrY5FQtX+T7GCS6S48/1WHBPEY2Cc8YaxNsCCbObym65wN5a8tBjf5/N+w2YwHivatnAXdkXKS+PRTfArVoxOwJDXT8Mn2h9iiQS2AgHauXujo7gdPLzdjM98MKoPYOfRdhg+Ntlw/5ykD8Y/44/Lu3cAEEMssW12uxIQicUQi0UQwB6Dpk2D748vIqZvPCIS0yHr0h3tRPrGYjHEkoYk1KwfgQ+eW/oOIrJnIipyAJIjwzFmfT4EAgE6TViGVU/exOtRgeg7eCiSY3siIOFtZBvvWxd0woRlq/DkzdcRFdgXg4cmI7ZnABLezjbx+rTmY3sgdfFCBB1/ETExAxAbMwM5fccg0l4EEQBBpwlYtupJ3Hw9CoF9B2Nocix6BiTgbb0AYrEEtobKgFgshkgAQBKLkcNdsP+fieiXOBXrC3WAWAyJrUR/td4GIpEIYpG46VpQs+MCj1QsXhCIX16IQcyAWESnZcMtpEOjk4lCnsPspyqwfFA44mPi8OKlJIwLt4eIE9xqfQg8UrF4YRCOv8iNEzMjB33HRMKe68iyDWwc0M3hMJ6LikZSn1jMPp+AD95LhbtF+/H5kgAeqYuxMOg4XoyJwYDYGMzI6YsxkVbOz0DPACCCWCyGWCTg8TdDe9oPmoZpvj/ixZi+iI9IRLqsC7q34/yi7vJ6pIT2QtzAAYgatBJ1k2djgq9x+BvbV4SQ52bjqYrlGBQej5i4F3EpaRzC9b5mSR8+zy3FOxHZmBkViQHJkQgfsx75AoGRP3ti8rIVGHr9DcQEJ2JgUm/EvFmIsWtXItXDqG2LMayPX964qLuM9Smh6BU3EAOiBmFl3WTMnuALQAf5me1Yl/ELCowKd4HPc1j6TgSyZ0YhckAyIsPHYH2+AAIAYrEYEokIsCQfnDF04ig43rgJxzGT0F+/KffBZG2GOX9xHIRp03zx44sx6BsfgcR0Gbp0b8f5p4XcwB9zJvIAT1s+P22RgyqSzctsjS702PV9FuN8ZSh2HInUBkU3x55fN5LYkRjush//TOyHxKnrwaVGI30Z61AsQrueAxBweDIi+vRDn5hXcS7uPbyX6m5FbEkQO3I4XPb/E4n9EjF1fSHgORnLVgzF9TdiEJw4EEm9Y/Bm4VisXZkKD0EdLq9PQWivOAwcEIVBK+swefYEA9kAS3nGUiwaYwOHbg44/FwUopP6IHb2eSR88B5S3U3HLVrox0gWIedvElHD6iKCRCyGWGQ5T5jLb5qiLGzZsAm/GAcwg/EYY0PN91m0EaqyK8i7fg8dAiPg78K3YfvPgabyJs5fqYBLr0j4u5hKUGZQynDx3DVUOwUgIsiz2V5eHRSFF5CXXw2hqz+Ce3rBwVy3OgUKL+Qhv1oIV/9g9PRysOrblK6mAOfziiHxj0CQR8tbkzpFIS7k5aNa6Ar/4J7wMiuAEbpq5OfkodjWH+G9vR7gAR8dam6dw/liCfwjuiP3lQA8p/oMt795mtOPrhaFv51HkdgfkYHuLR7ms14fOtQUnEdesQT+EUFoqQIzNlBlYkbAZNz/pABro64it0gM//Ago73KZs61Bl0NCs7noVjij4ggj5b/wMjq+ZnArL81Q1OJm+evoMKlFyL9XQz6VldcRe6lUgi8QxDezaXFw8fm0NUW4rfzRRD7RyLQvYXFLKCE7OI5XKt2QkBEEDxNCg1AW41beRdwW+mM7qHB8GyF47Umfs3GhboCV3MvoVTgjZDwbnARAtDdwfrR0Vgdsh1Z78aa1LdSdhHnrlXDKSACQWYm1xr5mtMqWU1h0l80qLx5HlcqXNAr0h+tEMeKmGuOhbY8ftoyB/HIbK0udAX4dEhvfNZ7L377OKFl3gEs6kZXnY+cvGLY+oejt1crHFSnwO3z53FH3A3hwYZxyx9bOlTn5yCv2Bb+4b3RMKS2+hbyLtyG0rk7QoM9m+VoNSqu5uJSqQDeIeHoZlYZFrAqFlXInBGAyfc/QcHaKFzNLYLYPxxBLZ6raGN4ZHvQ/MZgPG48ksKdweBQYf90f8PC/Y+msXAvxLej/xQSMf6kqE8tQMKrAqw69C7iTL0Sg/HYoL28FIlRXyP+wHl8+Ci2cvzP0VS4F347+s+R2xmM/xFadb2FwWgdQnQKjEdikMefx9GEbujVNxHBJm/9MhhNSMIX4vAxVrQ//uhQ9XsZnJ5+GZP7sKK9bRDCrVdfJAb/iXI7g/E/ArvizmAwGAwGg8FgPAawL8sMBoPBYDAYDMZjACvcGQwGg8FgMBiMxwBWuDMYDAaDwWAwGI8BrHBnMBgMBoPBYDAeA1jhzmAwGAwGg8FgPAawwp3BYDAYDAaDwXgMYIU7g8FgMBgMBoPxGMAKdwaDwWAwGAwG4zGAFe4MBoPBYDAYDMZjACvcGQwGg8FgMBiMxwBWuDMYDAaDwWAwGI8BrHBnMBgMBoPBYDAeA1jhzmAwGAwGg8FgPAawwp3BYDAYDAaDwXgMYIU7g8FgMBiPBVrcr66ByvhjA3RQVcuhUBt/zmAw/gq0ceGuQ0nGPxD6RARe3lVtfPARoUDhxRzknD2Ls/qfnN9uo8a42SNBizvHMrDhSAG0xoceFvUJ/GtAPOYd5k/RjxL1iX9hQPw8449bwSPUz2OA9s4xZGw4ggKTk1cje3EyEhcetbAI/xdQZ2NxciIWHn14SR7OZzQov3AAW/7ff7B+80FcrtI1O2Yc5znIvSnXH7uPkt/zcL3MSH6lDFevlxp+xoe6DL8d2Iov132BTT//DrnB8IW4mJPTmGPO5uTipr7B/ZLfkXe9zMiOSsiuXkfpQ6pUUXgROTlnkZOTiws3y6E0bgAAUKEkZx82rl+Hr7YfwRV5g8NZp5eGMRrzZ+5Nw7k/KNo7OJaxAUdMB4AFDOODP5b+V9ChfMc09I6ahf1lZgykvYIvxvWAh39vBEW9igMP6X//Kzxc3mK0Jcb56GzOb7j93ynoWqDOXozkxIVog6WxbaE2RUPXl8WTGLY0dE2Z8cFHgubGh5RgK6UuEX2pb1/uJ35IOh1SGrd8FNyjLRPdye2ZDXTX+NDDotxP0zu70qTv64yP/NdQ7p9OnV0nGX/cCh6hfh4D7m2ZSO5uz9AGk5NX0r5p3uQ2eQf9cRbWo9xH07zdaPKOh5fkwX1GSUfm9SYXp84UEhVGfs4ikvim0Df5GqKGOBfbkEAoJKFQSEKhiOwHfsodu7mcEsU2JPROpc0l2sYe63ZOIXff5xv/5kV1nN6K9KYeyZPo+RnPUISrHXVJzaDbWiIiDd34MIHENgL92EISiuxp4Ke3iTQ3aXmimGyE3pS6uYQaR6/bSVPcfen5nx4iEWlu0IcJtiT1i6S+fWMotEt7at8zhdbkNevz3hlaOTqAHGw7UkB4FIX5d6B27fvQomN11ulFc4M+TBCTjaBBr0IS2Q+kT7mJPxz3ttBEdzd6xnQAWMAwPvhj6X+EqgP0Ukg4/fOg3PhII/VnFlCIdACtuqUl0mqb/JHBy4Pnrb8eqpPLaWLaGvqt3vjIf4GGnNclorGe6xs/hNL/OwVdC5T7ppG322Rqg6WxTWnjK+6G6DQ1KCuVQ2Xm4kCboNNCK+yOqV8eRVZWFrKysnD8x7cxwNa4oTE6KOUlKC5TQGN8SI+6uhRlNU1HdcpKlFYq0TQdKcZnyFC27Vl0bPxMj0aB8tIqmLxbqa5GaUk5alt99YhPZjWqZSWoVFqjbA1qyitQ27yplTLplHKUFJdB0VIAvXwyyKoaZm1GP9paVJTIIDcrqwaK8lI0dmOEuroUJeW1La/iq6shK6mE2W6boVPKIZOZsM9DyKaulqGkmX9Ix2dAVrYNzzafvEaBcpnc/FV2C3bQ1JSjopnh+O3B74caRTlkcrOSQFtbgRKZ3Cp98mFRRgCAEB5DluJYQQHyzpzDtVPLEC//Hp9mXOXsrNNCKw7Hol+V0Gg00GjqUfvzy9ypWg00Ij90t/8B6e8fgaJ5t0TN/zKPwBVDPs5C3sFvsWbtNvy04knc2/H/8IOMm7xOq4U4fBF+VWq48etr8fPLPgC00GhE8Otujx/S38cRw8FBD6U7HbRaIZ5I+wa/ZJ1E7vXTWOy1Hwvf26W/o1iNA/NS8ebpYHx4+hau/XoG564X4revxsBdrbFSLzpotWKEL/oVSg03t/ran/Gyj+WlwWwcNiAdjwxZGbYZBAB4Y8hcfJiPJevi3RQW5W9EjerSEpSbC0q++RiggaJcZmWObomOvDD2s2+xqJ+L8aFGNKUyVDj4ws9dAAgETbfULeU1TQ3KK2qbrW3Qz7sMTUugDsrKUpPyWxfjDfDpS4vaihLI5M3XWUOMcyCgz5tlNU3rok6JylJTvsG3hvJgdm2x5BvNsJDb+XK12fXKEg8wpqYwB5kHciEzdY6xn+iUkJcUo8ys4flsbQou53Wf+iWO6uu5rOM/4m3jgs6E3CbRKSGXyVqOzys3F6fmlsbW+fqjwXJ2fiB0KP3pDST4uMLD0w0eoX/Ht9f/y7PU3sCaMUHov+gXbsHSXsGaseF4+rMrUJ1ciqE9POAb1h/9Qn3gGT4Nm/I5L1Vnp2PAyMX4z6LhiIyKRqBvD4xefQ4Xvp2BpNBIhPp5IWzGVtzWAoAa2elJiHn9ELfQqLORPmAkFq9bjCfDQhEV4gPvPrPxQ0mDm1fj9CcpCPHrhbikcPh1icfsHbetWDjAK7P2RgamhfuhR2wiQv0CkPLVbePTgYa5PbUIq17ug84enohZeNp6mVQnsXRoD3j4hqF/v1D4eIZj2qb8xna6soP417Du8A2KR0KwL7oN+gAnVEb6QTXO/N8kRPh0Q3i/ODzh1RUD5u7U3/5WIzt9AEYuXofFT4YhNCoEPt59MPuHkqYkUX0an6SEwK9XHJLC/dAlfjZ23NYC0OJGxjSE+/VAbGIo/AJS8NXtFhmWQ1eGg/8ahu6+QYhPCIZvt0H44ITq4WTT3kDGtHD49YhFYqgfAlK+wm0dp++kmNdxSAUuJjLno5+fL3rHhuKJ2Jewu6h5TPDYQZ2N9AFPYdGql9Gnswc8YxbidA2PPSz5oa4UmfP7wc+3N2JDn0DsS7thKMoZ/N+kCPh0C0e/uCfg1XUA5u58gO1OFnzGEBGeGDAcwS5cShL59UavDgJo1GpYVXoL/TDpjXFQfvUWPv3tAXKN6AkkJnVBw/JgJ5VCYmMDGxujdiYRwm/SGxin/ApvffqbhYKgGtunh6DvgqNN217UJ7C4XwRe3lNr2NQYkQ9CAzuirrIS93UAyndi9cZSJM5fied7O+ob2cN/1Dy8lKz/+2H1YgqzcWiEOhvpSTF4/ZDKcgxZiA9TsdTfzxe9Y8PwRPQ/8O/5o9FXn2dUR95EbOIiHG9YrNVZSE+MxZsN2w6tlR9A9elPkBLih15xSQj364L42Tua5X6++RiiK83E/P5+8O0di7AnovGPf8/H6L76+aiO4M3YRCxqEhhZ6YmIffNwY948/UkKQgMH4R9pQ9DdTI6u3PQcQv6+FaXl2zGtux/i3sqC2oq89tSiVXi5T2d4eMZg4WmFfl7/waLhkYiKDoRvj9FYfe4Cvp2RhNDIUPh5hWHGVv34Vse4ZX1Vn/k/TIrwQbfwfoh7wgtdB8zFzoa9UaZyoEKf5/6zCMMjoxAd6Iseo1fj3IVvMSMpFJGhfvAKm4GtetvyraHmMb+2mPcNYyzldr5cbWa9stJnWjemBqVfp6L3Cz+gujgDkwJ8ETB+Pe7oTPlJDU4uHYoeHr4I698PoT6eCJ+2CZw6Ldv6gTArt6ledSg7+C8M6+6LoPgEBPt2w6APTkAFFY/c+jjtx8Vp6BOxeGl3UVM+t9rX/wsYX4J/OBq2yoBsxF4UP/klei7Bi8Q2AnIdt9G4cZugubaU4tp1p8mrd9IPP/xAP+zeS9k3ufsa8p9epB7SSFp0WkE3144gjx4zaX8lkSpvF2UcKyIlEZHqMi1LklKv108Q6W+Zedu6UuLCw1Sm1VLx16PJzbEjBU9YRxdriZR5SyjaIZDeOKkiIiXtn96ZXCd9z213UO6n6d625Jowjw7INES1J2l+qD2FpZ+jeiKqPTyLergPoZUXaolIQ0WbUsnXaxJtqzSYEofRVhnzMqvo6Kzu1GlsBpVpiaj2Nl0rqDXujahhbnbtyPfJ5XT85k26VqTglcng9qEqj3ZlHKMiTgC6vCyJpL1epxMqIqJ7tCfNl1wHr6SLdUSkraRft+2hPJWhfmoPvUI9XKJp4fFK0hJR3cVPaJhbRxq1/o5el95k65pA8w7ISEO1dHJ+KNmHpdO5eiKiWjo8qwe5D1lJnKhFtCnVl7wmbaNK1VGa1b0Tjc0oI04F18iMCujenjTydR1MKzlBqfLXbbQnT/VQsqmOzqLuncZSBmcAun2tgGqb3X79vo6IFJn0vJ8LJS3NozrSUMlPr1GUVEgd9VsB+OzA+ZUdtfN9kpYfv0k3rxWRgs8eFvxQkfk8+bkk0dK8OiJNCf30WhRJhR31W2Vq6dArPcgleiEdr9QSUR1d/GQYuXUcRevvWL7xbr3P8KM6l05htr40I5MzpObaUoqzD6UF2XdJLpeTXF5FCn0/mmtLKc6hP63Iv0GfD+tAnUZ/RUVa/ZYQnxmGHfOhVVKN/C7d/nUTvRLVkbpO3kLclDV0bWkc2YcuoOy7cm78KgWpiIg012hpnAP1X5FPNz4fRh06jaavuMFpirsPzcg0vsWrpTtrhpGzdxrtUXCfKA+/TP4dRtGXMiP9aq7R0jh7ikw/TRXyCio6/R9K6eZJI9fdIA0RKQ/MJF/baHr3EredyBir9KIfI3RBNt2Vc3OralCsSXji0LipQQ7jjyFL8dGaWKrbOYXcvdNob8PtbYOtYK2Qv/YwzerhTkNWXiCu6SZK9fWiSVxQ8s/HAAVlPu9HLklLiQu5n+i1KCkJO+pvwdftpCnu3pTWJLDBNiHe3NAcTR2VbX2WPDyepa2lXHxYk9fs2vnSk8uP082b16hI0TCvRFp4uIy02mL6erQbOXYMpgnrLlItKSlvSTQ5BL5BJ1WtiXEL+qo9RK/0cKHohceJSzsX6ZNhbtRx1HouBk3lwIY8l7iQDpdpSVv8NY12c6SOwRNoHbdY05JoBwp84yRxoppbQ3m2yphbW3h9wxBe+1nI1ebWq4fyGb4xNXVUumEstfdJo12lVXSvTmPGT1SUtyuDjnGGJ9XlZZQk7UWvcwsQv6350FyjpXHtqPvk1bTzhx/ohx92097sm1bVVwbc20Npvq40eOVFqiMibeWvtG1PHqmIT24LcWq1rz96HtEVdzHC5+/FwW8+w//b9jYGOxDk2YeMG7Udugrk/rAB33zzDb75ZgN2n6uADoDLwHfw4bhKfPrCGDz39iUMX/YOhrQHJCGjMDHBG0JFKQoKtfDwcUJ5cUljdzbSoZj9Vn+4CQRw75eIXjpfjJk/FYH2gG2POES53cHNfDNXr2ykGDpnMQa5CwH7MAyK74Tb165DDRVOb9+NsqgR6C8qxJUr16EIikfo/RM4ct7MPZlmmJdZAGcXJ9RdOIB9F6qgs/dBgK+98elNSBIxb80cxHftigBvkfUySUIwamICvIUKlBYUQuvhA6fyYpToAKiOY2fmPfSbOhWBdgAE7RH+zAiESJp3oELWlp2QJczEnPj2EACwC0zDzOEiHNnT4Bs2kA6dg8WD3CGEPcIGxaPT7Wu4rgagOo3tu8sQNaI/RIVXcOW6AkHxobh/4gjO1zvDxakOFw7sw4UqHex9AmBaBSoc35mJe/2mYionKNqHP4MRIfRQsgmcXeBUdwEH9l1Alc4ePgG+MB5enbMPByviMeUfIbCDEB6DlyB9bCf9LS9rfEOCxHlrMCe+K7oGeMOBzx7g80M1cvYdREX8FPwjxA4QemDwknSM7aRPBaosbNkpQ8LMOYhvLwBgh8C0mRguOoI9h1r5hJAlGc2h+g2f/vMzyIamY96gZprU/I7Vz4QhJCQEISGhGPLuiWYnESDww9/ffRk+Py3BuweqW311R/XTG+jbOxRR/Z/DupLeGDOyN/Q3AAAAmt9X45mwEG780CF490TT/VeCAH5/fxcv+/yEJe8eQLXZwQXwGDMRyXX7sPVADQAlsr7bh3vJKRjlbioda/DbJ39DaEhvRA2ZhR2qnnjCuR71ALTyKtyDMzp04LstYI1eNPh99TMIC+HmFjrkXTSbmiF8cWgxjZmPIf74MKQ1bVvQCvlVp7djd1kURvQXofDKFVxXBCE+9D5OHDmvv6ppfj4GqHOw72AF4qf8A1zIDcaS9LFoCDl+rMkNeoR2kNqJYWMjhp2TMxwk1uRcQJI4D2vmxKNr1wB4O0A/r9l4q78bBAJ39EvsBZ3vGMyfGgh72KJHXBTc7txEvqa1MW5eX6qsLdgpS8DMOfHg0k4g0mYOh+jIHjSlHaMcCH2em/0W+rsJIHDvh8ReOviOmY+p3GKNuCg33LmZD05Uc2soDwLTa4tl32jACvuZzdXm1iuDhdUEDzGm0A6Oeh+yd3aG1E7Y2Kuhn0gQMmoiEryFUJQWoFDrAR+nchQ3LUBmbW0ZHSpyf8CGb77BN998gw27z6HC4rpmiOr4TmTe64epUwPBlSTheGZECCTgkdtSnLbK1x8tVqWO1iOAm5c3bAEIXLrBr6MAuuqGN0A8AoR+GPPvzfjuu+/w3dZNeH+MNzcxQUeMmJuG7nkHcLLTZMwa4QYBAN2dvVgwtAe8/GMxfEwqlvx0FzqjzaiNS6FEArGNTdPfNhJIxDpo+e6PNDWGWCKGTqMFoIVMVo77pz7BlJQUpKSkIGXyOhT6h8DPuSk4zGFeZhFC567D8vjLWBDXFYEjF2JXvrEbN2EjcYOHW4PZWyGT7g72LhiKHl7+iB0+BqlLfsJdHXFFgLoUpXIXuHvYGZ5jgBp3iivg5OWFhpv6gAienh2hqShv1q6pCLERSyDWabhbUVoZZOX3ceqTKZycKSmYvK4Q/iF+cLYNxdx1yxF/eQHiugZi5MJdMK0CNUpL5XBx94ChpA8nmyh0LtYtj8flBXHoGjgSC3flt0gkmtJS3HV0h4e04RMbiIStsIONBG4enP8CFuzRgEk/1KC09C4c3T3QJIoIjaKo76C4wgleXk2agMgTnh01qCivavrMGqyR0RhdMXa+koL3yidi/X/+jq7N3VAUjFmZ+SgsLERh4S1kvRPX7CCHbeQcLJlIyFj8GS5qDExmEdthq5B3uwillTJkL2yP754dhlf3NM1ZFDwLmfmF3Pi3svBOnNECahuJOUsmgjIW4zOewQVuIzFxGCFzSyaq7h/Htv33MTjlSXQwbggAEKH33J9xq7AIJfIy5Cx0wqa/T8FHFzQQSqVwgBwVFZY3E/HrRYTgWZnIL+TmdivrHRhPrRG+OLScxszGEH98GNKati1ohfxamQzl90/hkyn6mEyZjHWF/gjxc0ZTU9PzMUBTitK7jnBvEhg2IqGVi68VucEs1uQ1G0jcPNC4JDTSNC+JRAybZnvGbCQSiHVabp6tjnHT+lLfKUaFkxcM044nOmoqUN7wdinjHNhA02INibj59jYbSCRi6PSLtfk1lAeR6bXFOt+A9fYzmavNrVeWeJgxzWHsJzrc2bsAQ3t4wT92OMakLsFPd3VGz/SYtrVlhPAb829s/u47fPfdVmx6fwy8mxvdCrnVpaWQu7ijZUnCI7elOG21rz86WsRA26BDTfU9zkiKQtyR6yBw5p4qup+fjb37zuCOcWXzKNCVY8/y9ShOGImogvVYur0EOqhw6L2XsFo9A0cK8nHp/GmsGef1qBTRDAGkzlI4DHwf2bm5yNX/nDu7E3PDRcaNjbAgszQcM744gRsXtyK1bj2mvrLB8HSzWC+T6tB7eGm1GjOOFCD/0nmcXjMOXg0CiKWQ2tWgqqplADUhhpNTOygq5c2KWh3K71ZB4upu0NIkAimcpQ4Y+H52o5y5uedwdudchIsAafgMfHHiBi5uTUXd+ql4ZYPMuAcAYkildqipqjJKIA8pG6QIn/EFTty4iK2pdVg/9RVs0D/U2IDQwRH2tXJUNl6OoWbPTVpvhwZ47cGLEA6O9qiVVzZdGSJq2kcudoJTOwUq5c0CVFeOu1USuLqbfyjOFK2WUVeGA2+MwrTDEfh01wo8afIKtCVcMHTRQgy4+SmW7K0yUzpbQNge4WmzMaZLCY4dvtjiSxgfLkMXYeGAm/h0yV5UmR3cBcMnjYDtz1vw/Z6t2Fc/HBOGWaNbRwRPSUGs4AJyzqsgDuuDUMnvOPiTNc8ftIFeYDkOHxT++DBE6OAIh1o55PUNnxi1FQhhU8/dleAO65qOt0J+gdQZUoeBeD+7KSZzz53FzrnhaNVUhQ5wdKiFvElgkKHAENrUo77ZfHRNArc6NzTxsHnNMq2OcTOInZzQTlEJw7RzF1USV7g3v+31wFhYQ3kwtbZY7xsPZz/T6xUeoc9wRaHF/KA6hPdeWg31jCMoyL+E86fXYNyDGP4RIZZKYVdThRYlCZ/cQgc42tdC3pSEDOK0rXy9LXhEw9bjxDtPYdyb72He1H9hX40NOiQkA7pifDl9IEY+NQSv/XDf+KQ2pzLzLby2pwcWrtuCz//ZGfvmLcTu8npUye9B7O4DLztAV3kKP5/lttY8WiTo0z8Wol8247tmLyNWV1fBsia0PDIrcfVMLsq1gJ1fMlKSu6C+xtp36Fsvk7ZKjntid/hwAuDUz2ebbl9JopEUrcXRbbvB1avVyM3YiCyD11hIEDcwHoJjm7H1FjeWtnA7vs7UIHl0cvOGppH0Qf9YEX7Z/F2zdzmrUV11H1BexZnccmhhB7/kFCR3qUdNtak3XksQnRQN7dFt2K0vrKtzM7AxS/1QsimvnkEuZwAkpySjS30NjIcXR8QhQnASu/fKoAOgyPkUH+/kfm+NHRrgtQcvYkTERUBwcjf2ynQAFMj59GPsbPiiIYnDwHgBjm3eCk4VWhRu/xqZmmSMTm66EmENrZOxFiffHY2Ur+ww8+PXEFZ3BRcvXsSlm+Ut3jBiCYHPFCyZ5YfDGzMhb8y7Spz+/FW89vUFkw+P6krO4cSVmsY8oLyajRyZAwJ7B7SuSBP4YMqSWfA7vBGZTYO3wCH5WTztcgD/ev0H2DyZgoHNrjSaR4FLG7fhFMIQE24HgcdYvDDeDVkfTMM7mbdwH4BOcQM/fjwDb2wubZHTTOvFNMrTn+PV177GBWNl8cXhQ8AfHy3bhgtOYvce021FPj7wUFxE7lU1AAXOrPgIOxree94K+SV9+iNW9As2f9fsi5G6Giaa8iOOQFy4ACd37+HyoyIHn368U58ruYeOfTwUuJh7FWoAijMr8NGOsgfODU08ZM61gtbFuHkkcQMRLziGzVtv6e+wFmL715nQJI9GK9OOGfjWUB7MrC3W+8bD2c/0eqV4hD4DoJ09bBUVuMt3xUJbBfk9Mdx9vGAHHSpP/Yyz1hpeV4jdS17C4u8f3YOdkugkRGuPYttufV6ozkXGxiwo+OQWRyAuQoCTu/eajNO28vW2oI0LdxuIbCUQ24Vj3PgOOP7xIvx7TwFE3cZh6dvPAIJ2cPfuCHE7D3i7tWo5NIuNrRSONr/hw6RO6NChAzp06ICOPpOwqewE/v3mdnjO/RBp/nYInfMRXnTZjvnL8jBo2jT4/vgiYvrGIyIxHbIu3dFOpJdHLIbEVtK0WAvFEIvFkIgavoOKIBGLIW5sLoGtpKG1GGKJLRr/BCASiyEWiyCAAJ0mLMOqJ2/i9ahA9B08FMmxPRGQ8DayTVYmYojFEn1f9jwy1+Hy+hSE9orDwAFRGLSyDpNnTzDujMN4bpZkEoshlnD3zO0HTcM03x/xYkxfxEckIl3WBd3bibi+BD54buk7iMieiajIAUiODMeY9fkQCJrrRwDPycuwYuh1vBETjMSBSegd8yYKx67FylQPvXjNdQlAxOleJAAg6IQJy1bhyZuvIyqwLwYPTUZszwAkvJ0NVd1lrE8JRa+4gRgQNQgr6yZj9gTfpn4aEcDnuaV4JyIbM6MiMSA5EuFj1iNfIHoo2eour0dKaC/EDRyAqEErUTd5Nib4Cgz0LfBIxeKFQTj+YgxiBsQiZkYO+o6JhL2I0w2vHUz4Fa89TLRv7oceqYuxMOg4XoyJwYDYGMzI6YsxkfbgRPHE5GUrMPT6G4gJTsTApN6IebMQY9euRKqHFenCWp8xRnMV+3acQVVFFt4bFY7g4GAEBwejd9JCHFbp41AkgrgxDpuhj1Fx411gEXrP+hCvBtsBjs7cRzo5zmxfh4xfCkwX7mUHsWhgN3SLSMKg5GgEJn2E2pRP8WGqOwQAhGIxRCIxWg4v5MZuGhyi3rPw4avBsIMjnKUtTuCw64tnx/lCVuyIkan9WzwTAQCwsYXU0QbnP4iHW8eO6Ni+C4au1mLKhm8xN1AIoD2e+mgLlveXYdVT/nBxdIa0Qy+kflmNLk84Q2CNXiCEWCyCSCxqdpVNB/mZ7ViX8QsKjJXFF4dGTY39kC+G+OPDMHcJPFKxeEEgfnmBaxudlg23kA6Ni5ko5DnMfqoCyweFIz4mDi9eSsK48Ab/tl5+QacJWLbqSdx8PQqBfQdjaHIsegYk4G19wuabjwECD6QuXoDAX15ATMwAxEanIdstBB2aBMZzs59CxfJBCI+PQdyLl5A0LtzK3GCIjYizpdgGD5ZzTXwmFHNrUdMSKOHm2coYN+7XwP6ek7FsxVBcfyMGwYkDkdQ7Bm8WjsXalang0k7LnNbyM30sSpp8WSTh8h7/GmqYtwwws7ZY8o0mLNnPeA6Gudr0eiV4SJ/hGxOQxI7EcJf9+GdiPyROXY9CnQnb2Q/CtGm++PHFGPSNj0BiugxdurfjYsyCraEpQtaWDdhkKhfrc95vHyahk76e69DRB5M2VVmUuzkCn+ew9J0IZM+MQuSAZESGj8H6fAEEfHILPJC6eCGCjr/IxWnMDOT0HYNIe86fW+PrjxobMrxn14boUHPrV5wvaYeAiCB4WHyv+n8XTeVNnL9SAZdekfBvk1tx1qKDovAC8vKrIXT1R3BPLzhYObx5mdWouJqLS6UCeIeEo5uLpb2Pxlgpk6YSN89fQYVLL0T6u7QIFihluHjuGqqdAhAR5GlmX54W1bfycOG2Es7dQxHsabJkMY9OgcILecivFsLVPxg9vRw4OdQVuJp7CaUCb4SEdwO/CpSQXTyHa9VOCIgIgmejoA8um7riKnIvlULgHYLwbi5G+xwb0KGm4DzyiiXwNxkTVtqhAUv24ENXg4LzeSiW+CMiyKPxNYiNaKtxK+8Cbiud0T00GK1QhSEPI2MboruzHqOjVyNkexbejTXtmdBUIf/CJRTeE6Bj994IeuBJW4MOBZ8OQe/PemPvbx8jwUTN0Bpqiy8g73oF0PEJhAe1dk+sEbo7WD86GqtDtiPr3VjTfZmLw4fCUnw0R4eaW+dwvlgC/4juyH0lAM+pPsPtb57m5NXVovC38ygS+yMy0B0t1NsK+XWKQlzIy0e10BX+wT3hxRuU5tHV3MK588WQ+Eege+4rCHhOhc9uf4OnOYFRW/gbzheJ4R8ZCPeWArcuNxjw4HnNKtowxrXVt5B34TaUzt0RGuxp+gvtQ2B+DeWBZ22x3jcexn7m1qtH5zO66nzk5BXD1j8cvb3MWUGDypvncaXCBb0i/Q0e5P+zoJRdxLlr1XAKiEBQo+L45dbVFOB8HhenQcZJqA19/WF4hIU7g8Fg/BlQ49SCBLwqWIVD78Zxb6P4o9FextLEKHwdfwDnP4xrWVj+gahPLUDCqwKsOvQu4v4UyrKECvun+xsW7n9yVPunw9+gcGcwGAzr+KO+MDAYDMZ/CQnCFx7GsT9L0Q5AV/U7ypyexsuT+/ypinYAkIQvxOFjj0vRDgBCdAqMR2KQx2OzoAk7BSI+MUi/DYTBYDCsh11xZzAYDAaDwWAwHgPY930Gg8FgMBgMBuMxgBXuDAaDwWAwGAzGYwAr3BkMBoPBYDAYjMcAVrgzGH8RNIoqKFq8GJfBYDAYDMZfBVa4P3LUyF6cjMSFR1v8gw9Ga9DizrEMbDhizb93t4A6G4uTE7Hw6F/HItorqzCs5xB8+Kup/xjbdqhP/AsD4ucZf8ywFvUJ/GtAPOYdfnDf0945howNR5r958+/AA+sFwUKL+Yg5+xZnD17FmfP5iD3plx/7D5Kfs/D9TKjPpUyXL1eavjZn4i2ta8aJ/41AH3nHf5TrD8G+eOBbf4H8MCyPrx/KgovIifnLHJycnHhZjlMZ3gVSnL2YeP6dfhq+xFckbeJ8zD+pLDC/ZFDqC6+iiuFcrDX9zwM95G1Zi7mfnYMVcaHWgtVo/jqFRRa+r/vjwu62/hm/ucQvv4lFkY/2pdCU3Uxrl8tMv6YYS1UjeLrV1FU9eC+dz9rDebO/QzHHjoQ/kQ8oF60N9dgYngfRMfGIlb/Ez8jgzuW/zlSQsPQM+Lv2NLwf8sBKH98E0kDFzfr5c9F29qXUF18HdeKqtpu/VGfwkeTpmHthdbf3jPIHw9o8z+EB5T1of1TexNrJkZiwNiZePXVmXg2+Ql49ZqAtb81K/ZrzmLVmGB0j5+Cxf/3H6x68xmE+8ch/bjpEp/x+POXKdx1SjlksiqoDT+FUl6C4jJFy3+tCzWqZSWoVDYFTAPa2gqUyOQwcch6NAqUy+Tmr3Koq1FaUo5aS1+M1dWQlVSakEWN6tISlJvrQFOD8opatDitORoFykuNdaaHTz6dEnKZDFUtTuSRycw8dEo5SorLzG7x0NSUo6JWB0CK8RkylG17Fh2bN9DWoqJEBrlxxybQKMohk5u1CNTVpSgprzVxRd+cr+iglMsga6kIyz6krkZpWU2TX+qUqCxtqZ9GtLUol5k5rhMi6IUvsXZ6LzPvBNdAUV5qwl56Pyk3FR98sWOIJRu2Hg1qysvN9MfjYwD/XC2dayJmzPtES5p8VQ9fDDVHp4S8pBhlJifc0sek4zMgK9uGZw0DAbUVJZDJlWZjXqMoR6lpxfDM05zvG2Fprny5xhy8etGj00IrDseiX5XQaDTQaOpR+/PL3DGtBhqRH7rb/4D0949A0fw8vrcgm8lV1qCtLYes0rQNzOsYep+vQK3OnH0t55QW/tcCDWrKTMcGXwyrq2UoaT4nTSFyMg8gV2Y0E2vsZQV8etLUlKPcVP+WxjYR201Yn+sMsDQm2sI/ddBqhXgi7Rv8knUSuddPY7HXfix8bxdqAADVODAvFW+eDsaHp2/h2q9ncO56IX77agzc1TxyMR5v6HFHW0o/Lx5K3dw8qZu/N7l3HUjvZytJeeIDGtLdjdx8e1CAhwu5hqXRxpsaIiLSXP+W0sI8qVMXf+rs3pXGf1nA9VV1mj6bGE6enXyou58btfftT//ccYu4s6xFS7L98yjJuz15dPGhLjFp9MIwd3KbvIPqiIioik6tGk/Bnp7UNcCbXL370qzvC0yMoaHr36ZRmGcn6uLfmdy7jqcvC7RcD6dW0fhgT/LsGkDert7Ud9b3VKAhIlJR1qL+NOKtlfRSmBMJxEE075TKsFtVFi3q/xSl/yedhgd1I183R3KNmkW7irm++eXTUunPi2loNzfy7OZP3u5daeD72aTklcnMPJQn6IMh3cnNzZd6BHiQi2sYpW28yY2jyqJF/UfQWytfojAnAYmD5tEplYqyFiVS9GsHSamX8/RnEyncsxP5dPcjt/a+1P+fO+hWS0USaWW0f14Sebf3oC4+XSgm7QUa5u5Gk3dwFqGqU7RqfDB5enalAG9X8u47i77nhDfrK9rSn2nx0G7k5tmN/L3dqevA9ylbacGHGnS/9i0aFhxAvh1dqOvT/0e//raBpsf3ID93KbUPmU5b9GOT6ji91W8ULfp8Pg3p1ZW6ebuQS89UWnexwaZ8OuB84an0/1D68CDq5utGjq5RNGtXMem9iLL/PYIC3Dyoi48HdfLqTJ19utHoz/Oplid2lPunU2fXSdzwfDZsRtW2aRQcN5+O6NVNpKLs9CQKf2k3KQybUlX2v2lEgBt5dPEhj05e1LmzD3Ub/Tnla/h8zNJcLZ/bImZ4fMIAk77KE0PK/TS9sytN+r6OiJR04oMh1N3NjXx7BJCHiyuFpW0kvarN+pgqaxElRr9GB7lAoKrTn9HEcE/q5NOd/Nzak2//f9IOfSCoshZR/6fS6T/pwymomy+5ObpS1Kxd1BTu5udpzvcN4ZmrxVzTjFbopTmaa0spzj6CFp+vNz7EHXMcQEvWTSVfaRy9n8e1qds5hdx9Zhg358lVh+mNmAR661hD3Kno+KIEinnjECmJSHX8Leo3ahF9Pn8I9erajbxdXKhn6jpqClPzOlZlLaL+I96ilS+FkZNATEHzTrWwr+WcYux/+vOIiEhJ+6d3pg6DX6LZA3tSV+PY4IthzXX6Ni2MPDt1If/O7tR1/JeUX/wVTfB3JQehiKSdOpOP/zj6oui+1fYyzB/Nbc6vJ6rKpn+PCCA3jy7k49GJvDp3Jp9uo+nz/Fqesc3EdjP46gTDhn+Qf2qu0dI4e4paclGfV5V0+OWuZD/4c5JpiajsK3raRUqDPrvVmOsYf30e+8L93p408nUdTCsv1hGRlip/3UZ78lSkyttFGceKuCJPdZmWJUmp1+sniEhFR2d1p05jM6hMS0S1t+laQS0R1dKhV3qQS/RCOl6pJaI6uvjJMHLrOIrW32lFSCgy6Xk/F0pamkd1pKGSn16jKKmQOuoL99rDs6iH+xBaeaGWiDRUtCmVfL0m0bZKo35UR2lW9040NqOMODGvESfmYZrVw52GrLxAtUSkKdpEqb5eNGlbpT5Je5NdO196cvlxunnzGhUZV0bK/TTd25ZcE+bRAZmGqPYkzQ+1p7D0c1RvSb57eyjN15UGr7xIdUSkrfyVtu3JIxWfTObmocqjXRnHqIgzEF1elkTSXq/TCVWDjHbUzvdJWn78Jt28VkQK/QLkOul7To+HXqEeLtG08HglaYmo7uInNMytI41af8dowkSKzOfJzyWJlubVEWlK6KfXokgq7Kgv3Gvp8Kwe5D5kJXFTLqJNqb7kNWkbVZr1lXu0J82XXAevJM7tKunXbXsoT2XBhxp0n7iQDpdpSVv8NY12c6SOwRNo3cVaImUeLYl2oMA3TpKq0VZisg9Mo+/yVUT1N2jtCDfq8LcvqURrSQecL9i6JtC8AzLSUC2dnB9K9mHpdK6eSHNtOSU6R1L62Toi7V3aMy2AOk/ZRnfriSd2jBZePhs2Q3tnDQ1z9qa0PXpnVB6ml/070KgvZYaLjeYaLU90psj0s1RHWrq7ZxoFdJ5C2+7WW+X35uZqzbmGMcPnE0aY8NUyvhgyKABUlLcrg45xCiTV5WWUJO1Fr59Q8fhYkw2+5wKBXunhQtELjxPnchfpk2Fu1HHUeuJcbjp527pSwrwDxIX7fAq1D6N0TjE88zTn+4bw5gsLucYAq/ViCFcYhdKC7Lskl8tJLq8ihb6Z5tpSinPoTyvyb9DnwzpQp9FfUZGWp3A3l6vqdtIUd29K29vwzVNJ+6Z5N16MUe6fTt5iewpM+464MF1LI9w60N++LLGgY/25du3I98nldPzmTbpWpDC0r6V1yYT/GaZ8zr9FLrGmY4MnhlVHZ1H3TmMpg3MAun2tgGpJQ3WlG2hsex9K21VKVffqSNMKe5kv3Pn0pKFryxPJOTKduHS1h6YFdKYp2+5SPe/YpmLbUB6+XGfAH+Wf+sI9Mv00VcgrqOj0fyilmyeNXHeDNESkPDCTfG2j6d1LJr41MP6yPOZbZVQ4vjMT9/pNxdRAOwACtA9/BiNCJJCEjMLEBG8IFaUoKNTCw8cJ5cUlAARwdnFC3YUD2HehCjp7HwT42gOqLGzZKUPCzDmIby8AYIfAtJkYLjqCPYe4m1LWoM7Zh4MV8ZjyjxDYQQiPwUuQPraTfk+SCqe370ZZ1Aj0FxXiypXrUATFI/T+CRw5b7SFQ+AMF6c6XDiwDxeqdLD3CYCvPaA6vR27y6Iwor8IhVeu4LoiCPGh93HiyPnGbTmSxHlYMyceXbsGwNvUvy23kWLonMUY5C4E7MMwKL4Tbl+7DrUF+VTHdyLzXj9MnRoIOwCC9uF4ZkQIiE8mM/OAJASjJibAW6hAaUEhtB4+cCovRknjvUwJEuetwZz4ruga4G30r+pVyNqyE7KEmZgT3x4CAHaBaZg5XIQjew4ZtATUyNl3EBXxU/CPEDtA6IHBS9IxtpPe9VWnsX13GaJG9Ieo8AquXFcgKD4U908cwXmVOV85jp2Z99Bv6lRwbtce4c+MQAhZ4UM2Ugyd/Rb6uwkgcO+HxF46+I6Zj6mB9oBtD8RFueHOzfymW7Y2UjyVvgJj/SSAqBtSJiRAk3UQJ9TW6MAG0qFzsHiQO4SwR9igeHS6fQ3X1YCmqAAljqHoE2QHCNojrLcPqm4XoVYAntgxwqINOQQeYzAxuQ77th5ADQBl1nfYdy8ZKaPcDffqaYpQUOKI0D5BsIMA7cN6w6fqNopqBVb4vfm5Wj7XKGZEfD7RXOAGmvuqKy7yxJDxeSGjJiLBWwhFaQEKtR7wcSpHcYnOvI8Z7YVSZW3BTlkCZs6JB+dygUibORyiI3vQ5HJDMWfxIHDhPgjxnW7jGqcYnnma8X3D0XnzhX5wM7mGDx69mELzO1Y/E4aQkBCEhIRiyLsnmh0kQOCHv7/7Mnx+WoJ3D1Sb2S5hPudag430KaSvGAsuTFMwIUGDrIMnLOhYf7IkEfPWzEF8164IME7YVq1LfLkSAGzgMuJ1k7HBF8MCZxc41V3AgX0XUKWzh0+AL+whhJ2jHcQ2NhDbO8NZagdha+1lCl49aVBUUALH0D7g0lUYevtU4XZRLQRWjM23Hlqd6wywPKYBD+2fGvz2yd8QGtIbUUNmYYeqJ55wrkc9AK28CvfgjA4dbIxPYvyFecwLdzVKS+VwcfeA8SN5ujt7sWBoD3j5x2L4mFQs+ekudKQDIELo3HVYHn8ZC+K6InDkQuzKVwPqOyiucIKXl2NTJyJPeHbUoKLc+qeENKWluOvoDg9pwyc2EAkb1KyFTFaO+6c+wZSUFKSkpCBl8joU+ofAz1nY1AkAiEIxd91yxF9egLiugRi5cBfy1YBWJkP5/VP4ZIr+/JTJWFfojxA/Z3A92EDi5gE3S5ZtjHMbiCVi6DRai/KpS0shd3GHh5GyeWUyMw/o7mDvgqHo4eWP2OFjkLrkJ9zVUVPSspHAzcPNjIOqcae4Ak5eXmiylgienh2hqSg3aAloUFp6F47uHmgyiQhNJpFBVn4fpz6Zopc9BZPXFcI/xA/OQnO+UopSuQvcjRVhrQ816l4CidgGNs1sIZGIodM2390pgFgibvzLzs0NTrVyyFXW6qApoduIJRDrNNACsA0dgDhkYtX7m/Dj3i+w+Ivz6Nk/CV4CvtgxwpINGxC4YeTEYaDMLcisuo/j2/bj/uAUPNnBqJ1tKAbEAZmr3semH/fii8Vf4HzP/kjyEvD7WGMHpudq+VyjmOH1icYhmjDwVf4YMkSHO3sXYGgPL/jHDseY1CX46a4OpIN5HzNCfacYFU5eMHQ5T3TUVKC8qskSTS4mhkSsAxfufPM04/sGWDlXk7mGDx69mEIUjFmZ+SgsLERh4S1kvRNn3AK2kXOwZCIhY/FnuKgxcJUmzOUqaxCI0RSmdnBzc0KtXG5Bx1xrG4kbPMwlbGtyCm+ubMB0bPDFsCh0LtYtj8flBXHoGjgSC3flm/nC1Up7mYJXT7YI5RID3t/0I/Z+sRhfnO+J/kleEFgcm389tDrXGWBpTCMe2j9F6D33Z9wqLEKJvAw5C52w6e9T8NEFDYRSKRwgR0UFzzMbjL8cZtz5cUEMqdQONVVVRg+yqHDovZewWj0DRwrycen8aawZ59U0WWk4ZnxxAjcubkVq3XpMfWUDIHaCUzsFKuXNUpOuHHerJHB1d2n6zAJCB0fY18pR2XhxjZo9ByWA1FkKh4HvIzs3F7n6n3Nnd2JuuKixjwak4TPwxYkbuLg1FXXrp+KVDTIIpM6QOgzE+9lN5+eeO4udc8PRsofWwi+fWCqFXU0VqozWXUsymZqH6tB7eGm1GjOOFCD/0nmcXjMOXlZ7oxhOTu2gqJQ3W0h0KL9bBYmru0FLQAgHR3vUyiubHhQmanrDgkAKZ6kDBr6f3SR77jmc3TkX4ZzwJnxFCqldDaqMFdFGPtSCZjlZLa+EwrEDOti2RgctUV/Kxq/SSPQo3YHVaw/CdspmbJ8fDpGl2GlGa2zoMnwSRtj+jC3f78HWffUYPmEYWmhEfQnZv0oR2aMUO1avxUHbKdi8fT7CRZZ9jI9Wn2vJJ3jhjyEDVIfw3kuroZ5xBAX5l3D+9BqMa1CgOR8zQuzkhHaKShi63F1USVzh7mLGGA1Ymqcp3zfswPq5tgY+vTwwLhi6aCEG3PwUS/ZWmazbYSZXAQIIbepRX9/QiqAz8XBr0ydqyCsVcOzQwbKOLfGocooe/hiWInzGFzhx4yK2ptZh/dRXsEGm46qG5gpsC3vx6kmNS9m/QhrZA6U7VmPtQVtM2bwd88NFDzm29bnOgIca0xzW+SfgiOApKYgVXEDOeRXEYX0QKvkdB39qg9ckMx4bHtbb/mAkiE6KhvboNuzWv06pOjcDG7OqUSW/B7G7D7zsAF3lKfx8tkJ/JVCJq2dyUa4F7PySkZLcBfU11YAkDgPjBTi2eStuaQFAi8LtXyNTk4zRyVJAeRqfv/oavrbwCixxRBwiBCexe68MOgCKnE/x8U7ud0CCPv1jIfplM75r9pJedXUV7jfrAwCgvIozueXQwg5+ySlI7lKPmmolJH36I1b0CzZ/1yxQ1dWoatHBg8AvnyQ6CdHao9i2Wz+f6lxkbMyCmk8mM/PQVslxT+wOH85AOPXzWVSYu2LRAgniBsZDcGwztnLGgrZwO77O1CB5dLJRWzEi4iIgOLkbe2U6AArkfPoxdja8fkvSB/1jRfhl83fN3pusRjUnvBlfiUZStBZHt+0G1001cjM2IkttwYceBKrC/k9X4HQNd3Xs+63HIIgfiDhJa3TQEnVxEUrv10MaOBhPjx+NQcFO0NzXAtDyxI4hrbKhQzKefdoFB/71On6weRIpA5tdQWxAXYyi0vuolwZi8NPjMXpQMJw096EFHsrvW30ur09Ygj+GDNBWQX5PDHcfL9hBh8pTP+NsgwLN+ZjBqycASdxAxAuOYfPWW9zctIXY/nUmNMmjYdHleOdpxvcNaMVcWwOfXh4Cgc8ULJnlh8MbM2HyTbBmchVEPvDxUOBi7lWoASjOrMBHO8oMYoKq9uPTFafBhen32HpMgPiBcRZ0bAWW1qWHhC+GlVfPIJdzACSnJKNLfQ2qlQDQDva2ClTc1X+ZaAt78epJjeKiUtyvlyJw8NMYP3oQgp004NLVw4xtfa4z4KHGNI9F/wQAKHBp4zacQhhiwu0g8BiLF8a7IeuDaXgn8xbuA9ApbuDHj2fgjc2l0BTuxpKXFuP7/Kb4ZDz+POaFuwA+zy3FOxHZmBkViQHJkQgfsx75AkcMmjYNvj++iJi+8YhITIesS3e0E4kA1OHy+hSE9orDwAFRGLSyDpNnTwAEnpi8bAWGXn8DMcGJGJjUGzFvFmLs2pVI9RBAJz+D7esy8EsBf+Eu8EjF4oVBOP5iDGIGxCJmRg76jomEvUgEQIBOE5Zh1ZM38XpUIPoOHork2J4ISHgb2cbbX+suY31KKHrFDcSAqEFYWTcZsyf4QtBpApatehI3X49CYN/BGJoci54BCXhb34FYLIGthO9SjhhiiS2aNxGJxRCLRRBYkE/g8xyWvhOB7JlRiByQjMjwMVifL4CITyYz87AfNA3TfH/EizF9ER+RiHRZF3RvJ9JfAW0pIwzmJoDn5GVYMfQ63ogJRuLAJPSOeROFY9diZaqH4UkQwCN1MRYGHceLMTEYEBuDGTl9MSbSHpxJOmHCslV48ubriArsi8FDkxHbMwAJb2dDZdZXfPDc0ncQkT0TUZEDkBwZjjHr8yEQ8ftQy3kJIRaLIZaIGq+wiCScLRqxcUA3h8N4LioaSX1iMft8Aj54LxXuAss6aOELIjHEYjFEAsA+eggStJdx6tczyDq0Fxn/noKooFFYfdmWJ3YAiMUQS7iN1vw2NMYOfZ8dB19ZMRxHpqK/qb3D9tEYkqDF5VO/4kzWIezN+DemRAVh1OrLID4fszDXVscMr08YY2xT/hgCxBCLJVx7+0GYNs0XP74Yg77xEUhMl6FL93Z6vzTjYwLOBhJbCUQABJ6TsWzFUFx/IwbBiQOR1DsGbxaOxdqVqeBcrqkth4jzOU4xPPM04/sGWDFXs7nGGCv1YoxQDLFIBLHIxDVKIecD4sZdOyL0nvUhXg22AxydDdvCfM6FKATPzX4KFcsHITw+BnEvXkLSuHB9TuewcegGh8PPISo6CX1iZ+N8wgd4L9Xdgo5N2cfoMwvrkikdGyMWi83GBl8M111ej5TQXogbOABRg1aibvJsTPAVAJJYjBzugv3/TES/xKlYX5Fsvb2a5Q8Dm/PqyR7RQxKgvXwKv57JwqG9Gfj3lCgEjVqNy7b8vtIitg2w5891BvxB/mljC6mjDc5/EA+3jh3RsX0XDF2txZQN32JuoBBAezz10RYs7y/Dqqf84eLoDGmHXkj9shpdnnCGrigLWzZssli3MB4vbIhM3PNjGKHDnfWjEb06BNuz3kUs/7ZTBqNtUGViRsBk3P+kAGujriK3SAz/8KAWzxi0HjWOzQnBONm7uLJpHJwBQJOL9KgEnHz+BjJfMHpotI3QFXyKIb0/Q++9v+HjhJZvnFcfm4OQcTK8e2UTxnFCITc9Cgknn8eNzBfg/iiEYjAeElXmDARMvo9PCtYi6mouisT+CA9q+dwV4wFRH8OckHGQvXsFm7jEAE1uOqISTuL5G5l4gSUGxv8YzOOtQX0G/7dWhr9/Np8V7Yw/AAEcfMIQH9cWRTuHrZ0Yityd+GrXLzh18gi2f/wethSFIjmh4yNKClpc3bQJJ71GYVx0y6IdAGBrB7EiFzu/2oVfTp3Eke0f470tRQhNTkDHRyMUg9F2CBzgExaPOFa0tzG2sBMrkLvzK+z65RROHtmOj9/bgqLQZCSwxMD4H4RdcbcKNWprAQcHMwUHg/Eo0ORgxaT3oJq9GfPi2tj3an/H9o9XYGPWNdxViuDi1wd/e2EOpsZYejvFA6KrwI7XJmG7/zJ89VJvM9tpavH79o+xYmMWrt1VQuTihz5/ewFzpsaYfSsEg/FHo8lZgUnvqTB78zy0dZgyOGp/346PV2xE1rW7UIpc4Nfnb3hhzlTEsMTA+B+EFe4MBoPBYDAYDMZjAPu6ymAwGAwGg8FgPAawwp3BYDAYDAaDwXgMYIU7g8FgMBgMBoPxGMAKdwaDwWAwGAwG4zGAFe4MBoPBYDAYDMZjACvcGQwGg8FgMBiMxwBWuDMYDAaDwWAwGI8BrHBnMBgMBoPBYDAeA1jhzmAwGAwGg8FgPAb8f0fnVUWOB67tAAAAAElFTkSuQmCC;" vertex="1" parent="1">
          <mxGeometry x="10" width="474.68" height="50" as="geometry" />
        </mxCell>
        <mxCell id="LjI7DAijL7peGVdVRBZd-8" value="nroActa ---&amp;gt;cuilActa,fecha,importeTotal" style="text;html=1;align=center;verticalAlign=middle;resizable=0;points=[];autosize=1;strokeColor=none;fillColor=none;" vertex="1" parent="1">
          <mxGeometry x="40" y="515" width="230" height="30" as="geometry" />
        </mxCell>
        <mxCell id="LjI7DAijL7peGVdVRBZd-9" value="DF1" style="text;html=1;align=center;verticalAlign=middle;resizable=0;points=[];autosize=1;strokeColor=none;fillColor=none;" vertex="1" parent="1">
          <mxGeometry x="50" y="430" width="50" height="30" as="geometry" />
        </mxCell>
        <mxCell id="LjI7DAijL7peGVdVRBZd-10" value="Infracciones =&amp;nbsp; {nroActa,cuilActa,codInf,fecha,importeTotal}" style="text;html=1;align=center;verticalAlign=middle;resizable=0;points=[];autosize=1;strokeColor=none;fillColor=none;" vertex="1" parent="1">
          <mxGeometry x="44" y="460" width="340" height="30" as="geometry" />
        </mxCell>
        <mxCell id="LjI7DAijL7peGVdVRBZd-11" value="" style="endArrow=classic;html=1;rounded=0;entryX=0.488;entryY=0.95;entryDx=0;entryDy=0;entryPerimeter=0;" edge="1" parent="1" target="LjI7DAijL7peGVdVRBZd-10">
          <mxGeometry width="50" height="50" relative="1" as="geometry">
            <mxPoint x="160" y="490" as="sourcePoint" />
            <mxPoint x="260" y="490" as="targetPoint" />
            <Array as="points">
              <mxPoint x="160" y="510" />
              <mxPoint x="210" y="510" />
            </Array>
          </mxGeometry>
        </mxCell>
        <mxCell id="LjI7DAijL7peGVdVRBZd-12" value="" style="endArrow=classic;html=1;rounded=0;" edge="1" parent="1">
          <mxGeometry width="50" height="50" relative="1" as="geometry">
            <mxPoint x="210" y="510" as="sourcePoint" />
            <mxPoint x="290" y="490" as="targetPoint" />
            <Array as="points">
              <mxPoint x="290" y="510" />
            </Array>
          </mxGeometry>
        </mxCell>
        <mxCell id="LjI7DAijL7peGVdVRBZd-13" value="" style="endArrow=classic;html=1;rounded=0;" edge="1" parent="1">
          <mxGeometry width="50" height="50" relative="1" as="geometry">
            <mxPoint x="290" y="510" as="sourcePoint" />
            <mxPoint x="330" y="490" as="targetPoint" />
            <Array as="points">
              <mxPoint x="330" y="510" />
            </Array>
          </mxGeometry>
        </mxCell>
        <mxCell id="LjI7DAijL7peGVdVRBZd-14" value="nroActa + codInf ---&amp;gt; X" style="text;html=1;align=center;verticalAlign=middle;resizable=0;points=[];autosize=1;strokeColor=none;fillColor=none;" vertex="1" parent="1">
          <mxGeometry x="384" y="515" width="140" height="30" as="geometry" />
        </mxCell>
        <mxCell id="LjI7DAijL7peGVdVRBZd-15" value="DF2" style="text;html=1;align=center;verticalAlign=middle;resizable=0;points=[];autosize=1;strokeColor=none;fillColor=none;" vertex="1" parent="1">
          <mxGeometry x="385" y="430" width="50" height="30" as="geometry" />
        </mxCell>
        <mxCell id="LjI7DAijL7peGVdVRBZd-16" value="Infracciones =&amp;nbsp; {nroActa,cuilActa,codInf,fecha,importeTotal}" style="text;html=1;align=center;verticalAlign=middle;resizable=0;points=[];autosize=1;strokeColor=none;fillColor=none;" vertex="1" parent="1">
          <mxGeometry x="379" y="460" width="340" height="30" as="geometry" />
        </mxCell>
        <mxCell id="LjI7DAijL7peGVdVRBZd-20" value="" style="endArrow=none;html=1;rounded=0;" edge="1" parent="1">
          <mxGeometry width="50" height="50" relative="1" as="geometry">
            <mxPoint x="504" y="490" as="sourcePoint" />
            <mxPoint x="594" y="490" as="targetPoint" />
            <Array as="points">
              <mxPoint x="504" y="505" />
              <mxPoint x="594" y="505" />
            </Array>
          </mxGeometry>
        </mxCell>
        <mxCell id="LjI7DAijL7peGVdVRBZd-21" value="B)" style="text;html=1;align=center;verticalAlign=middle;resizable=0;points=[];autosize=1;strokeColor=none;fillColor=none;" vertex="1" parent="1">
          <mxGeometry x="20" y="568" width="40" height="30" as="geometry" />
        </mxCell>
        <mxCell id="LjI7DAijL7peGVdVRBZd-22" value="Infracciones =&amp;nbsp; {nroActa,cuilActa,codInf,fecha,importeTotal}" style="text;html=1;align=center;verticalAlign=middle;resizable=0;points=[];autosize=1;strokeColor=none;fillColor=none;" vertex="1" parent="1">
          <mxGeometry x="50" y="590" width="340" height="30" as="geometry" />
        </mxCell>
        <mxCell id="LjI7DAijL7peGVdVRBZd-23" value="1FN" style="text;html=1;align=center;verticalAlign=middle;resizable=0;points=[];autosize=1;strokeColor=none;fillColor=none;" vertex="1" parent="1">
          <mxGeometry x="55" y="568" width="50" height="30" as="geometry" />
        </mxCell>
        <mxCell id="LjI7DAijL7peGVdVRBZd-24" value="2FN" style="text;html=1;align=center;verticalAlign=middle;resizable=0;points=[];autosize=1;strokeColor=none;fillColor=none;" vertex="1" parent="1">
          <mxGeometry x="55" y="620" width="50" height="30" as="geometry" />
        </mxCell>
        <mxCell id="LjI7DAijL7peGVdVRBZd-25" value="Acta = {&lt;u&gt;nroActa,&lt;/u&gt;CuilActa,fecha,importeTotal}" style="text;html=1;align=center;verticalAlign=middle;resizable=0;points=[];autosize=1;strokeColor=none;fillColor=none;" vertex="1" parent="1">
          <mxGeometry x="44" y="648" width="260" height="30" as="geometry" />
        </mxCell>
        <mxCell id="LjI7DAijL7peGVdVRBZd-26" value="Infracciones = {&lt;u&gt;nroActa,codInf&lt;/u&gt;}" style="text;html=1;align=center;verticalAlign=middle;resizable=0;points=[];autosize=1;strokeColor=none;fillColor=none;" vertex="1" parent="1">
          <mxGeometry x="44" y="678" width="190" height="30" as="geometry" />
        </mxCell>
        <mxCell id="LjI7DAijL7peGVdVRBZd-27" value="3FN" style="text;html=1;align=center;verticalAlign=middle;resizable=0;points=[];autosize=1;strokeColor=none;fillColor=none;" vertex="1" parent="1">
          <mxGeometry x="430" y="560" width="50" height="30" as="geometry" />
        </mxCell>
        <mxCell id="LjI7DAijL7peGVdVRBZd-28" value="2FN se encuentra en 3FN&lt;div&gt;&amp;nbsp;porque los atributos no primos&amp;nbsp;&lt;div&gt;&lt;span style=&quot;background-color: initial;&quot;&gt;no son mutuamente independientes&lt;/span&gt;&lt;/div&gt;&lt;/div&gt;" style="text;html=1;align=left;verticalAlign=middle;resizable=0;points=[];autosize=1;strokeColor=none;fillColor=none;" vertex="1" parent="1">
          <mxGeometry x="430" y="585" width="210" height="60" as="geometry" />
        </mxCell>
        <mxCell id="LjI7DAijL7peGVdVRBZd-29" value="BCFN" style="text;html=1;align=center;verticalAlign=middle;resizable=0;points=[];autosize=1;strokeColor=none;fillColor=none;" vertex="1" parent="1">
          <mxGeometry x="424" y="660" width="60" height="30" as="geometry" />
        </mxCell>
        <mxCell id="LjI7DAijL7peGVdVRBZd-30" value="Se encuentra en BCFN ya que&amp;nbsp;&lt;div&gt;l&lt;span style=&quot;background-color: initial;&quot;&gt;os determinantes son claves candidatas&lt;/span&gt;&lt;/div&gt;" style="text;html=1;align=left;verticalAlign=middle;resizable=0;points=[];autosize=1;strokeColor=none;fillColor=none;" vertex="1" parent="1">
          <mxGeometry x="429" y="690" width="240" height="40" as="geometry" />
        </mxCell>
      </root>
    </mxGraphModel>
  </diagram>
</mxfile>
